<ttFont>
<head>
    <!-- Most of this table will be recalculated by the compiler -->
    <tableVersion value="1.0"/>
    <fontRevision value="1.0"/>
    <checkSumAdjustment value="0x235819d7"/>
    <magicNumber value="0x5f0f3cf5"/>
    <flags value="00000000 00001011"/>
    <unitsPerEm value="1024"/>
    <created value="Mon Jan 13 19:17:08 2014"/>
    <modified value="Mon Jan 13 19:17:08 2014"/>
    <xMin value="0"/>
    <yMin value="-64"/>
    <xMax value="2048"/>
    <yMax value="960"/>
    <macStyle value="00000000 00000000"/>
    <lowestRecPPEM value="8"/>
    <fontDirectionHint value="2"/>
    <indexToLocFormat value="0"/>
    <glyphDataFormat value="0"/>
  </head>
    <TTGlyph name="a" xMin="0" yMin="-64" xMax="1255" yMax="960">
      <contour>
        <pt x="1222" y="597" on="1"/>
        <pt x="1189" y="597" on="1"/>
        <pt x="1189" y="696" on="1"/>
        <pt x="1123" y="696" on="1"/>
        <pt x="1123" y="762" on="1"/>
        <pt x="1057" y="762" on="1"/>
        <pt x="1057" y="828" on="1"/>
        <pt x="991" y="828" on="1"/>
        <pt x="991" y="861" on="1"/>
        <pt x="925" y="861" on="1"/>
        <pt x="925" y="894" on="1"/>
        <pt x="859" y="894" on="1"/>
        <pt x="859" y="927" on="1"/>
        <pt x="727" y="927" on="1"/>
        <pt x="727" y="960" on="1"/>
        <pt x="529" y="960" on="1"/>
        <pt x="529" y="927" on="1"/>
        <pt x="396" y="927" on="1"/>
        <pt x="396" y="894" on="1"/>
        <pt x="330" y="894" on="1"/>
        <pt x="330" y="861" on="1"/>
        <pt x="264" y="861" on="1"/>
        <pt x="264" y="828" on="1"/>
        <pt x="198" y="828" on="1"/>
        <pt x="198" y="762" on="1"/>
        <pt x="132" y="762" on="1"/>
        <pt x="132" y="696" on="1"/>
        <pt x="66" y="696" on="1"/>
        <pt x="66" y="564" on="1"/>
        <pt x="0" y="564" on="1"/>
        <pt x="0" y="-64" on="1"/>
        <pt x="462" y="-64" on="1"/>
        <pt x="462" y="68" on="1"/>
        <pt x="793" y="68" on="1"/>
        <pt x="793" y="-64" on="1"/>
        <pt x="1255" y="-64" on="1"/>
        <pt x="1255" y="597" on="1"/>
        <pt x="1222" y="597" on="1"/>
      </contour>
      <contour>
        <pt x="793" y="729" on="1"/>
        <pt x="793" y="233" on="1"/>
        <pt x="462" y="233" on="1"/>
        <pt x="462" y="762" on="1"/>
        <pt x="529" y="762" on="1"/>
        <pt x="529" y="828" on="1"/>
        <pt x="595" y="828" on="1"/>
        <pt x="595" y="861" on="1"/>
        <pt x="661" y="861" on="1"/>
        <pt x="661" y="828" on="1"/>
        <pt x="727" y="828" on="1"/>
        <pt x="727" y="762" on="1"/>
        <pt x="793" y="762" on="1"/>
        <pt x="793" y="729" on="1"/>
      </contour>
    </TTGlyph>
    <TTGlyph name="b" xMin="0" yMin="-64" xMax="1255" yMax="960">
      <contour>
        <pt x="1255" y="332" on="1"/>
        <pt x="1255" y="365" on="0"/>
        <pt x="1255" y="431" on="0"/>
        <pt x="1255" y="498" on="0"/>
        <pt x="1255" y="564" on="0"/>
        <pt x="1255" y="597" on="1"/>
        <pt x="1189" y="597" on="1"/>
        <pt x="1189" y="609" on="0"/>
        <pt x="1189" y="634" on="0"/>
        <pt x="1189" y="659" on="0"/>
        <pt x="1189" y="683" on="0"/>
        <pt x="1189" y="696" on="1"/>
        <pt x="1181" y="696" on="0"/>
        <pt x="1164" y="696" on="0"/>
        <pt x="1148" y="696" on="0"/>
        <pt x="1131" y="696" on="0"/>
        <pt x="1123" y="696" on="1"/>
        <pt x="1123" y="704" on="0"/>
        <pt x="1123" y="721" on="0"/>
        <pt x="1123" y="737" on="0"/>
        <pt x="1123" y="754" on="0"/>
        <pt x="1123" y="762" on="1"/>
        <pt x="1115" y="762" on="0"/>
        <pt x="1098" y="762" on="0"/>
        <pt x="1082" y="762" on="0"/>
        <pt x="1065" y="762" on="0"/>
        <pt x="1057" y="762" on="1"/>
        <pt x="1057" y="770" on="0"/>
        <pt x="1057" y="787" on="0"/>
        <pt x="1057" y="803" on="0"/>
        <pt x="1057" y="820" on="0"/>
        <pt x="1057" y="828" on="1"/>
        <pt x="1049" y="828" on="0"/>
        <pt x="1032" y="828" on="0"/>
        <pt x="1016" y="828" on="0"/>
        <pt x="999" y="828" on="0"/>
        <pt x="991" y="828" on="1"/>
        <pt x="991" y="861" on="1"/>
        <pt x="983" y="861" on="0"/>
        <pt x="966" y="861" on="0"/>
        <pt x="950" y="861" on="0"/>
        <pt x="933" y="861" on="0"/>
        <pt x="925" y="861" on="1"/>
        <pt x="925" y="894" on="1"/>
        <pt x="917" y="894" on="0"/>
        <pt x="900" y="894" on="0"/>
        <pt x="884" y="894" on="0"/>
        <pt x="867" y="894" on="0"/>
        <pt x="859" y="894" on="1"/>
        <pt x="859" y="927" on="1"/>
        <pt x="842" y="927" on="0"/>
        <pt x="809" y="927" on="0"/>
        <pt x="776" y="927" on="0"/>
        <pt x="743" y="927" on="0"/>
        <pt x="727" y="927" on="1"/>
        <pt x="727" y="960" on="1"/>
        <pt x="636" y="960" on="0"/>
        <pt x="454" y="960" on="0"/>
        <pt x="273" y="960" on="0"/>
        <pt x="91" y="960" on="0"/>
        <pt x="0" y="960" on="1"/>
        <pt x="0" y="832" on="0"/>
        <pt x="0" y="576" on="0"/>
        <pt x="0" y="320" on="0"/>
        <pt x="0" y="64" on="0"/>
        <pt x="0" y="-64" on="1"/>
        <pt x="157" y="-64" on="0"/>
        <pt x="471" y="-64" on="0"/>
        <pt x="785" y="-64" on="0"/>
        <pt x="1098" y="-64" on="0"/>
        <pt x="1255" y="-64" on="1"/>
        <pt x="1255" y="-27" on="0"/>
        <pt x="1255" y="47" on="0"/>
        <pt x="1255" y="122" on="0"/>
        <pt x="1255" y="196" on="0"/>
        <pt x="1255" y="233" on="1"/>
        <pt x="1247" y="233" on="0"/>
        <pt x="1230" y="233" on="0"/>
        <pt x="1214" y="233" on="0"/>
        <pt x="1197" y="233" on="0"/>
        <pt x="1189" y="233" on="1"/>
        <pt x="1189" y="242" on="0"/>
        <pt x="1189" y="258" on="0"/>
        <pt x="1189" y="275" on="0"/>
        <pt x="1189" y="291" on="0"/>
        <pt x="1189" y="299" on="1"/>
        <pt x="1181" y="299" on="0"/>
        <pt x="1164" y="299" on="0"/>
        <pt x="1148" y="299" on="0"/>
        <pt x="1131" y="299" on="0"/>
        <pt x="1123" y="299" on="1"/>
        <pt x="1123" y="332" on="1"/>
        <pt x="1140" y="332" on="0"/>
        <pt x="1173" y="332" on="0"/>
        <pt x="1206" y="332" on="0"/>
        <pt x="1239" y="332" on="0"/>
        <pt x="1255" y="332" on="1"/>
      </contour>
      <contour>
        <pt x="793" y="101" on="1"/>
        <pt x="462" y="101" on="1"/>
        <pt x="462" y="332" on="1"/>
        <pt x="661" y="332" on="1"/>
        <pt x="661" y="299" on="1"/>
        <pt x="727" y="299" on="1"/>
        <pt x="727" y="233" on="1"/>
        <pt x="793" y="233" on="1"/>
        <pt x="793" y="101" on="1"/>
      </contour>
      <contour>
        <pt x="793" y="431" on="1"/>
        <pt x="462" y="431" on="1"/>
        <pt x="462" y="861" on="1"/>
        <pt x="661" y="861" on="1"/>
        <pt x="661" y="828" on="1"/>
        <pt x="727" y="828" on="1"/>
        <pt x="727" y="762" on="1"/>
        <pt x="793" y="762" on="1"/>
        <pt x="793" y="431" on="1"/>
      </contour>
    </TTGlyph>
    <TTGlyph name="c" xMin="0" yMin="-64" xMax="1255" yMax="960">
      <contour>
        <pt x="1222" y="101" on="1"/>
        <pt x="1127" y="101" on="0"/>
        <pt x="937" y="101" on="0"/>
        <pt x="747" y="101" on="0"/>
        <pt x="557" y="101" on="0"/>
        <pt x="462" y="101" on="1"/>
        <pt x="462" y="184" on="0"/>
        <pt x="462" y="349" on="0"/>
        <pt x="462" y="514" on="0"/>
        <pt x="462" y="679" on="0"/>
        <pt x="462" y="762" on="1"/>
        <pt x="471" y="762" on="0"/>
        <pt x="487" y="762" on="0"/>
        <pt x="504" y="762" on="0"/>
        <pt x="520" y="762" on="0"/>
        <pt x="529" y="762" on="1"/>
        <pt x="529" y="770" on="0"/>
        <pt x="529" y="787" on="0"/>
        <pt x="529" y="803" on="0"/>
        <pt x="529" y="820" on="0"/>
        <pt x="529" y="828" on="1"/>
        <pt x="537" y="828" on="0"/>
        <pt x="553" y="828" on="0"/>
        <pt x="570" y="828" on="0"/>
        <pt x="586" y="828" on="0"/>
        <pt x="595" y="828" on="1"/>
        <pt x="595" y="861" on="1"/>
        <pt x="636" y="861" on="0"/>
        <pt x="718" y="861" on="0"/>
        <pt x="801" y="861" on="0"/>
        <pt x="884" y="861" on="0"/>
        <pt x="925" y="861" on="1"/>
        <pt x="925" y="873" on="0"/>
        <pt x="925" y="898" on="0"/>
        <pt x="925" y="923" on="0"/>
        <pt x="925" y="948" on="0"/>
        <pt x="925" y="960" on="1"/>
        <pt x="875" y="960" on="0"/>
        <pt x="776" y="960" on="0"/>
        <pt x="677" y="960" on="0"/>
        <pt x="578" y="960" on="0"/>
        <pt x="529" y="960" on="1"/>
        <pt x="529" y="927" on="1"/>
        <pt x="512" y="927" on="0"/>
        <pt x="479" y="927" on="0"/>
        <pt x="446" y="927" on="0"/>
        <pt x="413" y="927" on="0"/>
        <pt x="396" y="927" on="1"/>
        <pt x="396" y="894" on="1"/>
        <pt x="388" y="894" on="0"/>
        <pt x="372" y="894" on="0"/>
        <pt x="355" y="894" on="0"/>
        <pt x="339" y="894" on="0"/>
        <pt x="330" y="894" on="1"/>
        <pt x="330" y="861" on="1"/>
        <pt x="322" y="861" on="0"/>
        <pt x="306" y="861" on="0"/>
        <pt x="289" y="861" on="0"/>
        <pt x="273" y="861" on="0"/>
        <pt x="264" y="861" on="1"/>
        <pt x="264" y="828" on="1"/>
        <pt x="256" y="828" on="0"/>
        <pt x="239" y="828" on="0"/>
        <pt x="223" y="828" on="0"/>
        <pt x="206" y="828" on="0"/>
        <pt x="198" y="828" on="1"/>
        <pt x="198" y="820" on="0"/>
        <pt x="198" y="803" on="0"/>
        <pt x="198" y="787" on="0"/>
        <pt x="198" y="770" on="0"/>
        <pt x="198" y="762" on="1"/>
        <pt x="190" y="762" on="0"/>
        <pt x="173" y="762" on="0"/>
        <pt x="157" y="762" on="0"/>
        <pt x="140" y="762" on="0"/>
        <pt x="132" y="762" on="1"/>
        <pt x="132" y="754" on="0"/>
        <pt x="132" y="737" on="0"/>
        <pt x="132" y="721" on="0"/>
        <pt x="132" y="704" on="0"/>
        <pt x="132" y="696" on="1"/>
        <pt x="124" y="696" on="0"/>
        <pt x="107" y="696" on="0"/>
        <pt x="91" y="696" on="0"/>
        <pt x="74" y="696" on="0"/>
        <pt x="66" y="696" on="1"/>
        <pt x="66" y="679" on="0"/>
        <pt x="66" y="646" on="0"/>
        <pt x="66" y="613" on="0"/>
        <pt x="66" y="580" on="0"/>
        <pt x="66" y="564" on="1"/>
        <pt x="58" y="564" on="0"/>
        <pt x="41" y="564" on="0"/>
        <pt x="25" y="564" on="0"/>
        <pt x="8" y="564" on="0"/>
        <pt x="0" y="564" on="1"/>
        <pt x="0" y="485" on="0"/>
        <pt x="0" y="328" on="0"/>
        <pt x="0" y="171" on="0"/>
        <pt x="0" y="14" on="0"/>
        <pt x="0" y="-64" on="1"/>
        <pt x="157" y="-64" on="0"/>
        <pt x="471" y="-64" on="0"/>
        <pt x="785" y="-64" on="0"/>
        <pt x="1098" y="-64" on="0"/>
        <pt x="1255" y="-64" on="1"/>
        <pt x="1255" y="-43" on="0"/>
        <pt x="1255" y="-2" on="0"/>
        <pt x="1255" y="39" on="0"/>
        <pt x="1255" y="81" on="0"/>
        <pt x="1255" y="101" on="1"/>
        <pt x="1222" y="101" on="1"/>
      </contour>
    </TTGlyph>
    <TTGlyph name="comma" xMin="0" yMin="-64" xMax="462" yMax="134">
      <contour>
        <pt x="429" y="134" on="1"/>
        <pt x="400" y="134" on="0"/>
        <pt x="343" y="134" on="0"/>
        <pt x="284" y="134" on="0"/>
        <pt x="227" y="134" on="0"/>
        <pt x="197" y="134" on="1"/>
        <pt x="198" y="101" on="1"/>
        <pt x="189" y="101" on="0"/>
        <pt x="173" y="101" on="0"/>
        <pt x="156" y="101" on="0"/>
        <pt x="140" y="101" on="0"/>
        <pt x="131" y="101" on="1"/>
        <pt x="132" y="93" on="0"/>
        <pt x="131" y="76" on="0"/>
        <pt x="132" y="60" on="0"/>
        <pt x="131" y="43" on="0"/>
        <pt x="132" y="35" on="1"/>
        <pt x="123" y="35" on="0"/>
        <pt x="107" y="35" on="0"/>
        <pt x="90" y="35" on="0"/>
        <pt x="74" y="35" on="0"/>
        <pt x="65" y="35" on="1"/>
        <pt x="66" y="27" on="0"/>
        <pt x="65" y="10" on="0"/>
        <pt x="66" y="-6" on="0"/>
        <pt x="65" y="-23" on="0"/>
        <pt x="66" y="-31" on="1"/>
        <pt x="57" y="-31" on="0"/>
        <pt x="41" y="-31" on="0"/>
        <pt x="24" y="-31" on="0"/>
        <pt x="8" y="-31" on="0"/>
        <pt x="-1" y="-31" on="1"/>
        <pt x="0" y="-64" on="1"/>
        <pt x="40" y="-64" on="0"/>
        <pt x="124" y="-64" on="0"/>
        <pt x="205" y="-64" on="0"/>
        <pt x="289" y="-64" on="0"/>
        <pt x="329" y="-64" on="1"/>
        <pt x="330" y="-31" on="1"/>
        <pt x="338" y="-31" on="0"/>
        <pt x="355" y="-31" on="0"/>
        <pt x="371" y="-31" on="0"/>
        <pt x="388" y="-31" on="0"/>
        <pt x="395" y="-31" on="1"/>
        <pt x="396" y="-23" on="0"/>
        <pt x="395" y="-6" on="0"/>
        <pt x="396" y="10" on="0"/>
        <pt x="395" y="27" on="0"/>
        <pt x="396" y="35" on="1"/>
        <pt x="404" y="35" on="0"/>
        <pt x="421" y="35" on="0"/>
        <pt x="437" y="35" on="0"/>
        <pt x="454" y="35" on="0"/>
        <pt x="461" y="35" on="1"/>
        <pt x="462" y="47" on="0"/>
        <pt x="461" y="72" on="0"/>
        <pt x="462" y="97" on="0"/>
        <pt x="461" y="122" on="0"/>
        <pt x="462" y="134" on="1"/>
        <pt x="428" y="134" on="1"/>
      </contour>
    </TTGlyph>
    <TTGlyph name="d" xMin="0" yMin="-64" xMax="1255" yMax="960">
      <contour>
        <pt x="1222" y="597" on="1"/>
        <pt x="1189" y="597" on="1"/>
        <pt x="1189" y="609" on="0"/>
        <pt x="1189" y="634" on="0"/>
        <pt x="1189" y="659" on="0"/>
        <pt x="1189" y="683" on="0"/>
        <pt x="1189" y="696" on="1"/>
        <pt x="1181" y="696" on="0"/>
        <pt x="1164" y="696" on="0"/>
        <pt x="1148" y="696" on="0"/>
        <pt x="1131" y="696" on="0"/>
        <pt x="1123" y="696" on="1"/>
        <pt x="1123" y="704" on="0"/>
        <pt x="1123" y="721" on="0"/>
        <pt x="1123" y="737" on="0"/>
        <pt x="1123" y="754" on="0"/>
        <pt x="1123" y="762" on="1"/>
        <pt x="1115" y="762" on="0"/>
        <pt x="1098" y="762" on="0"/>
        <pt x="1082" y="762" on="0"/>
        <pt x="1065" y="762" on="0"/>
        <pt x="1057" y="762" on="1"/>
        <pt x="1057" y="770" on="0"/>
        <pt x="1057" y="787" on="0"/>
        <pt x="1057" y="803" on="0"/>
        <pt x="1057" y="820" on="0"/>
        <pt x="1057" y="828" on="1"/>
        <pt x="1049" y="828" on="0"/>
        <pt x="1032" y="828" on="0"/>
        <pt x="1016" y="828" on="0"/>
        <pt x="999" y="828" on="0"/>
        <pt x="991" y="828" on="1"/>
        <pt x="991" y="861" on="1"/>
        <pt x="983" y="861" on="0"/>
        <pt x="966" y="861" on="0"/>
        <pt x="950" y="861" on="0"/>
        <pt x="933" y="861" on="0"/>
        <pt x="925" y="861" on="1"/>
        <pt x="925" y="894" on="1"/>
        <pt x="917" y="894" on="0"/>
        <pt x="900" y="894" on="0"/>
        <pt x="884" y="894" on="0"/>
        <pt x="867" y="894" on="0"/>
        <pt x="859" y="894" on="1"/>
        <pt x="859" y="927" on="1"/>
        <pt x="842" y="927" on="0"/>
        <pt x="809" y="927" on="0"/>
        <pt x="776" y="927" on="0"/>
        <pt x="743" y="927" on="0"/>
        <pt x="727" y="927" on="1"/>
        <pt x="727" y="960" on="1"/>
        <pt x="636" y="960" on="0"/>
        <pt x="454" y="960" on="0"/>
        <pt x="273" y="960" on="0"/>
        <pt x="91" y="960" on="0"/>
        <pt x="0" y="960" on="1"/>
        <pt x="0" y="832" on="0"/>
        <pt x="0" y="576" on="0"/>
        <pt x="0" y="320" on="0"/>
        <pt x="0" y="64" on="0"/>
        <pt x="0" y="-64" on="1"/>
        <pt x="157" y="-64" on="0"/>
        <pt x="471" y="-64" on="0"/>
        <pt x="785" y="-64" on="0"/>
        <pt x="1098" y="-64" on="0"/>
        <pt x="1255" y="-64" on="1"/>
        <pt x="1255" y="19" on="0"/>
        <pt x="1255" y="184" on="0"/>
        <pt x="1255" y="349" on="0"/>
        <pt x="1255" y="514" on="0"/>
        <pt x="1255" y="597" on="1"/>
        <pt x="1222" y="597" on="1"/>
      </contour>
      <contour>
        <pt x="793" y="101" on="1"/>
        <pt x="462" y="101" on="1"/>
        <pt x="462" y="861" on="1"/>
        <pt x="661" y="861" on="1"/>
        <pt x="661" y="828" on="1"/>
        <pt x="727" y="828" on="1"/>
        <pt x="727" y="762" on="1"/>
        <pt x="793" y="762" on="1"/>
        <pt x="793" y="101" on="1"/>
      </contour>
    </TTGlyph>
    <TTGlyph name="e" xMin="0" yMin="-64" xMax="1255" yMax="960">
      <contour>
        <pt x="1222" y="101" on="1"/>
        <pt x="1127" y="101" on="0"/>
        <pt x="937" y="101" on="0"/>
        <pt x="747" y="101" on="0"/>
        <pt x="557" y="101" on="0"/>
        <pt x="462" y="101" on="1"/>
        <pt x="462" y="109" on="0"/>
        <pt x="462" y="126" on="0"/>
        <pt x="462" y="142" on="0"/>
        <pt x="462" y="159" on="0"/>
        <pt x="462" y="167" on="1"/>
        <pt x="495" y="167" on="0"/>
        <pt x="562" y="167" on="0"/>
        <pt x="628" y="167" on="0"/>
        <pt x="694" y="167" on="0"/>
        <pt x="727" y="167" on="1"/>
        <pt x="727" y="184" on="0"/>
        <pt x="727" y="217" on="0"/>
        <pt x="727" y="250" on="0"/>
        <pt x="727" y="283" on="0"/>
        <pt x="727" y="299" on="1"/>
        <pt x="694" y="299" on="0"/>
        <pt x="628" y="299" on="0"/>
        <pt x="562" y="299" on="0"/>
        <pt x="495" y="299" on="0"/>
        <pt x="462" y="299" on="1"/>
        <pt x="462" y="357" on="0"/>
        <pt x="462" y="473" on="0"/>
        <pt x="462" y="588" on="0"/>
        <pt x="462" y="704" on="0"/>
        <pt x="462" y="762" on="1"/>
        <pt x="471" y="762" on="0"/>
        <pt x="487" y="762" on="0"/>
        <pt x="504" y="762" on="0"/>
        <pt x="520" y="762" on="0"/>
        <pt x="529" y="762" on="1"/>
        <pt x="529" y="770" on="0"/>
        <pt x="529" y="787" on="0"/>
        <pt x="529" y="803" on="0"/>
        <pt x="529" y="820" on="0"/>
        <pt x="529" y="828" on="1"/>
        <pt x="537" y="828" on="0"/>
        <pt x="553" y="828" on="0"/>
        <pt x="570" y="828" on="0"/>
        <pt x="586" y="828" on="0"/>
        <pt x="595" y="828" on="1"/>
        <pt x="595" y="861" on="1"/>
        <pt x="636" y="861" on="0"/>
        <pt x="718" y="861" on="0"/>
        <pt x="801" y="861" on="0"/>
        <pt x="884" y="861" on="0"/>
        <pt x="925" y="861" on="1"/>
        <pt x="925" y="873" on="0"/>
        <pt x="925" y="898" on="0"/>
        <pt x="925" y="923" on="0"/>
        <pt x="925" y="948" on="0"/>
        <pt x="925" y="960" on="1"/>
        <pt x="875" y="960" on="0"/>
        <pt x="776" y="960" on="0"/>
        <pt x="677" y="960" on="0"/>
        <pt x="578" y="960" on="0"/>
        <pt x="529" y="960" on="1"/>
        <pt x="529" y="927" on="1"/>
        <pt x="512" y="927" on="0"/>
        <pt x="479" y="927" on="0"/>
        <pt x="446" y="927" on="0"/>
        <pt x="413" y="927" on="0"/>
        <pt x="396" y="927" on="1"/>
        <pt x="396" y="894" on="1"/>
        <pt x="388" y="894" on="0"/>
        <pt x="372" y="894" on="0"/>
        <pt x="355" y="894" on="0"/>
        <pt x="339" y="894" on="0"/>
        <pt x="330" y="894" on="1"/>
        <pt x="330" y="861" on="1"/>
        <pt x="322" y="861" on="0"/>
        <pt x="306" y="861" on="0"/>
        <pt x="289" y="861" on="0"/>
        <pt x="273" y="861" on="0"/>
        <pt x="264" y="861" on="1"/>
        <pt x="264" y="828" on="1"/>
        <pt x="256" y="828" on="0"/>
        <pt x="239" y="828" on="0"/>
        <pt x="223" y="828" on="0"/>
        <pt x="206" y="828" on="0"/>
        <pt x="198" y="828" on="1"/>
        <pt x="198" y="820" on="0"/>
        <pt x="198" y="803" on="0"/>
        <pt x="198" y="787" on="0"/>
        <pt x="198" y="770" on="0"/>
        <pt x="198" y="762" on="1"/>
        <pt x="190" y="762" on="0"/>
        <pt x="173" y="762" on="0"/>
        <pt x="157" y="762" on="0"/>
        <pt x="140" y="762" on="0"/>
        <pt x="132" y="762" on="1"/>
        <pt x="132" y="754" on="0"/>
        <pt x="132" y="737" on="0"/>
        <pt x="132" y="721" on="0"/>
        <pt x="132" y="704" on="0"/>
        <pt x="132" y="696" on="1"/>
        <pt x="124" y="696" on="0"/>
        <pt x="107" y="696" on="0"/>
        <pt x="91" y="696" on="0"/>
        <pt x="74" y="696" on="0"/>
        <pt x="66" y="696" on="1"/>
        <pt x="66" y="679" on="0"/>
        <pt x="66" y="646" on="0"/>
        <pt x="66" y="613" on="0"/>
        <pt x="66" y="580" on="0"/>
        <pt x="66" y="564" on="1"/>
        <pt x="58" y="564" on="0"/>
        <pt x="41" y="564" on="0"/>
        <pt x="25" y="564" on="0"/>
        <pt x="8" y="564" on="0"/>
        <pt x="0" y="564" on="1"/>
        <pt x="0" y="485" on="0"/>
        <pt x="0" y="328" on="0"/>
        <pt x="0" y="171" on="0"/>
        <pt x="0" y="14" on="0"/>
        <pt x="0" y="-64" on="1"/>
        <pt x="157" y="-64" on="0"/>
        <pt x="471" y="-64" on="0"/>
        <pt x="785" y="-64" on="0"/>
        <pt x="1098" y="-64" on="0"/>
        <pt x="1255" y="-64" on="1"/>
        <pt x="1255" y="-43" on="0"/>
        <pt x="1255" y="-2" on="0"/>
        <pt x="1255" y="39" on="0"/>
        <pt x="1255" y="81" on="0"/>
        <pt x="1255" y="101" on="1"/>
        <pt x="1222" y="101" on="1"/>
      </contour>
    </TTGlyph>
    <TTGlyph name="eight" xMin="0" yMin="-64" xMax="1255" yMax="960">
      <contour>
        <pt x="1255" y="332" on="1"/>
        <pt x="1255" y="365" on="0"/>
        <pt x="1255" y="431" on="0"/>
        <pt x="1255" y="498" on="0"/>
        <pt x="1255" y="564" on="0"/>
        <pt x="1255" y="597" on="1"/>
        <pt x="1189" y="597" on="1"/>
        <pt x="1189" y="609" on="0"/>
        <pt x="1189" y="634" on="0"/>
        <pt x="1189" y="659" on="0"/>
        <pt x="1189" y="683" on="0"/>
        <pt x="1189" y="696" on="1"/>
        <pt x="1181" y="696" on="0"/>
        <pt x="1164" y="696" on="0"/>
        <pt x="1148" y="696" on="0"/>
        <pt x="1131" y="696" on="0"/>
        <pt x="1123" y="696" on="1"/>
        <pt x="1123" y="704" on="0"/>
        <pt x="1123" y="721" on="0"/>
        <pt x="1123" y="737" on="0"/>
        <pt x="1123" y="754" on="0"/>
        <pt x="1123" y="762" on="1"/>
        <pt x="1115" y="762" on="0"/>
        <pt x="1098" y="762" on="0"/>
        <pt x="1082" y="762" on="0"/>
        <pt x="1065" y="762" on="0"/>
        <pt x="1057" y="762" on="1"/>
        <pt x="1057" y="770" on="0"/>
        <pt x="1057" y="787" on="0"/>
        <pt x="1057" y="803" on="0"/>
        <pt x="1057" y="820" on="0"/>
        <pt x="1057" y="828" on="1"/>
        <pt x="1049" y="828" on="0"/>
        <pt x="1032" y="828" on="0"/>
        <pt x="1016" y="828" on="0"/>
        <pt x="999" y="828" on="0"/>
        <pt x="991" y="828" on="1"/>
        <pt x="991" y="861" on="1"/>
        <pt x="983" y="861" on="0"/>
        <pt x="966" y="861" on="0"/>
        <pt x="950" y="861" on="0"/>
        <pt x="933" y="861" on="0"/>
        <pt x="925" y="861" on="1"/>
        <pt x="925" y="894" on="1"/>
        <pt x="917" y="894" on="0"/>
        <pt x="900" y="894" on="0"/>
        <pt x="884" y="894" on="0"/>
        <pt x="867" y="894" on="0"/>
        <pt x="859" y="894" on="1"/>
        <pt x="859" y="927" on="1"/>
        <pt x="842" y="927" on="0"/>
        <pt x="809" y="927" on="0"/>
        <pt x="776" y="927" on="0"/>
        <pt x="743" y="927" on="0"/>
        <pt x="727" y="927" on="1"/>
        <pt x="727" y="960" on="1"/>
        <pt x="702" y="960" on="0"/>
        <pt x="652" y="960" on="0"/>
        <pt x="603" y="960" on="0"/>
        <pt x="553" y="960" on="0"/>
        <pt x="529" y="960" on="1"/>
        <pt x="529" y="927" on="1"/>
        <pt x="512" y="927" on="0"/>
        <pt x="479" y="927" on="0"/>
        <pt x="446" y="927" on="0"/>
        <pt x="413" y="927" on="0"/>
        <pt x="396" y="927" on="1"/>
        <pt x="396" y="894" on="1"/>
        <pt x="388" y="894" on="0"/>
        <pt x="372" y="894" on="0"/>
        <pt x="355" y="894" on="0"/>
        <pt x="339" y="894" on="0"/>
        <pt x="330" y="894" on="1"/>
        <pt x="330" y="861" on="1"/>
        <pt x="322" y="861" on="0"/>
        <pt x="306" y="861" on="0"/>
        <pt x="289" y="861" on="0"/>
        <pt x="273" y="861" on="0"/>
        <pt x="264" y="861" on="1"/>
        <pt x="264" y="828" on="1"/>
        <pt x="256" y="828" on="0"/>
        <pt x="239" y="828" on="0"/>
        <pt x="223" y="828" on="0"/>
        <pt x="206" y="828" on="0"/>
        <pt x="198" y="828" on="1"/>
        <pt x="198" y="820" on="0"/>
        <pt x="198" y="803" on="0"/>
        <pt x="198" y="787" on="0"/>
        <pt x="198" y="770" on="0"/>
        <pt x="198" y="762" on="1"/>
        <pt x="190" y="762" on="0"/>
        <pt x="173" y="762" on="0"/>
        <pt x="157" y="762" on="0"/>
        <pt x="140" y="762" on="0"/>
        <pt x="132" y="762" on="1"/>
        <pt x="132" y="754" on="0"/>
        <pt x="132" y="737" on="0"/>
        <pt x="132" y="721" on="0"/>
        <pt x="132" y="704" on="0"/>
        <pt x="132" y="696" on="1"/>
        <pt x="124" y="696" on="0"/>
        <pt x="107" y="696" on="0"/>
        <pt x="91" y="696" on="0"/>
        <pt x="74" y="696" on="0"/>
        <pt x="66" y="696" on="1"/>
        <pt x="66" y="679" on="0"/>
        <pt x="66" y="646" on="0"/>
        <pt x="66" y="613" on="0"/>
        <pt x="66" y="580" on="0"/>
        <pt x="66" y="564" on="1"/>
        <pt x="58" y="564" on="0"/>
        <pt x="41" y="564" on="0"/>
        <pt x="25" y="564" on="0"/>
        <pt x="8" y="564" on="0"/>
        <pt x="0" y="564" on="1"/>
        <pt x="0" y="535" on="0"/>
        <pt x="0" y="477" on="0"/>
        <pt x="0" y="419" on="0"/>
        <pt x="0" y="361" on="0"/>
        <pt x="0" y="332" on="1"/>
        <pt x="17" y="332" on="0"/>
        <pt x="50" y="332" on="0"/>
        <pt x="83" y="332" on="0"/>
        <pt x="116" y="332" on="0"/>
        <pt x="132" y="332" on="1"/>
        <pt x="132" y="324" on="0"/>
        <pt x="132" y="308" on="0"/>
        <pt x="132" y="291" on="0"/>
        <pt x="132" y="275" on="0"/>
        <pt x="132" y="266" on="1"/>
        <pt x="124" y="266" on="0"/>
        <pt x="107" y="266" on="0"/>
        <pt x="91" y="266" on="0"/>
        <pt x="74" y="266" on="0"/>
        <pt x="66" y="266" on="1"/>
        <pt x="66" y="258" on="0"/>
        <pt x="66" y="242" on="0"/>
        <pt x="66" y="225" on="0"/>
        <pt x="66" y="209" on="0"/>
        <pt x="66" y="200" on="1"/>
        <pt x="58" y="200" on="0"/>
        <pt x="41" y="200" on="0"/>
        <pt x="25" y="200" on="0"/>
        <pt x="8" y="200" on="0"/>
        <pt x="0" y="200" on="1"/>
        <pt x="0" y="167" on="0"/>
        <pt x="0" y="101" on="0"/>
        <pt x="0" y="35" on="0"/>
        <pt x="0" y="-31" on="0"/>
        <pt x="0" y="-64" on="1"/>
        <pt x="157" y="-64" on="0"/>
        <pt x="471" y="-64" on="0"/>
        <pt x="785" y="-64" on="0"/>
        <pt x="1098" y="-64" on="0"/>
        <pt x="1255" y="-64" on="1"/>
        <pt x="1255" y="-27" on="0"/>
        <pt x="1255" y="47" on="0"/>
        <pt x="1255" y="122" on="0"/>
        <pt x="1255" y="196" on="0"/>
        <pt x="1255" y="233" on="1"/>
        <pt x="1247" y="233" on="0"/>
        <pt x="1230" y="233" on="0"/>
        <pt x="1214" y="233" on="0"/>
        <pt x="1197" y="233" on="0"/>
        <pt x="1189" y="233" on="1"/>
        <pt x="1189" y="242" on="0"/>
        <pt x="1189" y="258" on="0"/>
        <pt x="1189" y="275" on="0"/>
        <pt x="1189" y="291" on="0"/>
        <pt x="1189" y="299" on="1"/>
        <pt x="1181" y="299" on="0"/>
        <pt x="1164" y="299" on="0"/>
        <pt x="1148" y="299" on="0"/>
        <pt x="1131" y="299" on="0"/>
        <pt x="1123" y="299" on="1"/>
        <pt x="1123" y="332" on="1"/>
        <pt x="1140" y="332" on="0"/>
        <pt x="1173" y="332" on="0"/>
        <pt x="1206" y="332" on="0"/>
        <pt x="1239" y="332" on="0"/>
        <pt x="1255" y="332" on="1"/>
      </contour>
      <contour>
        <pt x="793" y="167" on="1"/>
        <pt x="793" y="101" on="1"/>
        <pt x="462" y="101" on="1"/>
        <pt x="462" y="233" on="1"/>
        <pt x="529" y="233" on="1"/>
        <pt x="529" y="299" on="1"/>
        <pt x="595" y="299" on="1"/>
        <pt x="595" y="332" on="1"/>
        <pt x="661" y="332" on="1"/>
        <pt x="661" y="299" on="1"/>
        <pt x="727" y="299" on="1"/>
        <pt x="727" y="233" on="1"/>
        <pt x="793" y="233" on="1"/>
        <pt x="793" y="167" on="1"/>
      </contour>
      <contour>
        <pt x="793" y="431" on="1"/>
        <pt x="462" y="431" on="1"/>
        <pt x="462" y="762" on="1"/>
        <pt x="529" y="762" on="1"/>
        <pt x="529" y="828" on="1"/>
        <pt x="595" y="828" on="1"/>
        <pt x="595" y="861" on="1"/>
        <pt x="661" y="861" on="1"/>
        <pt x="661" y="828" on="1"/>
        <pt x="727" y="828" on="1"/>
        <pt x="727" y="762" on="1"/>
        <pt x="793" y="762" on="1"/>
        <pt x="793" y="431" on="1"/>
      </contour>
    </TTGlyph>
    <TTGlyph name="exclam" xMin="0" yMin="-64" xMax="462" yMax="960">
      <contour>
        <pt x="429" y="960" on="1"/>
        <pt x="375" y="960" on="0"/>
        <pt x="268" y="960" on="0"/>
        <pt x="160" y="960" on="0"/>
        <pt x="54" y="960" on="0"/>
        <pt x="-1" y="960" on="1"/>
        <pt x="0" y="861" on="0"/>
        <pt x="-1" y="663" on="0"/>
        <pt x="0" y="465" on="0"/>
        <pt x="-1" y="266" on="0"/>
        <pt x="0" y="167" on="1"/>
        <pt x="57" y="167" on="0"/>
        <pt x="173" y="167" on="0"/>
        <pt x="288" y="167" on="0"/>
        <pt x="405" y="167" on="0"/>
        <pt x="461" y="167" on="1"/>
        <pt x="462" y="266" on="0"/>
        <pt x="461" y="465" on="0"/>
        <pt x="462" y="663" on="0"/>
        <pt x="461" y="861" on="0"/>
        <pt x="462" y="960" on="1"/>
        <pt x="428" y="960" on="1"/>
      </contour>
      <contour>
        <pt x="396" y="134" on="1"/>
        <pt x="346" y="134" on="0"/>
        <pt x="248" y="134" on="0"/>
        <pt x="148" y="134" on="0"/>
        <pt x="50" y="134" on="0"/>
        <pt x="-1" y="134" on="1"/>
        <pt x="0" y="109" on="0"/>
        <pt x="-1" y="60" on="0"/>
        <pt x="0" y="10" on="0"/>
        <pt x="-1" y="-39" on="0"/>
        <pt x="0" y="-64" on="1"/>
        <pt x="57" y="-64" on="0"/>
        <pt x="173" y="-64" on="0"/>
        <pt x="288" y="-64" on="0"/>
        <pt x="405" y="-64" on="0"/>
        <pt x="461" y="-64" on="1"/>
        <pt x="462" y="-39" on="0"/>
        <pt x="461" y="10" on="0"/>
        <pt x="462" y="60" on="0"/>
        <pt x="461" y="109" on="0"/>
        <pt x="462" y="134" on="1"/>
        <pt x="453" y="134" on="0"/>
        <pt x="438" y="134" on="0"/>
        <pt x="420" y="134" on="0"/>
        <pt x="405" y="134" on="0"/>
        <pt x="395" y="134" on="1"/>
        <pt x="396" y="134" on="1"/>
      </contour>
    </TTGlyph>
    <TTGlyph name="f" xMin="0" yMin="-64" xMax="925" yMax="960">
      <contour>
        <pt x="892" y="960" on="1"/>
        <pt x="847" y="960" on="0"/>
        <pt x="756" y="960" on="0"/>
        <pt x="666" y="960" on="0"/>
        <pt x="574" y="960" on="0"/>
        <pt x="530" y="960" on="1"/>
        <pt x="529" y="927" on="1"/>
        <pt x="513" y="927" on="0"/>
        <pt x="479" y="927" on="0"/>
        <pt x="447" y="927" on="0"/>
        <pt x="413" y="927" on="0"/>
        <pt x="397" y="927" on="1"/>
        <pt x="396" y="894" on="1"/>
        <pt x="389" y="894" on="0"/>
        <pt x="372" y="894" on="0"/>
        <pt x="356" y="894" on="0"/>
        <pt x="339" y="894" on="0"/>
        <pt x="331" y="894" on="1"/>
        <pt x="330" y="861" on="1"/>
        <pt x="323" y="861" on="0"/>
        <pt x="306" y="861" on="0"/>
        <pt x="290" y="861" on="0"/>
        <pt x="273" y="861" on="0"/>
        <pt x="265" y="861" on="1"/>
        <pt x="264" y="828" on="1"/>
        <pt x="257" y="828" on="0"/>
        <pt x="239" y="828" on="0"/>
        <pt x="224" y="828" on="0"/>
        <pt x="206" y="828" on="0"/>
        <pt x="199" y="828" on="1"/>
        <pt x="198" y="820" on="0"/>
        <pt x="199" y="803" on="0"/>
        <pt x="198" y="787" on="0"/>
        <pt x="199" y="770" on="0"/>
        <pt x="198" y="762" on="1"/>
        <pt x="191" y="762" on="0"/>
        <pt x="173" y="762" on="0"/>
        <pt x="158" y="762" on="0"/>
        <pt x="140" y="762" on="0"/>
        <pt x="133" y="762" on="1"/>
        <pt x="132" y="754" on="0"/>
        <pt x="133" y="737" on="0"/>
        <pt x="132" y="721" on="0"/>
        <pt x="133" y="704" on="0"/>
        <pt x="132" y="696" on="1"/>
        <pt x="125" y="696" on="0"/>
        <pt x="107" y="696" on="0"/>
        <pt x="92" y="696" on="0"/>
        <pt x="74" y="696" on="0"/>
        <pt x="67" y="696" on="1"/>
        <pt x="66" y="679" on="0"/>
        <pt x="67" y="646" on="0"/>
        <pt x="66" y="613" on="0"/>
        <pt x="67" y="580" on="0"/>
        <pt x="66" y="564" on="1"/>
        <pt x="59" y="564" on="0"/>
        <pt x="41" y="564" on="0"/>
        <pt x="26" y="564" on="0"/>
        <pt x="8" y="564" on="0"/>
        <pt x="1" y="564" on="1"/>
        <pt x="0" y="485" on="0"/>
        <pt x="1" y="328" on="0"/>
        <pt x="0" y="171" on="0"/>
        <pt x="1" y="14" on="0"/>
        <pt x="0" y="-64" on="1"/>
        <pt x="59" y="-64" on="0"/>
        <pt x="173" y="-64" on="0"/>
        <pt x="290" y="-64" on="0"/>
        <pt x="405" y="-64" on="0"/>
        <pt x="463" y="-64" on="1"/>
        <pt x="462" y="-47" on="0"/>
        <pt x="463" y="-14" on="0"/>
        <pt x="462" y="19" on="0"/>
        <pt x="463" y="52" on="0"/>
        <pt x="462" y="68" on="1"/>
        <pt x="496" y="68" on="0"/>
        <pt x="562" y="68" on="0"/>
        <pt x="629" y="68" on="0"/>
        <pt x="694" y="68" on="0"/>
        <pt x="728" y="68" on="1"/>
        <pt x="727" y="89" on="0"/>
        <pt x="728" y="130" on="0"/>
        <pt x="727" y="171" on="0"/>
        <pt x="728" y="213" on="0"/>
        <pt x="727" y="233" on="1"/>
        <pt x="695" y="233" on="0"/>
        <pt x="628" y="233" on="0"/>
        <pt x="563" y="233" on="0"/>
        <pt x="495" y="233" on="0"/>
        <pt x="463" y="233" on="1"/>
        <pt x="462" y="299" on="0"/>
        <pt x="463" y="431" on="0"/>
        <pt x="462" y="564" on="0"/>
        <pt x="463" y="696" on="0"/>
        <pt x="462" y="762" on="1"/>
        <pt x="472" y="762" on="0"/>
        <pt x="487" y="762" on="0"/>
        <pt x="505" y="762" on="0"/>
        <pt x="520" y="762" on="0"/>
        <pt x="530" y="762" on="1"/>
        <pt x="529" y="770" on="0"/>
        <pt x="530" y="787" on="0"/>
        <pt x="529" y="803" on="0"/>
        <pt x="530" y="820" on="0"/>
        <pt x="529" y="828" on="1"/>
        <pt x="538" y="828" on="0"/>
        <pt x="553" y="828" on="0"/>
        <pt x="571" y="828" on="0"/>
        <pt x="586" y="828" on="0"/>
        <pt x="596" y="828" on="1"/>
        <pt x="595" y="861" on="1"/>
        <pt x="637" y="861" on="0"/>
        <pt x="718" y="861" on="0"/>
        <pt x="802" y="861" on="0"/>
        <pt x="884" y="861" on="0"/>
        <pt x="926" y="861" on="1"/>
        <pt x="925" y="873" on="0"/>
        <pt x="926" y="898" on="0"/>
        <pt x="925" y="923" on="0"/>
        <pt x="926" y="948" on="0"/>
        <pt x="925" y="960" on="1"/>
        <pt x="893" y="960" on="1"/>
      </contour>
    </TTGlyph>
    <TTGlyph name="five" xMin="0" yMin="-64" xMax="1255" yMax="960">
      <contour>
        <pt x="1222" y="233" on="1"/>
        <pt x="1189" y="233" on="1"/>
        <pt x="1189" y="242" on="0"/>
        <pt x="1189" y="258" on="0"/>
        <pt x="1189" y="275" on="0"/>
        <pt x="1189" y="291" on="0"/>
        <pt x="1189" y="299" on="1"/>
        <pt x="1181" y="299" on="0"/>
        <pt x="1164" y="299" on="0"/>
        <pt x="1148" y="299" on="0"/>
        <pt x="1131" y="299" on="0"/>
        <pt x="1123" y="299" on="1"/>
        <pt x="1123" y="332" on="1"/>
        <pt x="1115" y="332" on="0"/>
        <pt x="1098" y="332" on="0"/>
        <pt x="1082" y="332" on="0"/>
        <pt x="1065" y="332" on="0"/>
        <pt x="1057" y="332" on="1"/>
        <pt x="1057" y="365" on="1"/>
        <pt x="1049" y="365" on="0"/>
        <pt x="1032" y="365" on="0"/>
        <pt x="1016" y="365" on="0"/>
        <pt x="999" y="365" on="0"/>
        <pt x="991" y="365" on="1"/>
        <pt x="991" y="398" on="1"/>
        <pt x="974" y="398" on="0"/>
        <pt x="941" y="398" on="0"/>
        <pt x="908" y="398" on="0"/>
        <pt x="875" y="398" on="0"/>
        <pt x="859" y="398" on="1"/>
        <pt x="859" y="431" on="1"/>
        <pt x="809" y="431" on="0"/>
        <pt x="710" y="431" on="0"/>
        <pt x="611" y="431" on="0"/>
        <pt x="512" y="431" on="0"/>
        <pt x="462" y="431" on="1"/>
        <pt x="462" y="485" on="0"/>
        <pt x="462" y="593" on="0"/>
        <pt x="462" y="700" on="0"/>
        <pt x="462" y="807" on="0"/>
        <pt x="462" y="861" on="1"/>
        <pt x="520" y="861" on="0"/>
        <pt x="636" y="861" on="0"/>
        <pt x="751" y="861" on="0"/>
        <pt x="867" y="861" on="0"/>
        <pt x="925" y="861" on="1"/>
        <pt x="925" y="873" on="0"/>
        <pt x="925" y="898" on="0"/>
        <pt x="925" y="923" on="0"/>
        <pt x="925" y="948" on="0"/>
        <pt x="925" y="960" on="1"/>
        <pt x="809" y="960" on="0"/>
        <pt x="578" y="960" on="0"/>
        <pt x="347" y="960" on="0"/>
        <pt x="116" y="960" on="0"/>
        <pt x="0" y="960" on="1"/>
        <pt x="0" y="882" on="0"/>
        <pt x="0" y="725" on="0"/>
        <pt x="0" y="568" on="0"/>
        <pt x="0" y="411" on="0"/>
        <pt x="0" y="332" on="1"/>
        <pt x="83" y="332" on="0"/>
        <pt x="248" y="332" on="0"/>
        <pt x="413" y="332" on="0"/>
        <pt x="578" y="332" on="0"/>
        <pt x="661" y="332" on="1"/>
        <pt x="661" y="299" on="1"/>
        <pt x="669" y="299" on="0"/>
        <pt x="685" y="299" on="0"/>
        <pt x="702" y="299" on="0"/>
        <pt x="718" y="299" on="0"/>
        <pt x="727" y="299" on="1"/>
        <pt x="727" y="291" on="0"/>
        <pt x="727" y="275" on="0"/>
        <pt x="727" y="258" on="0"/>
        <pt x="727" y="242" on="0"/>
        <pt x="727" y="233" on="1"/>
        <pt x="735" y="233" on="0"/>
        <pt x="751" y="233" on="0"/>
        <pt x="768" y="233" on="0"/>
        <pt x="785" y="233" on="0"/>
        <pt x="793" y="233" on="1"/>
        <pt x="793" y="217" on="0"/>
        <pt x="793" y="184" on="0"/>
        <pt x="793" y="151" on="0"/>
        <pt x="793" y="118" on="0"/>
        <pt x="793" y="101" on="1"/>
        <pt x="694" y="101" on="0"/>
        <pt x="495" y="101" on="0"/>
        <pt x="297" y="101" on="0"/>
        <pt x="99" y="101" on="0"/>
        <pt x="0" y="101" on="1"/>
        <pt x="0" y="81" on="0"/>
        <pt x="0" y="39" on="0"/>
        <pt x="0" y="-2" on="0"/>
        <pt x="0" y="-43" on="0"/>
        <pt x="0" y="-64" on="1"/>
        <pt x="157" y="-64" on="0"/>
        <pt x="471" y="-64" on="0"/>
        <pt x="785" y="-64" on="0"/>
        <pt x="1098" y="-64" on="0"/>
        <pt x="1255" y="-64" on="1"/>
        <pt x="1255" y="-27" on="0"/>
        <pt x="1255" y="47" on="0"/>
        <pt x="1255" y="122" on="0"/>
        <pt x="1255" y="196" on="0"/>
        <pt x="1255" y="233" on="1"/>
        <pt x="1222" y="233" on="1"/>
      </contour>
    </TTGlyph>
    <TTGlyph name="four" xMin="0" yMin="-64" xMax="1255" yMax="960">
      <contour>
        <pt x="1222" y="960" on="1"/>
        <pt x="1168" y="960" on="0"/>
        <pt x="1061" y="960" on="0"/>
        <pt x="953" y="960" on="0"/>
        <pt x="846" y="960" on="0"/>
        <pt x="792" y="960" on="1"/>
        <pt x="793" y="869" on="0"/>
        <pt x="792" y="687" on="0"/>
        <pt x="793" y="506" on="0"/>
        <pt x="792" y="324" on="0"/>
        <pt x="793" y="233" on="1"/>
        <pt x="750" y="233" on="0"/>
        <pt x="669" y="233" on="0"/>
        <pt x="585" y="233" on="0"/>
        <pt x="504" y="233" on="0"/>
        <pt x="461" y="233" on="1"/>
        <pt x="462" y="324" on="0"/>
        <pt x="461" y="506" on="0"/>
        <pt x="462" y="687" on="0"/>
        <pt x="461" y="869" on="0"/>
        <pt x="462" y="960" on="1"/>
        <pt x="404" y="960" on="0"/>
        <pt x="289" y="960" on="0"/>
        <pt x="172" y="960" on="0"/>
        <pt x="58" y="960" on="0"/>
        <pt x="-1" y="960" on="1"/>
        <pt x="0" y="849" on="0"/>
        <pt x="-1" y="626" on="0"/>
        <pt x="0" y="403" on="0"/>
        <pt x="-1" y="180" on="0"/>
        <pt x="0" y="68" on="1"/>
        <pt x="98" y="68" on="0"/>
        <pt x="297" y="68" on="0"/>
        <pt x="494" y="68" on="0"/>
        <pt x="694" y="68" on="0"/>
        <pt x="792" y="68" on="1"/>
        <pt x="793" y="52" on="0"/>
        <pt x="792" y="19" on="0"/>
        <pt x="793" y="-14" on="0"/>
        <pt x="792" y="-47" on="0"/>
        <pt x="793" y="-64" on="1"/>
        <pt x="850" y="-64" on="0"/>
        <pt x="966" y="-64" on="0"/>
        <pt x="1081" y="-64" on="0"/>
        <pt x="1197" y="-64" on="0"/>
        <pt x="1254" y="-64" on="1"/>
        <pt x="1255" y="64" on="0"/>
        <pt x="1254" y="320" on="0"/>
        <pt x="1255" y="576" on="0"/>
        <pt x="1254" y="832" on="0"/>
        <pt x="1255" y="960" on="1"/>
        <pt x="1221" y="960" on="1"/>
      </contour>
    </TTGlyph>
    <TTGlyph name="g" xMin="0" yMin="-64" xMax="1255" yMax="960">
      <contour>
        <pt x="1222" y="332" on="1"/>
        <pt x="1168" y="332" on="0"/>
        <pt x="1061" y="332" on="0"/>
        <pt x="953" y="332" on="0"/>
        <pt x="846" y="332" on="0"/>
        <pt x="792" y="332" on="1"/>
        <pt x="793" y="303" on="0"/>
        <pt x="792" y="246" on="0"/>
        <pt x="793" y="188" on="0"/>
        <pt x="792" y="130" on="0"/>
        <pt x="793" y="101" on="1"/>
        <pt x="750" y="101" on="0"/>
        <pt x="669" y="101" on="0"/>
        <pt x="585" y="101" on="0"/>
        <pt x="504" y="101" on="0"/>
        <pt x="461" y="101" on="1"/>
        <pt x="462" y="184" on="0"/>
        <pt x="461" y="349" on="0"/>
        <pt x="462" y="514" on="0"/>
        <pt x="461" y="679" on="0"/>
        <pt x="462" y="762" on="1"/>
        <pt x="470" y="762" on="0"/>
        <pt x="487" y="762" on="0"/>
        <pt x="503" y="762" on="0"/>
        <pt x="520" y="762" on="0"/>
        <pt x="528" y="762" on="1"/>
        <pt x="529" y="770" on="0"/>
        <pt x="528" y="787" on="0"/>
        <pt x="529" y="803" on="0"/>
        <pt x="528" y="820" on="0"/>
        <pt x="529" y="828" on="1"/>
        <pt x="536" y="828" on="0"/>
        <pt x="553" y="828" on="0"/>
        <pt x="569" y="828" on="0"/>
        <pt x="586" y="828" on="0"/>
        <pt x="594" y="828" on="1"/>
        <pt x="595" y="861" on="1"/>
        <pt x="635" y="861" on="0"/>
        <pt x="718" y="861" on="0"/>
        <pt x="800" y="861" on="0"/>
        <pt x="884" y="861" on="0"/>
        <pt x="924" y="861" on="1"/>
        <pt x="925" y="873" on="0"/>
        <pt x="924" y="898" on="0"/>
        <pt x="925" y="923" on="0"/>
        <pt x="924" y="948" on="0"/>
        <pt x="925" y="960" on="1"/>
        <pt x="874" y="960" on="0"/>
        <pt x="776" y="960" on="0"/>
        <pt x="676" y="960" on="0"/>
        <pt x="578" y="960" on="0"/>
        <pt x="528" y="960" on="1"/>
        <pt x="529" y="927" on="1"/>
        <pt x="511" y="927" on="0"/>
        <pt x="479" y="927" on="0"/>
        <pt x="445" y="927" on="0"/>
        <pt x="413" y="927" on="0"/>
        <pt x="395" y="927" on="1"/>
        <pt x="396" y="894" on="1"/>
        <pt x="387" y="894" on="0"/>
        <pt x="372" y="894" on="0"/>
        <pt x="354" y="894" on="0"/>
        <pt x="339" y="894" on="0"/>
        <pt x="329" y="894" on="1"/>
        <pt x="330" y="861" on="1"/>
        <pt x="321" y="861" on="0"/>
        <pt x="306" y="861" on="0"/>
        <pt x="288" y="861" on="0"/>
        <pt x="273" y="861" on="0"/>
        <pt x="263" y="861" on="1"/>
        <pt x="264" y="828" on="1"/>
        <pt x="255" y="828" on="0"/>
        <pt x="239" y="828" on="0"/>
        <pt x="222" y="828" on="0"/>
        <pt x="206" y="828" on="0"/>
        <pt x="197" y="828" on="1"/>
        <pt x="198" y="820" on="0"/>
        <pt x="197" y="803" on="0"/>
        <pt x="198" y="787" on="0"/>
        <pt x="197" y="770" on="0"/>
        <pt x="198" y="762" on="1"/>
        <pt x="189" y="762" on="0"/>
        <pt x="173" y="762" on="0"/>
        <pt x="156" y="762" on="0"/>
        <pt x="140" y="762" on="0"/>
        <pt x="131" y="762" on="1"/>
        <pt x="132" y="754" on="0"/>
        <pt x="131" y="737" on="0"/>
        <pt x="132" y="721" on="0"/>
        <pt x="131" y="704" on="0"/>
        <pt x="132" y="696" on="1"/>
        <pt x="123" y="696" on="0"/>
        <pt x="107" y="696" on="0"/>
        <pt x="90" y="696" on="0"/>
        <pt x="74" y="696" on="0"/>
        <pt x="65" y="696" on="1"/>
        <pt x="66" y="679" on="0"/>
        <pt x="65" y="646" on="0"/>
        <pt x="66" y="613" on="0"/>
        <pt x="65" y="580" on="0"/>
        <pt x="66" y="564" on="1"/>
        <pt x="57" y="564" on="0"/>
        <pt x="41" y="564" on="0"/>
        <pt x="24" y="564" on="0"/>
        <pt x="8" y="564" on="0"/>
        <pt x="-1" y="564" on="1"/>
        <pt x="0" y="485" on="0"/>
        <pt x="-1" y="328" on="0"/>
        <pt x="0" y="171" on="0"/>
        <pt x="-1" y="14" on="0"/>
        <pt x="0" y="-64" on="1"/>
        <pt x="156" y="-64" on="0"/>
        <pt x="471" y="-64" on="0"/>
        <pt x="784" y="-64" on="0"/>
        <pt x="1098" y="-64" on="0"/>
        <pt x="1254" y="-64" on="1"/>
        <pt x="1255" y="-14" on="0"/>
        <pt x="1254" y="85" on="0"/>
        <pt x="1255" y="184" on="0"/>
        <pt x="1254" y="283" on="0"/>
        <pt x="1255" y="332" on="1"/>
        <pt x="1221" y="332" on="1"/>
      </contour>
    </TTGlyph>
    <TTGlyph name="h" xMin="0" yMin="-64" xMax="1255" yMax="960">
      <contour>
        <pt x="1222" y="960" on="1"/>
        <pt x="1168" y="960" on="0"/>
        <pt x="1061" y="960" on="0"/>
        <pt x="953" y="960" on="0"/>
        <pt x="846" y="960" on="0"/>
        <pt x="792" y="960" on="1"/>
        <pt x="793" y="869" on="0"/>
        <pt x="792" y="687" on="0"/>
        <pt x="793" y="506" on="0"/>
        <pt x="792" y="324" on="0"/>
        <pt x="793" y="233" on="1"/>
        <pt x="750" y="233" on="0"/>
        <pt x="669" y="233" on="0"/>
        <pt x="585" y="233" on="0"/>
        <pt x="504" y="233" on="0"/>
        <pt x="461" y="233" on="1"/>
        <pt x="462" y="324" on="0"/>
        <pt x="461" y="506" on="0"/>
        <pt x="462" y="687" on="0"/>
        <pt x="461" y="869" on="0"/>
        <pt x="462" y="960" on="1"/>
        <pt x="404" y="960" on="0"/>
        <pt x="289" y="960" on="0"/>
        <pt x="172" y="960" on="0"/>
        <pt x="58" y="960" on="0"/>
        <pt x="-1" y="960" on="1"/>
        <pt x="0" y="832" on="0"/>
        <pt x="-1" y="576" on="0"/>
        <pt x="0" y="320" on="0"/>
        <pt x="-1" y="64" on="0"/>
        <pt x="0" y="-64" on="1"/>
        <pt x="57" y="-64" on="0"/>
        <pt x="173" y="-64" on="0"/>
        <pt x="288" y="-64" on="0"/>
        <pt x="405" y="-64" on="0"/>
        <pt x="461" y="-64" on="1"/>
        <pt x="462" y="-47" on="0"/>
        <pt x="461" y="-14" on="0"/>
        <pt x="462" y="19" on="0"/>
        <pt x="461" y="52" on="0"/>
        <pt x="462" y="68" on="1"/>
        <pt x="503" y="68" on="0"/>
        <pt x="586" y="68" on="0"/>
        <pt x="668" y="68" on="0"/>
        <pt x="751" y="68" on="0"/>
        <pt x="792" y="68" on="1"/>
        <pt x="793" y="52" on="0"/>
        <pt x="792" y="19" on="0"/>
        <pt x="793" y="-14" on="0"/>
        <pt x="792" y="-47" on="0"/>
        <pt x="793" y="-64" on="1"/>
        <pt x="850" y="-64" on="0"/>
        <pt x="966" y="-64" on="0"/>
        <pt x="1081" y="-64" on="0"/>
        <pt x="1197" y="-64" on="0"/>
        <pt x="1254" y="-64" on="1"/>
        <pt x="1255" y="64" on="0"/>
        <pt x="1254" y="320" on="0"/>
        <pt x="1255" y="576" on="0"/>
        <pt x="1254" y="832" on="0"/>
        <pt x="1255" y="960" on="1"/>
        <pt x="1221" y="960" on="1"/>
      </contour>
    </TTGlyph>
    <TTGlyph name="i" xMin="0" yMin="-64" xMax="462" yMax="960">
      <contour>
        <pt x="429" y="960" on="1"/>
        <pt x="375" y="960" on="0"/>
        <pt x="268" y="960" on="0"/>
        <pt x="160" y="960" on="0"/>
        <pt x="54" y="960" on="0"/>
        <pt x="-1" y="960" on="1"/>
        <pt x="0" y="832" on="0"/>
        <pt x="-1" y="576" on="0"/>
        <pt x="0" y="320" on="0"/>
        <pt x="-1" y="64" on="0"/>
        <pt x="0" y="-64" on="1"/>
        <pt x="57" y="-64" on="0"/>
        <pt x="173" y="-64" on="0"/>
        <pt x="288" y="-64" on="0"/>
        <pt x="405" y="-64" on="0"/>
        <pt x="461" y="-64" on="1"/>
        <pt x="462" y="64" on="0"/>
        <pt x="461" y="320" on="0"/>
        <pt x="462" y="576" on="0"/>
        <pt x="461" y="832" on="0"/>
        <pt x="462" y="960" on="1"/>
        <pt x="428" y="960" on="1"/>
      </contour>
    </TTGlyph>
    <TTGlyph name="j" xMin="0" yMin="-64" xMax="1255" yMax="960">
      <contour>
        <pt x="1222" y="960" on="1"/>
        <pt x="1168" y="960" on="0"/>
        <pt x="1061" y="960" on="0"/>
        <pt x="953" y="960" on="0"/>
        <pt x="846" y="960" on="0"/>
        <pt x="792" y="960" on="1"/>
        <pt x="793" y="853" on="0"/>
        <pt x="792" y="638" on="0"/>
        <pt x="793" y="423" on="0"/>
        <pt x="792" y="209" on="0"/>
        <pt x="793" y="101" on="1"/>
        <pt x="693" y="101" on="0"/>
        <pt x="495" y="101" on="0"/>
        <pt x="296" y="101" on="0"/>
        <pt x="99" y="101" on="0"/>
        <pt x="-1" y="101" on="1"/>
        <pt x="0" y="81" on="0"/>
        <pt x="-1" y="39" on="0"/>
        <pt x="0" y="-2" on="0"/>
        <pt x="-1" y="-43" on="0"/>
        <pt x="0" y="-64" on="1"/>
        <pt x="156" y="-64" on="0"/>
        <pt x="471" y="-64" on="0"/>
        <pt x="784" y="-64" on="0"/>
        <pt x="1098" y="-64" on="0"/>
        <pt x="1254" y="-64" on="1"/>
        <pt x="1255" y="64" on="0"/>
        <pt x="1254" y="320" on="0"/>
        <pt x="1255" y="576" on="0"/>
        <pt x="1254" y="832" on="0"/>
        <pt x="1255" y="960" on="1"/>
        <pt x="1221" y="960" on="1"/>
      </contour>
    </TTGlyph>
    <TTGlyph name="k" xMin="0" yMin="-64" xMax="1255" yMax="960">
      <contour>
        <pt x="1222" y="960" on="1"/>
        <pt x="1168" y="960" on="0"/>
        <pt x="1061" y="960" on="0"/>
        <pt x="953" y="960" on="0"/>
        <pt x="846" y="960" on="0"/>
        <pt x="792" y="960" on="1"/>
        <pt x="793" y="952" on="0"/>
        <pt x="792" y="935" on="0"/>
        <pt x="793" y="919" on="0"/>
        <pt x="792" y="902" on="0"/>
        <pt x="793" y="894" on="1"/>
        <pt x="784" y="894" on="0"/>
        <pt x="768" y="894" on="0"/>
        <pt x="750" y="894" on="0"/>
        <pt x="735" y="894" on="0"/>
        <pt x="726" y="894" on="1"/>
        <pt x="727" y="882" on="0"/>
        <pt x="726" y="857" on="0"/>
        <pt x="727" y="832" on="0"/>
        <pt x="726" y="807" on="0"/>
        <pt x="727" y="795" on="1"/>
        <pt x="717" y="795" on="0"/>
        <pt x="702" y="795" on="0"/>
        <pt x="684" y="795" on="0"/>
        <pt x="669" y="795" on="0"/>
        <pt x="660" y="795" on="1"/>
        <pt x="661" y="782" on="0"/>
        <pt x="660" y="758" on="0"/>
        <pt x="661" y="733" on="0"/>
        <pt x="660" y="708" on="0"/>
        <pt x="661" y="696" on="1"/>
        <pt x="651" y="696" on="0"/>
        <pt x="636" y="696" on="0"/>
        <pt x="618" y="696" on="0"/>
        <pt x="603" y="696" on="0"/>
        <pt x="594" y="696" on="1"/>
        <pt x="595" y="683" on="0"/>
        <pt x="594" y="659" on="0"/>
        <pt x="595" y="634" on="0"/>
        <pt x="594" y="609" on="0"/>
        <pt x="595" y="597" on="1"/>
        <pt x="585" y="597" on="0"/>
        <pt x="570" y="597" on="0"/>
        <pt x="552" y="597" on="0"/>
        <pt x="537" y="597" on="0"/>
        <pt x="528" y="597" on="1"/>
        <pt x="529" y="584" on="0"/>
        <pt x="528" y="559" on="0"/>
        <pt x="529" y="535" on="0"/>
        <pt x="528" y="510" on="0"/>
        <pt x="529" y="498" on="1"/>
        <pt x="519" y="498" on="0"/>
        <pt x="504" y="498" on="0"/>
        <pt x="486" y="498" on="0"/>
        <pt x="471" y="498" on="0"/>
        <pt x="461" y="498" on="1"/>
        <pt x="462" y="555" on="0"/>
        <pt x="461" y="671" on="0"/>
        <pt x="462" y="787" on="0"/>
        <pt x="461" y="902" on="0"/>
        <pt x="462" y="960" on="1"/>
        <pt x="404" y="960" on="0"/>
        <pt x="289" y="960" on="0"/>
        <pt x="172" y="960" on="0"/>
        <pt x="58" y="960" on="0"/>
        <pt x="-1" y="960" on="1"/>
        <pt x="0" y="832" on="0"/>
        <pt x="-1" y="576" on="0"/>
        <pt x="0" y="320" on="0"/>
        <pt x="-1" y="64" on="0"/>
        <pt x="0" y="-64" on="1"/>
        <pt x="57" y="-64" on="0"/>
        <pt x="173" y="-64" on="0"/>
        <pt x="288" y="-64" on="0"/>
        <pt x="405" y="-64" on="0"/>
        <pt x="461" y="-64" on="1"/>
        <pt x="462" y="-6" on="0"/>
        <pt x="461" y="109" on="0"/>
        <pt x="462" y="225" on="0"/>
        <pt x="461" y="341" on="0"/>
        <pt x="462" y="398" on="1"/>
        <pt x="470" y="398" on="0"/>
        <pt x="487" y="398" on="0"/>
        <pt x="503" y="398" on="0"/>
        <pt x="520" y="398" on="0"/>
        <pt x="528" y="398" on="1"/>
        <pt x="529" y="386" on="0"/>
        <pt x="528" y="361" on="0"/>
        <pt x="529" y="337" on="0"/>
        <pt x="528" y="312" on="0"/>
        <pt x="529" y="299" on="1"/>
        <pt x="536" y="299" on="0"/>
        <pt x="553" y="299" on="0"/>
        <pt x="569" y="299" on="0"/>
        <pt x="586" y="299" on="0"/>
        <pt x="594" y="299" on="1"/>
        <pt x="595" y="287" on="0"/>
        <pt x="594" y="262" on="0"/>
        <pt x="595" y="237" on="0"/>
        <pt x="594" y="213" on="0"/>
        <pt x="595" y="200" on="1"/>
        <pt x="602" y="200" on="0"/>
        <pt x="619" y="200" on="0"/>
        <pt x="635" y="200" on="0"/>
        <pt x="652" y="200" on="0"/>
        <pt x="660" y="200" on="1"/>
        <pt x="661" y="188" on="0"/>
        <pt x="660" y="163" on="0"/>
        <pt x="661" y="138" on="0"/>
        <pt x="660" y="114" on="0"/>
        <pt x="661" y="101" on="1"/>
        <pt x="668" y="101" on="0"/>
        <pt x="685" y="101" on="0"/>
        <pt x="701" y="101" on="0"/>
        <pt x="718" y="101" on="0"/>
        <pt x="726" y="101" on="1"/>
        <pt x="727" y="89" on="0"/>
        <pt x="726" y="64" on="0"/>
        <pt x="727" y="39" on="0"/>
        <pt x="726" y="14" on="0"/>
        <pt x="727" y="2" on="1"/>
        <pt x="734" y="2" on="0"/>
        <pt x="751" y="2" on="0"/>
        <pt x="767" y="2" on="0"/>
        <pt x="785" y="2" on="0"/>
        <pt x="792" y="2" on="1"/>
        <pt x="793" y="-6" on="0"/>
        <pt x="792" y="-23" on="0"/>
        <pt x="793" y="-39" on="0"/>
        <pt x="792" y="-56" on="0"/>
        <pt x="793" y="-64" on="1"/>
        <pt x="850" y="-64" on="0"/>
        <pt x="966" y="-64" on="0"/>
        <pt x="1081" y="-64" on="0"/>
        <pt x="1197" y="-64" on="0"/>
        <pt x="1254" y="-64" on="1"/>
        <pt x="1255" y="-52" on="0"/>
        <pt x="1254" y="-27" on="0"/>
        <pt x="1255" y="-2" on="0"/>
        <pt x="1254" y="23" on="0"/>
        <pt x="1255" y="35" on="1"/>
        <pt x="1246" y="35" on="0"/>
        <pt x="1230" y="35" on="0"/>
        <pt x="1213" y="35" on="0"/>
        <pt x="1197" y="35" on="0"/>
        <pt x="1188" y="35" on="1"/>
        <pt x="1189" y="68" on="1"/>
        <pt x="1180" y="68" on="0"/>
        <pt x="1164" y="68" on="0"/>
        <pt x="1147" y="68" on="0"/>
        <pt x="1131" y="68" on="0"/>
        <pt x="1122" y="68" on="1"/>
        <pt x="1123" y="76" on="0"/>
        <pt x="1122" y="93" on="0"/>
        <pt x="1123" y="109" on="0"/>
        <pt x="1122" y="126" on="0"/>
        <pt x="1123" y="134" on="1"/>
        <pt x="1114" y="134" on="0"/>
        <pt x="1098" y="134" on="0"/>
        <pt x="1081" y="134" on="0"/>
        <pt x="1065" y="134" on="0"/>
        <pt x="1056" y="134" on="1"/>
        <pt x="1057" y="167" on="1"/>
        <pt x="1048" y="167" on="0"/>
        <pt x="1032" y="167" on="0"/>
        <pt x="1015" y="167" on="0"/>
        <pt x="999" y="167" on="0"/>
        <pt x="990" y="167" on="1"/>
        <pt x="991" y="175" on="0"/>
        <pt x="990" y="192" on="0"/>
        <pt x="991" y="209" on="0"/>
        <pt x="990" y="225" on="0"/>
        <pt x="991" y="233" on="1"/>
        <pt x="982" y="233" on="0"/>
        <pt x="966" y="233" on="0"/>
        <pt x="949" y="233" on="0"/>
        <pt x="933" y="233" on="0"/>
        <pt x="924" y="233" on="1"/>
        <pt x="925" y="266" on="1"/>
        <pt x="916" y="266" on="0"/>
        <pt x="900" y="266" on="0"/>
        <pt x="883" y="266" on="0"/>
        <pt x="867" y="266" on="0"/>
        <pt x="858" y="266" on="1"/>
        <pt x="859" y="275" on="0"/>
        <pt x="858" y="291" on="0"/>
        <pt x="859" y="308" on="0"/>
        <pt x="858" y="324" on="0"/>
        <pt x="859" y="332" on="1"/>
        <pt x="850" y="332" on="0"/>
        <pt x="834" y="332" on="0"/>
        <pt x="817" y="332" on="0"/>
        <pt x="801" y="332" on="0"/>
        <pt x="792" y="332" on="1"/>
        <pt x="793" y="365" on="1"/>
        <pt x="784" y="365" on="0"/>
        <pt x="768" y="365" on="0"/>
        <pt x="750" y="365" on="0"/>
        <pt x="735" y="365" on="0"/>
        <pt x="726" y="365" on="1"/>
        <pt x="727" y="374" on="0"/>
        <pt x="726" y="390" on="0"/>
        <pt x="727" y="407" on="0"/>
        <pt x="726" y="423" on="0"/>
        <pt x="727" y="431" on="1"/>
        <pt x="717" y="431" on="0"/>
        <pt x="702" y="431" on="0"/>
        <pt x="684" y="431" on="0"/>
        <pt x="669" y="431" on="0"/>
        <pt x="660" y="431" on="1"/>
        <pt x="661" y="465" on="1"/>
        <pt x="668" y="465" on="0"/>
        <pt x="685" y="465" on="0"/>
        <pt x="701" y="465" on="0"/>
        <pt x="718" y="465" on="0"/>
        <pt x="726" y="465" on="1"/>
        <pt x="727" y="473" on="0"/>
        <pt x="726" y="489" on="0"/>
        <pt x="727" y="506" on="0"/>
        <pt x="726" y="522" on="0"/>
        <pt x="727" y="531" on="1"/>
        <pt x="734" y="531" on="0"/>
        <pt x="751" y="531" on="0"/>
        <pt x="767" y="531" on="0"/>
        <pt x="785" y="531" on="0"/>
        <pt x="792" y="531" on="1"/>
        <pt x="793" y="564" on="1"/>
        <pt x="800" y="564" on="0"/>
        <pt x="818" y="564" on="0"/>
        <pt x="833" y="564" on="0"/>
        <pt x="851" y="564" on="0"/>
        <pt x="858" y="564" on="1"/>
        <pt x="859" y="572" on="0"/>
        <pt x="858" y="588" on="0"/>
        <pt x="859" y="605" on="0"/>
        <pt x="858" y="621" on="0"/>
        <pt x="859" y="630" on="1"/>
        <pt x="866" y="630" on="0"/>
        <pt x="884" y="630" on="0"/>
        <pt x="899" y="630" on="0"/>
        <pt x="917" y="630" on="0"/>
        <pt x="924" y="630" on="1"/>
        <pt x="925" y="663" on="1"/>
        <pt x="932" y="663" on="0"/>
        <pt x="950" y="663" on="0"/>
        <pt x="965" y="663" on="0"/>
        <pt x="983" y="663" on="0"/>
        <pt x="990" y="663" on="1"/>
        <pt x="991" y="671" on="0"/>
        <pt x="990" y="687" on="0"/>
        <pt x="991" y="704" on="0"/>
        <pt x="990" y="721" on="0"/>
        <pt x="991" y="729" on="1"/>
        <pt x="998" y="729" on="0"/>
        <pt x="1016" y="729" on="0"/>
        <pt x="1031" y="729" on="0"/>
        <pt x="1049" y="729" on="0"/>
        <pt x="1056" y="729" on="1"/>
        <pt x="1057" y="762" on="1"/>
        <pt x="1064" y="762" on="0"/>
        <pt x="1082" y="762" on="0"/>
        <pt x="1097" y="762" on="0"/>
        <pt x="1115" y="762" on="0"/>
        <pt x="1122" y="762" on="1"/>
        <pt x="1123" y="770" on="0"/>
        <pt x="1122" y="787" on="0"/>
        <pt x="1123" y="803" on="0"/>
        <pt x="1122" y="820" on="0"/>
        <pt x="1123" y="828" on="1"/>
        <pt x="1130" y="828" on="0"/>
        <pt x="1148" y="828" on="0"/>
        <pt x="1163" y="828" on="0"/>
        <pt x="1181" y="828" on="0"/>
        <pt x="1188" y="828" on="1"/>
        <pt x="1189" y="861" on="1"/>
        <pt x="1196" y="861" on="0"/>
        <pt x="1214" y="861" on="0"/>
        <pt x="1229" y="861" on="0"/>
        <pt x="1247" y="861" on="0"/>
        <pt x="1254" y="861" on="1"/>
        <pt x="1255" y="873" on="0"/>
        <pt x="1254" y="898" on="0"/>
        <pt x="1255" y="923" on="0"/>
        <pt x="1254" y="948" on="0"/>
        <pt x="1255" y="960" on="1"/>
        <pt x="1221" y="960" on="1"/>
      </contour>
    </TTGlyph>
    <TTGlyph name="l" xMin="0" yMin="-64" xMax="991" yMax="960">
      <contour>
        <pt x="958" y="101" on="1"/>
        <pt x="896" y="101" on="0"/>
        <pt x="772" y="101" on="0"/>
        <pt x="648" y="101" on="0"/>
        <pt x="524" y="101" on="0"/>
        <pt x="462" y="101" on="1"/>
        <pt x="462" y="209" on="0"/>
        <pt x="462" y="423" on="0"/>
        <pt x="462" y="638" on="0"/>
        <pt x="462" y="853" on="0"/>
        <pt x="462" y="960" on="1"/>
        <pt x="405" y="960" on="0"/>
        <pt x="289" y="960" on="0"/>
        <pt x="173" y="960" on="0"/>
        <pt x="58" y="960" on="0"/>
        <pt x="0" y="960" on="1"/>
        <pt x="0" y="832" on="0"/>
        <pt x="0" y="576" on="0"/>
        <pt x="0" y="320" on="0"/>
        <pt x="0" y="64" on="0"/>
        <pt x="0" y="-64" on="1"/>
        <pt x="124" y="-64" on="0"/>
        <pt x="372" y="-64" on="0"/>
        <pt x="619" y="-64" on="0"/>
        <pt x="867" y="-64" on="0"/>
        <pt x="991" y="-64" on="1"/>
        <pt x="991" y="-43" on="0"/>
        <pt x="991" y="-2" on="0"/>
        <pt x="991" y="39" on="0"/>
        <pt x="991" y="81" on="0"/>
        <pt x="991" y="101" on="1"/>
        <pt x="958" y="101" on="1"/>
      </contour>
    </TTGlyph>
    <TTGlyph name="m" xMin="0" yMin="-64" xMax="2048" yMax="960">
      <contour>
        <pt x="2015" y="597" on="1"/>
        <pt x="1982" y="597" on="1"/>
        <pt x="1982" y="609" on="0"/>
        <pt x="1982" y="634" on="0"/>
        <pt x="1982" y="659" on="0"/>
        <pt x="1982" y="683" on="0"/>
        <pt x="1982" y="696" on="1"/>
        <pt x="1974" y="696" on="0"/>
        <pt x="1957" y="696" on="0"/>
        <pt x="1941" y="696" on="0"/>
        <pt x="1924" y="696" on="0"/>
        <pt x="1916" y="696" on="1"/>
        <pt x="1916" y="704" on="0"/>
        <pt x="1916" y="721" on="0"/>
        <pt x="1916" y="737" on="0"/>
        <pt x="1916" y="754" on="0"/>
        <pt x="1916" y="762" on="1"/>
        <pt x="1908" y="762" on="0"/>
        <pt x="1891" y="762" on="0"/>
        <pt x="1875" y="762" on="0"/>
        <pt x="1858" y="762" on="0"/>
        <pt x="1850" y="762" on="1"/>
        <pt x="1850" y="770" on="0"/>
        <pt x="1850" y="787" on="0"/>
        <pt x="1850" y="803" on="0"/>
        <pt x="1850" y="820" on="0"/>
        <pt x="1850" y="828" on="1"/>
        <pt x="1842" y="828" on="0"/>
        <pt x="1825" y="828" on="0"/>
        <pt x="1809" y="828" on="0"/>
        <pt x="1792" y="828" on="0"/>
        <pt x="1784" y="828" on="1"/>
        <pt x="1784" y="861" on="1"/>
        <pt x="1775" y="861" on="0"/>
        <pt x="1759" y="861" on="0"/>
        <pt x="1742" y="861" on="0"/>
        <pt x="1726" y="861" on="0"/>
        <pt x="1718" y="861" on="1"/>
        <pt x="1718" y="894" on="1"/>
        <pt x="1709" y="894" on="0"/>
        <pt x="1693" y="894" on="0"/>
        <pt x="1676" y="894" on="0"/>
        <pt x="1660" y="894" on="0"/>
        <pt x="1652" y="894" on="1"/>
        <pt x="1652" y="927" on="1"/>
        <pt x="1635" y="927" on="0"/>
        <pt x="1602" y="927" on="0"/>
        <pt x="1569" y="927" on="0"/>
        <pt x="1536" y="927" on="0"/>
        <pt x="1519" y="927" on="1"/>
        <pt x="1519" y="960" on="1"/>
        <pt x="1330" y="960" on="0"/>
        <pt x="950" y="960" on="0"/>
        <pt x="570" y="960" on="0"/>
        <pt x="190" y="960" on="0"/>
        <pt x="0" y="960" on="1"/>
        <pt x="0" y="832" on="0"/>
        <pt x="0" y="576" on="0"/>
        <pt x="0" y="320" on="0"/>
        <pt x="0" y="64" on="0"/>
        <pt x="0" y="-64" on="1"/>
        <pt x="58" y="-64" on="0"/>
        <pt x="173" y="-64" on="0"/>
        <pt x="289" y="-64" on="0"/>
        <pt x="405" y="-64" on="0"/>
        <pt x="462" y="-64" on="1"/>
        <pt x="462" y="52" on="0"/>
        <pt x="462" y="283" on="0"/>
        <pt x="462" y="514" on="0"/>
        <pt x="462" y="745" on="0"/>
        <pt x="462" y="861" on="1"/>
        <pt x="504" y="861" on="0"/>
        <pt x="586" y="861" on="0"/>
        <pt x="669" y="861" on="0"/>
        <pt x="751" y="861" on="0"/>
        <pt x="793" y="861" on="1"/>
        <pt x="793" y="745" on="0"/>
        <pt x="793" y="514" on="0"/>
        <pt x="793" y="283" on="0"/>
        <pt x="793" y="52" on="0"/>
        <pt x="793" y="-64" on="1"/>
        <pt x="851" y="-64" on="0"/>
        <pt x="966" y="-64" on="0"/>
        <pt x="1082" y="-64" on="0"/>
        <pt x="1197" y="-64" on="0"/>
        <pt x="1255" y="-64" on="1"/>
        <pt x="1255" y="52" on="0"/>
        <pt x="1255" y="283" on="0"/>
        <pt x="1255" y="514" on="0"/>
        <pt x="1255" y="745" on="0"/>
        <pt x="1255" y="861" on="1"/>
        <pt x="1280" y="861" on="0"/>
        <pt x="1330" y="861" on="0"/>
        <pt x="1379" y="861" on="0"/>
        <pt x="1429" y="861" on="0"/>
        <pt x="1453" y="861" on="1"/>
        <pt x="1453" y="828" on="1"/>
        <pt x="1462" y="828" on="0"/>
        <pt x="1478" y="828" on="0"/>
        <pt x="1495" y="828" on="0"/>
        <pt x="1511" y="828" on="0"/>
        <pt x="1519" y="828" on="1"/>
        <pt x="1519" y="820" on="0"/>
        <pt x="1519" y="803" on="0"/>
        <pt x="1519" y="787" on="0"/>
        <pt x="1519" y="770" on="0"/>
        <pt x="1519" y="762" on="1"/>
        <pt x="1528" y="762" on="0"/>
        <pt x="1544" y="762" on="0"/>
        <pt x="1561" y="762" on="0"/>
        <pt x="1577" y="762" on="0"/>
        <pt x="1586" y="762" on="1"/>
        <pt x="1586" y="659" on="0"/>
        <pt x="1586" y="452" on="0"/>
        <pt x="1586" y="246" on="0"/>
        <pt x="1586" y="39" on="0"/>
        <pt x="1586" y="-64" on="1"/>
        <pt x="1643" y="-64" on="0"/>
        <pt x="1759" y="-64" on="0"/>
        <pt x="1875" y="-64" on="0"/>
        <pt x="1990" y="-64" on="0"/>
        <pt x="2048" y="-64" on="1"/>
        <pt x="2048" y="19" on="0"/>
        <pt x="2048" y="184" on="0"/>
        <pt x="2048" y="349" on="0"/>
        <pt x="2048" y="514" on="0"/>
        <pt x="2048" y="597" on="1"/>
        <pt x="2015" y="597" on="1"/>
      </contour>
    </TTGlyph>
    <TTGlyph name="n" xMin="0" yMin="-64" xMax="1255" yMax="960">
      <contour>
        <pt x="1222" y="960" on="1"/>
        <pt x="1168" y="960" on="0"/>
        <pt x="1061" y="960" on="0"/>
        <pt x="953" y="960" on="0"/>
        <pt x="846" y="960" on="0"/>
        <pt x="792" y="960" on="1"/>
        <pt x="793" y="923" on="0"/>
        <pt x="792" y="849" on="0"/>
        <pt x="793" y="774" on="0"/>
        <pt x="792" y="700" on="0"/>
        <pt x="793" y="663" on="1"/>
        <pt x="784" y="663" on="0"/>
        <pt x="768" y="663" on="0"/>
        <pt x="750" y="663" on="0"/>
        <pt x="735" y="663" on="0"/>
        <pt x="726" y="663" on="1"/>
        <pt x="727" y="696" on="1"/>
        <pt x="717" y="696" on="0"/>
        <pt x="702" y="696" on="0"/>
        <pt x="684" y="696" on="0"/>
        <pt x="669" y="696" on="0"/>
        <pt x="660" y="696" on="1"/>
        <pt x="661" y="729" on="1"/>
        <pt x="651" y="729" on="0"/>
        <pt x="636" y="729" on="0"/>
        <pt x="618" y="729" on="0"/>
        <pt x="603" y="729" on="0"/>
        <pt x="594" y="729" on="1"/>
        <pt x="595" y="762" on="1"/>
        <pt x="585" y="762" on="0"/>
        <pt x="570" y="762" on="0"/>
        <pt x="552" y="762" on="0"/>
        <pt x="537" y="762" on="0"/>
        <pt x="528" y="762" on="1"/>
        <pt x="529" y="795" on="1"/>
        <pt x="519" y="795" on="0"/>
        <pt x="504" y="795" on="0"/>
        <pt x="486" y="795" on="0"/>
        <pt x="471" y="795" on="0"/>
        <pt x="461" y="795" on="1"/>
        <pt x="462" y="815" on="0"/>
        <pt x="461" y="857" on="0"/>
        <pt x="462" y="898" on="0"/>
        <pt x="461" y="939" on="0"/>
        <pt x="462" y="960" on="1"/>
        <pt x="404" y="960" on="0"/>
        <pt x="289" y="960" on="0"/>
        <pt x="172" y="960" on="0"/>
        <pt x="58" y="960" on="0"/>
        <pt x="-1" y="960" on="1"/>
        <pt x="0" y="832" on="0"/>
        <pt x="-1" y="576" on="0"/>
        <pt x="0" y="320" on="0"/>
        <pt x="-1" y="64" on="0"/>
        <pt x="0" y="-64" on="1"/>
        <pt x="57" y="-64" on="0"/>
        <pt x="173" y="-64" on="0"/>
        <pt x="288" y="-64" on="0"/>
        <pt x="405" y="-64" on="0"/>
        <pt x="461" y="-64" on="1"/>
        <pt x="462" y="23" on="0"/>
        <pt x="461" y="196" on="0"/>
        <pt x="462" y="370" on="0"/>
        <pt x="461" y="543" on="0"/>
        <pt x="462" y="630" on="1"/>
        <pt x="470" y="630" on="0"/>
        <pt x="487" y="630" on="0"/>
        <pt x="503" y="630" on="0"/>
        <pt x="520" y="630" on="0"/>
        <pt x="528" y="630" on="1"/>
        <pt x="529" y="597" on="1"/>
        <pt x="536" y="597" on="0"/>
        <pt x="553" y="597" on="0"/>
        <pt x="569" y="597" on="0"/>
        <pt x="586" y="597" on="0"/>
        <pt x="594" y="597" on="1"/>
        <pt x="595" y="564" on="1"/>
        <pt x="602" y="564" on="0"/>
        <pt x="619" y="564" on="0"/>
        <pt x="635" y="564" on="0"/>
        <pt x="652" y="564" on="0"/>
        <pt x="660" y="564" on="1"/>
        <pt x="661" y="531" on="1"/>
        <pt x="668" y="531" on="0"/>
        <pt x="685" y="531" on="0"/>
        <pt x="701" y="531" on="0"/>
        <pt x="718" y="531" on="0"/>
        <pt x="726" y="531" on="1"/>
        <pt x="727" y="498" on="1"/>
        <pt x="734" y="498" on="0"/>
        <pt x="751" y="498" on="0"/>
        <pt x="767" y="498" on="0"/>
        <pt x="785" y="498" on="0"/>
        <pt x="792" y="498" on="1"/>
        <pt x="793" y="427" on="0"/>
        <pt x="792" y="287" on="0"/>
        <pt x="793" y="147" on="0"/>
        <pt x="792" y="6" on="0"/>
        <pt x="793" y="-64" on="1"/>
        <pt x="850" y="-64" on="0"/>
        <pt x="966" y="-64" on="0"/>
        <pt x="1081" y="-64" on="0"/>
        <pt x="1197" y="-64" on="0"/>
        <pt x="1254" y="-64" on="1"/>
        <pt x="1255" y="64" on="0"/>
        <pt x="1254" y="320" on="0"/>
        <pt x="1255" y="576" on="0"/>
        <pt x="1254" y="832" on="0"/>
        <pt x="1255" y="960" on="1"/>
        <pt x="1221" y="960" on="1"/>
      </contour>
    </TTGlyph>
    <TTGlyph name="nine" xMin="0" yMin="-64" xMax="1255" yMax="960">
      <contour>
        <pt x="1222" y="597" on="1"/>
        <pt x="1189" y="597" on="1"/>
        <pt x="1189" y="609" on="0"/>
        <pt x="1189" y="634" on="0"/>
        <pt x="1189" y="659" on="0"/>
        <pt x="1189" y="683" on="0"/>
        <pt x="1189" y="696" on="1"/>
        <pt x="1181" y="696" on="0"/>
        <pt x="1164" y="696" on="0"/>
        <pt x="1148" y="696" on="0"/>
        <pt x="1131" y="696" on="0"/>
        <pt x="1123" y="696" on="1"/>
        <pt x="1123" y="704" on="0"/>
        <pt x="1123" y="721" on="0"/>
        <pt x="1123" y="737" on="0"/>
        <pt x="1123" y="754" on="0"/>
        <pt x="1123" y="762" on="1"/>
        <pt x="1115" y="762" on="0"/>
        <pt x="1098" y="762" on="0"/>
        <pt x="1082" y="762" on="0"/>
        <pt x="1065" y="762" on="0"/>
        <pt x="1057" y="762" on="1"/>
        <pt x="1057" y="770" on="0"/>
        <pt x="1057" y="787" on="0"/>
        <pt x="1057" y="803" on="0"/>
        <pt x="1057" y="820" on="0"/>
        <pt x="1057" y="828" on="1"/>
        <pt x="1049" y="828" on="0"/>
        <pt x="1032" y="828" on="0"/>
        <pt x="1016" y="828" on="0"/>
        <pt x="999" y="828" on="0"/>
        <pt x="991" y="828" on="1"/>
        <pt x="991" y="861" on="1"/>
        <pt x="983" y="861" on="0"/>
        <pt x="966" y="861" on="0"/>
        <pt x="950" y="861" on="0"/>
        <pt x="933" y="861" on="0"/>
        <pt x="925" y="861" on="1"/>
        <pt x="925" y="894" on="1"/>
        <pt x="917" y="894" on="0"/>
        <pt x="900" y="894" on="0"/>
        <pt x="884" y="894" on="0"/>
        <pt x="867" y="894" on="0"/>
        <pt x="859" y="894" on="1"/>
        <pt x="859" y="927" on="1"/>
        <pt x="842" y="927" on="0"/>
        <pt x="809" y="927" on="0"/>
        <pt x="776" y="927" on="0"/>
        <pt x="743" y="927" on="0"/>
        <pt x="727" y="927" on="1"/>
        <pt x="727" y="960" on="1"/>
        <pt x="702" y="960" on="0"/>
        <pt x="652" y="960" on="0"/>
        <pt x="603" y="960" on="0"/>
        <pt x="553" y="960" on="0"/>
        <pt x="529" y="960" on="1"/>
        <pt x="529" y="927" on="1"/>
        <pt x="512" y="927" on="0"/>
        <pt x="479" y="927" on="0"/>
        <pt x="446" y="927" on="0"/>
        <pt x="413" y="927" on="0"/>
        <pt x="396" y="927" on="1"/>
        <pt x="396" y="894" on="1"/>
        <pt x="388" y="894" on="0"/>
        <pt x="372" y="894" on="0"/>
        <pt x="355" y="894" on="0"/>
        <pt x="339" y="894" on="0"/>
        <pt x="330" y="894" on="1"/>
        <pt x="330" y="861" on="1"/>
        <pt x="322" y="861" on="0"/>
        <pt x="306" y="861" on="0"/>
        <pt x="289" y="861" on="0"/>
        <pt x="273" y="861" on="0"/>
        <pt x="264" y="861" on="1"/>
        <pt x="264" y="828" on="1"/>
        <pt x="256" y="828" on="0"/>
        <pt x="239" y="828" on="0"/>
        <pt x="223" y="828" on="0"/>
        <pt x="206" y="828" on="0"/>
        <pt x="198" y="828" on="1"/>
        <pt x="198" y="820" on="0"/>
        <pt x="198" y="803" on="0"/>
        <pt x="198" y="787" on="0"/>
        <pt x="198" y="770" on="0"/>
        <pt x="198" y="762" on="1"/>
        <pt x="190" y="762" on="0"/>
        <pt x="173" y="762" on="0"/>
        <pt x="157" y="762" on="0"/>
        <pt x="140" y="762" on="0"/>
        <pt x="132" y="762" on="1"/>
        <pt x="132" y="754" on="0"/>
        <pt x="132" y="737" on="0"/>
        <pt x="132" y="721" on="0"/>
        <pt x="132" y="704" on="0"/>
        <pt x="132" y="696" on="1"/>
        <pt x="124" y="696" on="0"/>
        <pt x="107" y="696" on="0"/>
        <pt x="91" y="696" on="0"/>
        <pt x="74" y="696" on="0"/>
        <pt x="66" y="696" on="1"/>
        <pt x="66" y="679" on="0"/>
        <pt x="66" y="646" on="0"/>
        <pt x="66" y="613" on="0"/>
        <pt x="66" y="580" on="0"/>
        <pt x="66" y="564" on="1"/>
        <pt x="58" y="564" on="0"/>
        <pt x="41" y="564" on="0"/>
        <pt x="25" y="564" on="0"/>
        <pt x="8" y="564" on="0"/>
        <pt x="0" y="564" on="1"/>
        <pt x="0" y="535" on="0"/>
        <pt x="0" y="477" on="0"/>
        <pt x="0" y="419" on="0"/>
        <pt x="0" y="361" on="0"/>
        <pt x="0" y="332" on="1"/>
        <pt x="99" y="332" on="0"/>
        <pt x="297" y="332" on="0"/>
        <pt x="495" y="332" on="0"/>
        <pt x="694" y="332" on="0"/>
        <pt x="793" y="332" on="1"/>
        <pt x="793" y="303" on="0"/>
        <pt x="793" y="246" on="0"/>
        <pt x="793" y="188" on="0"/>
        <pt x="793" y="130" on="0"/>
        <pt x="793" y="101" on="1"/>
        <pt x="694" y="101" on="0"/>
        <pt x="495" y="101" on="0"/>
        <pt x="297" y="101" on="0"/>
        <pt x="99" y="101" on="0"/>
        <pt x="0" y="101" on="1"/>
        <pt x="0" y="81" on="0"/>
        <pt x="0" y="39" on="0"/>
        <pt x="0" y="-2" on="0"/>
        <pt x="0" y="-43" on="0"/>
        <pt x="0" y="-64" on="1"/>
        <pt x="157" y="-64" on="0"/>
        <pt x="471" y="-64" on="0"/>
        <pt x="785" y="-64" on="0"/>
        <pt x="1098" y="-64" on="0"/>
        <pt x="1255" y="-64" on="1"/>
        <pt x="1255" y="19" on="0"/>
        <pt x="1255" y="184" on="0"/>
        <pt x="1255" y="349" on="0"/>
        <pt x="1255" y="514" on="0"/>
        <pt x="1255" y="597" on="1"/>
        <pt x="1222" y="597" on="1"/>
      </contour>
      <contour>
        <pt x="793" y="431" on="1"/>
        <pt x="462" y="431" on="1"/>
        <pt x="462" y="762" on="1"/>
        <pt x="529" y="762" on="1"/>
        <pt x="529" y="828" on="1"/>
        <pt x="595" y="828" on="1"/>
        <pt x="595" y="861" on="1"/>
        <pt x="661" y="861" on="1"/>
        <pt x="661" y="828" on="1"/>
        <pt x="727" y="828" on="1"/>
        <pt x="727" y="762" on="1"/>
        <pt x="793" y="762" on="1"/>
        <pt x="793" y="431" on="1"/>
      </contour>
    </TTGlyph>
    <TTGlyph name="o" xMin="0" yMin="-64" xMax="1255" yMax="960">
      <contour>
        <pt x="1222" y="597" on="1"/>
        <pt x="1189" y="597" on="1"/>
        <pt x="1189" y="609" on="0"/>
        <pt x="1189" y="634" on="0"/>
        <pt x="1189" y="659" on="0"/>
        <pt x="1189" y="683" on="0"/>
        <pt x="1189" y="696" on="1"/>
        <pt x="1181" y="696" on="0"/>
        <pt x="1164" y="696" on="0"/>
        <pt x="1148" y="696" on="0"/>
        <pt x="1131" y="696" on="0"/>
        <pt x="1123" y="696" on="1"/>
        <pt x="1123" y="704" on="0"/>
        <pt x="1123" y="721" on="0"/>
        <pt x="1123" y="737" on="0"/>
        <pt x="1123" y="754" on="0"/>
        <pt x="1123" y="762" on="1"/>
        <pt x="1115" y="762" on="0"/>
        <pt x="1098" y="762" on="0"/>
        <pt x="1082" y="762" on="0"/>
        <pt x="1065" y="762" on="0"/>
        <pt x="1057" y="762" on="1"/>
        <pt x="1057" y="770" on="0"/>
        <pt x="1057" y="787" on="0"/>
        <pt x="1057" y="803" on="0"/>
        <pt x="1057" y="820" on="0"/>
        <pt x="1057" y="828" on="1"/>
        <pt x="1049" y="828" on="0"/>
        <pt x="1032" y="828" on="0"/>
        <pt x="1016" y="828" on="0"/>
        <pt x="999" y="828" on="0"/>
        <pt x="991" y="828" on="1"/>
        <pt x="991" y="861" on="1"/>
        <pt x="983" y="861" on="0"/>
        <pt x="966" y="861" on="0"/>
        <pt x="950" y="861" on="0"/>
        <pt x="933" y="861" on="0"/>
        <pt x="925" y="861" on="1"/>
        <pt x="925" y="894" on="1"/>
        <pt x="917" y="894" on="0"/>
        <pt x="900" y="894" on="0"/>
        <pt x="884" y="894" on="0"/>
        <pt x="867" y="894" on="0"/>
        <pt x="859" y="894" on="1"/>
        <pt x="859" y="927" on="1"/>
        <pt x="842" y="927" on="0"/>
        <pt x="809" y="927" on="0"/>
        <pt x="776" y="927" on="0"/>
        <pt x="743" y="927" on="0"/>
        <pt x="727" y="927" on="1"/>
        <pt x="727" y="960" on="1"/>
        <pt x="702" y="960" on="0"/>
        <pt x="652" y="960" on="0"/>
        <pt x="603" y="960" on="0"/>
        <pt x="553" y="960" on="0"/>
        <pt x="529" y="960" on="1"/>
        <pt x="529" y="927" on="1"/>
        <pt x="512" y="927" on="0"/>
        <pt x="479" y="927" on="0"/>
        <pt x="446" y="927" on="0"/>
        <pt x="413" y="927" on="0"/>
        <pt x="396" y="927" on="1"/>
        <pt x="396" y="894" on="1"/>
        <pt x="388" y="894" on="0"/>
        <pt x="372" y="894" on="0"/>
        <pt x="355" y="894" on="0"/>
        <pt x="339" y="894" on="0"/>
        <pt x="330" y="894" on="1"/>
        <pt x="330" y="861" on="1"/>
        <pt x="322" y="861" on="0"/>
        <pt x="306" y="861" on="0"/>
        <pt x="289" y="861" on="0"/>
        <pt x="273" y="861" on="0"/>
        <pt x="264" y="861" on="1"/>
        <pt x="264" y="828" on="1"/>
        <pt x="256" y="828" on="0"/>
        <pt x="239" y="828" on="0"/>
        <pt x="223" y="828" on="0"/>
        <pt x="206" y="828" on="0"/>
        <pt x="198" y="828" on="1"/>
        <pt x="198" y="820" on="0"/>
        <pt x="198" y="803" on="0"/>
        <pt x="198" y="787" on="0"/>
        <pt x="198" y="770" on="0"/>
        <pt x="198" y="762" on="1"/>
        <pt x="190" y="762" on="0"/>
        <pt x="173" y="762" on="0"/>
        <pt x="157" y="762" on="0"/>
        <pt x="140" y="762" on="0"/>
        <pt x="132" y="762" on="1"/>
        <pt x="132" y="754" on="0"/>
        <pt x="132" y="737" on="0"/>
        <pt x="132" y="721" on="0"/>
        <pt x="132" y="704" on="0"/>
        <pt x="132" y="696" on="1"/>
        <pt x="124" y="696" on="0"/>
        <pt x="107" y="696" on="0"/>
        <pt x="91" y="696" on="0"/>
        <pt x="74" y="696" on="0"/>
        <pt x="66" y="696" on="1"/>
        <pt x="66" y="679" on="0"/>
        <pt x="66" y="646" on="0"/>
        <pt x="66" y="613" on="0"/>
        <pt x="66" y="580" on="0"/>
        <pt x="66" y="564" on="1"/>
        <pt x="58" y="564" on="0"/>
        <pt x="41" y="564" on="0"/>
        <pt x="25" y="564" on="0"/>
        <pt x="8" y="564" on="0"/>
        <pt x="0" y="564" on="1"/>
        <pt x="0" y="485" on="0"/>
        <pt x="0" y="328" on="0"/>
        <pt x="0" y="171" on="0"/>
        <pt x="0" y="14" on="0"/>
        <pt x="0" y="-64" on="1"/>
        <pt x="157" y="-64" on="0"/>
        <pt x="471" y="-64" on="0"/>
        <pt x="785" y="-64" on="0"/>
        <pt x="1098" y="-64" on="0"/>
        <pt x="1255" y="-64" on="1"/>
        <pt x="1255" y="19" on="0"/>
        <pt x="1255" y="184" on="0"/>
        <pt x="1255" y="349" on="0"/>
        <pt x="1255" y="514" on="0"/>
        <pt x="1255" y="597" on="1"/>
        <pt x="1222" y="597" on="1"/>
      </contour>
      <contour>
        <pt x="793" y="101" on="1"/>
        <pt x="462" y="101" on="1"/>
        <pt x="462" y="762" on="1"/>
        <pt x="529" y="762" on="1"/>
        <pt x="529" y="828" on="1"/>
        <pt x="595" y="828" on="1"/>
        <pt x="595" y="861" on="1"/>
        <pt x="661" y="861" on="1"/>
        <pt x="661" y="828" on="1"/>
        <pt x="727" y="828" on="1"/>
        <pt x="727" y="762" on="1"/>
        <pt x="793" y="762" on="1"/>
        <pt x="793" y="101" on="1"/>
      </contour>
    </TTGlyph>
    <TTGlyph name="one" xMin="0" yMin="-64" xMax="991" yMax="960">
      <contour>
        <pt x="958" y="101" on="1"/>
        <pt x="929" y="101" on="0"/>
        <pt x="871" y="101" on="0"/>
        <pt x="813" y="101" on="0"/>
        <pt x="756" y="101" on="0"/>
        <pt x="727" y="101" on="1"/>
        <pt x="727" y="209" on="0"/>
        <pt x="727" y="423" on="0"/>
        <pt x="727" y="638" on="0"/>
        <pt x="727" y="853" on="0"/>
        <pt x="727" y="960" on="1"/>
        <pt x="669" y="960" on="0"/>
        <pt x="553" y="960" on="0"/>
        <pt x="438" y="960" on="0"/>
        <pt x="322" y="960" on="0"/>
        <pt x="264" y="960" on="1"/>
        <pt x="264" y="952" on="0"/>
        <pt x="264" y="935" on="0"/>
        <pt x="264" y="919" on="0"/>
        <pt x="264" y="902" on="0"/>
        <pt x="264" y="894" on="1"/>
        <pt x="256" y="894" on="0"/>
        <pt x="239" y="894" on="0"/>
        <pt x="223" y="894" on="0"/>
        <pt x="206" y="894" on="0"/>
        <pt x="198" y="894" on="1"/>
        <pt x="198" y="861" on="1"/>
        <pt x="182" y="861" on="0"/>
        <pt x="149" y="861" on="0"/>
        <pt x="116" y="861" on="0"/>
        <pt x="83" y="861" on="0"/>
        <pt x="66" y="861" on="1"/>
        <pt x="66" y="828" on="1"/>
        <pt x="58" y="828" on="0"/>
        <pt x="41" y="828" on="0"/>
        <pt x="25" y="828" on="0"/>
        <pt x="8" y="828" on="0"/>
        <pt x="0" y="828" on="1"/>
        <pt x="0" y="815" on="0"/>
        <pt x="0" y="791" on="0"/>
        <pt x="0" y="766" on="0"/>
        <pt x="0" y="741" on="0"/>
        <pt x="0" y="729" on="1"/>
        <pt x="33" y="729" on="0"/>
        <pt x="99" y="729" on="0"/>
        <pt x="165" y="729" on="0"/>
        <pt x="231" y="729" on="0"/>
        <pt x="264" y="729" on="1"/>
        <pt x="264" y="650" on="0"/>
        <pt x="264" y="493" on="0"/>
        <pt x="264" y="337" on="0"/>
        <pt x="264" y="180" on="0"/>
        <pt x="264" y="101" on="1"/>
        <pt x="231" y="101" on="0"/>
        <pt x="165" y="101" on="0"/>
        <pt x="99" y="101" on="0"/>
        <pt x="33" y="101" on="0"/>
        <pt x="0" y="101" on="1"/>
        <pt x="0" y="81" on="0"/>
        <pt x="0" y="39" on="0"/>
        <pt x="0" y="-2" on="0"/>
        <pt x="0" y="-43" on="0"/>
        <pt x="0" y="-64" on="1"/>
        <pt x="124" y="-64" on="0"/>
        <pt x="372" y="-64" on="0"/>
        <pt x="619" y="-64" on="0"/>
        <pt x="867" y="-64" on="0"/>
        <pt x="991" y="-64" on="1"/>
        <pt x="991" y="-43" on="0"/>
        <pt x="991" y="-2" on="0"/>
        <pt x="991" y="39" on="0"/>
        <pt x="991" y="81" on="0"/>
        <pt x="991" y="101" on="1"/>
        <pt x="958" y="101" on="1"/>
      </contour>
    </TTGlyph>
    <TTGlyph name="p" xMin="0" yMin="-64" xMax="1255" yMax="960">
      <contour>
        <pt x="1222" y="597" on="1"/>
        <pt x="1189" y="597" on="1"/>
        <pt x="1189" y="609" on="0"/>
        <pt x="1189" y="634" on="0"/>
        <pt x="1189" y="659" on="0"/>
        <pt x="1189" y="683" on="0"/>
        <pt x="1189" y="696" on="1"/>
        <pt x="1181" y="696" on="0"/>
        <pt x="1164" y="696" on="0"/>
        <pt x="1148" y="696" on="0"/>
        <pt x="1131" y="696" on="0"/>
        <pt x="1123" y="696" on="1"/>
        <pt x="1123" y="704" on="0"/>
        <pt x="1123" y="721" on="0"/>
        <pt x="1123" y="737" on="0"/>
        <pt x="1123" y="754" on="0"/>
        <pt x="1123" y="762" on="1"/>
        <pt x="1115" y="762" on="0"/>
        <pt x="1098" y="762" on="0"/>
        <pt x="1082" y="762" on="0"/>
        <pt x="1065" y="762" on="0"/>
        <pt x="1057" y="762" on="1"/>
        <pt x="1057" y="770" on="0"/>
        <pt x="1057" y="787" on="0"/>
        <pt x="1057" y="803" on="0"/>
        <pt x="1057" y="820" on="0"/>
        <pt x="1057" y="828" on="1"/>
        <pt x="1049" y="828" on="0"/>
        <pt x="1032" y="828" on="0"/>
        <pt x="1016" y="828" on="0"/>
        <pt x="999" y="828" on="0"/>
        <pt x="991" y="828" on="1"/>
        <pt x="991" y="861" on="1"/>
        <pt x="983" y="861" on="0"/>
        <pt x="966" y="861" on="0"/>
        <pt x="950" y="861" on="0"/>
        <pt x="933" y="861" on="0"/>
        <pt x="925" y="861" on="1"/>
        <pt x="925" y="894" on="1"/>
        <pt x="917" y="894" on="0"/>
        <pt x="900" y="894" on="0"/>
        <pt x="884" y="894" on="0"/>
        <pt x="867" y="894" on="0"/>
        <pt x="859" y="894" on="1"/>
        <pt x="859" y="927" on="1"/>
        <pt x="842" y="927" on="0"/>
        <pt x="809" y="927" on="0"/>
        <pt x="776" y="927" on="0"/>
        <pt x="743" y="927" on="0"/>
        <pt x="727" y="927" on="1"/>
        <pt x="727" y="960" on="1"/>
        <pt x="636" y="960" on="0"/>
        <pt x="454" y="960" on="0"/>
        <pt x="273" y="960" on="0"/>
        <pt x="91" y="960" on="0"/>
        <pt x="0" y="960" on="1"/>
        <pt x="0" y="832" on="0"/>
        <pt x="0" y="576" on="0"/>
        <pt x="0" y="320" on="0"/>
        <pt x="0" y="64" on="0"/>
        <pt x="0" y="-64" on="1"/>
        <pt x="58" y="-64" on="0"/>
        <pt x="173" y="-64" on="0"/>
        <pt x="289" y="-64" on="0"/>
        <pt x="405" y="-64" on="0"/>
        <pt x="462" y="-64" on="1"/>
        <pt x="462" y="-14" on="0"/>
        <pt x="462" y="85" on="0"/>
        <pt x="462" y="184" on="0"/>
        <pt x="462" y="283" on="0"/>
        <pt x="462" y="332" on="1"/>
        <pt x="562" y="332" on="0"/>
        <pt x="760" y="332" on="0"/>
        <pt x="958" y="332" on="0"/>
        <pt x="1156" y="332" on="0"/>
        <pt x="1255" y="332" on="1"/>
        <pt x="1255" y="365" on="0"/>
        <pt x="1255" y="431" on="0"/>
        <pt x="1255" y="498" on="0"/>
        <pt x="1255" y="564" on="0"/>
        <pt x="1255" y="597" on="1"/>
        <pt x="1222" y="597" on="1"/>
      </contour>
      <contour>
        <pt x="793" y="431" on="1"/>
        <pt x="462" y="431" on="1"/>
        <pt x="462" y="861" on="1"/>
        <pt x="661" y="861" on="1"/>
        <pt x="661" y="828" on="1"/>
        <pt x="727" y="828" on="1"/>
        <pt x="727" y="762" on="1"/>
        <pt x="793" y="762" on="1"/>
        <pt x="793" y="431" on="1"/>
      </contour>
    </TTGlyph>
    <TTGlyph name="period" xMin="0" yMin="-64" xMax="462" yMax="134">
      <contour>
        <pt x="429" y="134" on="1"/>
        <pt x="375" y="134" on="0"/>
        <pt x="268" y="134" on="0"/>
        <pt x="160" y="134" on="0"/>
        <pt x="54" y="134" on="0"/>
        <pt x="-1" y="134" on="1"/>
        <pt x="0" y="109" on="0"/>
        <pt x="-1" y="60" on="0"/>
        <pt x="0" y="10" on="0"/>
        <pt x="-1" y="-39" on="0"/>
        <pt x="0" y="-64" on="1"/>
        <pt x="57" y="-64" on="0"/>
        <pt x="173" y="-64" on="0"/>
        <pt x="288" y="-64" on="0"/>
        <pt x="405" y="-64" on="0"/>
        <pt x="461" y="-64" on="1"/>
        <pt x="462" y="-39" on="0"/>
        <pt x="461" y="10" on="0"/>
        <pt x="462" y="60" on="0"/>
        <pt x="461" y="109" on="0"/>
        <pt x="462" y="134" on="1"/>
        <pt x="428" y="134" on="1"/>
      </contour>
    </TTGlyph>
    <TTGlyph name="q" xMin="0" yMin="-64" xMax="1255" yMax="960">
      <contour>
        <pt x="1156" y="35" on="1"/>
        <pt x="1123" y="35" on="1"/>
        <pt x="1123" y="68" on="1"/>
        <pt x="1057" y="68" on="1"/>
        <pt x="1057" y="101" on="1"/>
        <pt x="991" y="101" on="1"/>
        <pt x="991" y="134" on="1"/>
        <pt x="925" y="134" on="1"/>
        <pt x="925" y="167" on="1"/>
        <pt x="859" y="167" on="1"/>
        <pt x="859" y="200" on="1"/>
        <pt x="793" y="200" on="1"/>
        <pt x="793" y="233" on="1"/>
        <pt x="727" y="233" on="1"/>
        <pt x="727" y="266" on="1"/>
        <pt x="661" y="266" on="1"/>
        <pt x="661" y="233" on="1"/>
        <pt x="595" y="233" on="1"/>
        <pt x="595" y="134" on="1"/>
        <pt x="661" y="134" on="1"/>
        <pt x="661" y="101" on="1"/>
        <pt x="727" y="101" on="1"/>
        <pt x="727" y="68" on="1"/>
        <pt x="793" y="68" on="1"/>
        <pt x="793" y="35" on="1"/>
        <pt x="859" y="35" on="1"/>
        <pt x="859" y="2" on="1"/>
        <pt x="925" y="2" on="1"/>
        <pt x="925" y="-31" on="1"/>
        <pt x="991" y="-31" on="1"/>
        <pt x="991" y="-64" on="1"/>
        <pt x="1255" y="-64" on="1"/>
        <pt x="1255" y="2" on="1"/>
        <pt x="1189" y="2" on="1"/>
        <pt x="1189" y="35" on="1"/>
        <pt x="1156" y="35" on="1"/>
      </contour>
      <contour>
        <pt x="859" y="-31" on="1"/>
        <pt x="859" y="2" on="1"/>
        <pt x="793" y="2" on="1"/>
        <pt x="793" y="35" on="1"/>
        <pt x="727" y="35" on="1"/>
        <pt x="727" y="68" on="1"/>
        <pt x="661" y="68" on="1"/>
        <pt x="661" y="101" on="1"/>
        <pt x="462" y="101" on="1"/>
        <pt x="462" y="762" on="1"/>
        <pt x="529" y="762" on="1"/>
        <pt x="529" y="828" on="1"/>
        <pt x="595" y="828" on="1"/>
        <pt x="595" y="861" on="1"/>
        <pt x="661" y="861" on="1"/>
        <pt x="661" y="828" on="1"/>
        <pt x="727" y="828" on="1"/>
        <pt x="727" y="762" on="1"/>
        <pt x="793" y="762" on="1"/>
        <pt x="793" y="233" on="1"/>
        <pt x="859" y="233" on="1"/>
        <pt x="859" y="200" on="1"/>
        <pt x="925" y="200" on="1"/>
        <pt x="925" y="167" on="1"/>
        <pt x="991" y="167" on="1"/>
        <pt x="991" y="134" on="1"/>
        <pt x="1057" y="134" on="1"/>
        <pt x="1057" y="101" on="1"/>
        <pt x="1123" y="101" on="1"/>
        <pt x="1123" y="68" on="1"/>
        <pt x="1189" y="68" on="1"/>
        <pt x="1189" y="35" on="1"/>
        <pt x="1255" y="35" on="1"/>
        <pt x="1255" y="597" on="1"/>
        <pt x="1189" y="597" on="1"/>
        <pt x="1189" y="696" on="1"/>
        <pt x="1123" y="696" on="1"/>
        <pt x="1123" y="762" on="1"/>
        <pt x="1057" y="762" on="1"/>
        <pt x="1057" y="828" on="1"/>
        <pt x="991" y="828" on="1"/>
        <pt x="991" y="861" on="1"/>
        <pt x="925" y="861" on="1"/>
        <pt x="925" y="894" on="1"/>
        <pt x="859" y="894" on="1"/>
        <pt x="859" y="927" on="1"/>
        <pt x="727" y="927" on="1"/>
        <pt x="727" y="960" on="1"/>
        <pt x="529" y="960" on="1"/>
        <pt x="529" y="927" on="1"/>
        <pt x="396" y="927" on="1"/>
        <pt x="396" y="894" on="1"/>
        <pt x="330" y="894" on="1"/>
        <pt x="330" y="861" on="1"/>
        <pt x="264" y="861" on="1"/>
        <pt x="264" y="828" on="1"/>
        <pt x="198" y="828" on="1"/>
        <pt x="198" y="762" on="1"/>
        <pt x="132" y="762" on="1"/>
        <pt x="132" y="696" on="1"/>
        <pt x="66" y="696" on="1"/>
        <pt x="66" y="564" on="1"/>
        <pt x="0" y="564" on="1"/>
        <pt x="0" y="-64" on="1"/>
        <pt x="925" y="-64" on="1"/>
        <pt x="925" y="-31" on="1"/>
        <pt x="859" y="-31" on="1"/>
      </contour>
    </TTGlyph>
    <TTGlyph name="question" xMin="0" yMin="-64" xMax="1255" yMax="960">
      <contour>
        <pt x="1222" y="597" on="1"/>
        <pt x="1189" y="597" on="1"/>
        <pt x="1189" y="609" on="0"/>
        <pt x="1189" y="634" on="0"/>
        <pt x="1189" y="659" on="0"/>
        <pt x="1189" y="683" on="0"/>
        <pt x="1189" y="696" on="1"/>
        <pt x="1181" y="696" on="0"/>
        <pt x="1164" y="696" on="0"/>
        <pt x="1148" y="696" on="0"/>
        <pt x="1131" y="696" on="0"/>
        <pt x="1123" y="696" on="1"/>
        <pt x="1123" y="704" on="0"/>
        <pt x="1123" y="721" on="0"/>
        <pt x="1123" y="737" on="0"/>
        <pt x="1123" y="754" on="0"/>
        <pt x="1123" y="762" on="1"/>
        <pt x="1115" y="762" on="0"/>
        <pt x="1098" y="762" on="0"/>
        <pt x="1082" y="762" on="0"/>
        <pt x="1065" y="762" on="0"/>
        <pt x="1057" y="762" on="1"/>
        <pt x="1057" y="770" on="0"/>
        <pt x="1057" y="787" on="0"/>
        <pt x="1057" y="803" on="0"/>
        <pt x="1057" y="820" on="0"/>
        <pt x="1057" y="828" on="1"/>
        <pt x="1049" y="828" on="0"/>
        <pt x="1032" y="828" on="0"/>
        <pt x="1016" y="828" on="0"/>
        <pt x="999" y="828" on="0"/>
        <pt x="991" y="828" on="1"/>
        <pt x="991" y="861" on="1"/>
        <pt x="983" y="861" on="0"/>
        <pt x="966" y="861" on="0"/>
        <pt x="950" y="861" on="0"/>
        <pt x="933" y="861" on="0"/>
        <pt x="925" y="861" on="1"/>
        <pt x="925" y="894" on="1"/>
        <pt x="917" y="894" on="0"/>
        <pt x="900" y="894" on="0"/>
        <pt x="884" y="894" on="0"/>
        <pt x="867" y="894" on="0"/>
        <pt x="859" y="894" on="1"/>
        <pt x="859" y="927" on="1"/>
        <pt x="842" y="927" on="0"/>
        <pt x="809" y="927" on="0"/>
        <pt x="776" y="927" on="0"/>
        <pt x="743" y="927" on="0"/>
        <pt x="727" y="927" on="1"/>
        <pt x="727" y="960" on="1"/>
        <pt x="636" y="960" on="0"/>
        <pt x="454" y="960" on="0"/>
        <pt x="273" y="960" on="0"/>
        <pt x="91" y="960" on="0"/>
        <pt x="0" y="960" on="1"/>
        <pt x="0" y="948" on="0"/>
        <pt x="0" y="923" on="0"/>
        <pt x="0" y="898" on="0"/>
        <pt x="0" y="873" on="0"/>
        <pt x="0" y="861" on="1"/>
        <pt x="83" y="861" on="0"/>
        <pt x="248" y="861" on="0"/>
        <pt x="413" y="861" on="0"/>
        <pt x="578" y="861" on="0"/>
        <pt x="661" y="861" on="1"/>
        <pt x="661" y="828" on="1"/>
        <pt x="669" y="828" on="0"/>
        <pt x="685" y="828" on="0"/>
        <pt x="702" y="828" on="0"/>
        <pt x="718" y="828" on="0"/>
        <pt x="727" y="828" on="1"/>
        <pt x="727" y="820" on="0"/>
        <pt x="727" y="803" on="0"/>
        <pt x="727" y="787" on="0"/>
        <pt x="727" y="770" on="0"/>
        <pt x="727" y="762" on="1"/>
        <pt x="735" y="762" on="0"/>
        <pt x="751" y="762" on="0"/>
        <pt x="768" y="762" on="0"/>
        <pt x="785" y="762" on="0"/>
        <pt x="793" y="762" on="1"/>
        <pt x="793" y="721" on="0"/>
        <pt x="793" y="638" on="0"/>
        <pt x="793" y="555" on="0"/>
        <pt x="793" y="473" on="0"/>
        <pt x="793" y="431" on="1"/>
        <pt x="760" y="431" on="0"/>
        <pt x="694" y="431" on="0"/>
        <pt x="628" y="431" on="0"/>
        <pt x="562" y="431" on="0"/>
        <pt x="529" y="431" on="1"/>
        <pt x="529" y="398" on="1"/>
        <pt x="520" y="398" on="0"/>
        <pt x="504" y="398" on="0"/>
        <pt x="487" y="398" on="0"/>
        <pt x="471" y="398" on="0"/>
        <pt x="462" y="398" on="1"/>
        <pt x="462" y="365" on="1"/>
        <pt x="454" y="365" on="0"/>
        <pt x="438" y="365" on="0"/>
        <pt x="421" y="365" on="0"/>
        <pt x="405" y="365" on="0"/>
        <pt x="396" y="365" on="1"/>
        <pt x="396" y="332" on="1"/>
        <pt x="388" y="332" on="0"/>
        <pt x="372" y="332" on="0"/>
        <pt x="355" y="332" on="0"/>
        <pt x="339" y="332" on="0"/>
        <pt x="330" y="332" on="1"/>
        <pt x="330" y="324" on="0"/>
        <pt x="330" y="308" on="0"/>
        <pt x="330" y="291" on="0"/>
        <pt x="330" y="275" on="0"/>
        <pt x="330" y="266" on="1"/>
        <pt x="322" y="266" on="0"/>
        <pt x="306" y="266" on="0"/>
        <pt x="289" y="266" on="0"/>
        <pt x="273" y="266" on="0"/>
        <pt x="264" y="266" on="1"/>
        <pt x="264" y="254" on="0"/>
        <pt x="264" y="229" on="0"/>
        <pt x="264" y="204" on="0"/>
        <pt x="264" y="180" on="0"/>
        <pt x="264" y="167" on="1"/>
        <pt x="322" y="167" on="0"/>
        <pt x="438" y="167" on="0"/>
        <pt x="553" y="167" on="0"/>
        <pt x="669" y="167" on="0"/>
        <pt x="727" y="167" on="1"/>
        <pt x="727" y="184" on="0"/>
        <pt x="727" y="217" on="0"/>
        <pt x="727" y="250" on="0"/>
        <pt x="727" y="283" on="0"/>
        <pt x="727" y="299" on="1"/>
        <pt x="735" y="299" on="0"/>
        <pt x="751" y="299" on="0"/>
        <pt x="768" y="299" on="0"/>
        <pt x="785" y="299" on="0"/>
        <pt x="793" y="299" on="1"/>
        <pt x="793" y="332" on="1"/>
        <pt x="851" y="332" on="0"/>
        <pt x="966" y="332" on="0"/>
        <pt x="1082" y="332" on="0"/>
        <pt x="1197" y="332" on="0"/>
        <pt x="1255" y="332" on="1"/>
        <pt x="1255" y="365" on="0"/>
        <pt x="1255" y="431" on="0"/>
        <pt x="1255" y="498" on="0"/>
        <pt x="1255" y="564" on="0"/>
        <pt x="1255" y="597" on="1"/>
        <pt x="1222" y="597" on="1"/>
      </contour>
      <contour>
        <pt x="661" y="134" on="1"/>
        <pt x="611" y="134" on="0"/>
        <pt x="512" y="134" on="0"/>
        <pt x="413" y="134" on="0"/>
        <pt x="314" y="134" on="0"/>
        <pt x="264" y="134" on="1"/>
        <pt x="264" y="109" on="0"/>
        <pt x="264" y="60" on="0"/>
        <pt x="264" y="10" on="0"/>
        <pt x="264" y="-39" on="0"/>
        <pt x="264" y="-64" on="1"/>
        <pt x="322" y="-64" on="0"/>
        <pt x="438" y="-64" on="0"/>
        <pt x="553" y="-64" on="0"/>
        <pt x="669" y="-64" on="0"/>
        <pt x="727" y="-64" on="1"/>
        <pt x="727" y="-39" on="0"/>
        <pt x="727" y="10" on="0"/>
        <pt x="727" y="60" on="0"/>
        <pt x="727" y="109" on="0"/>
        <pt x="727" y="134" on="1"/>
        <pt x="718" y="134" on="0"/>
        <pt x="702" y="134" on="0"/>
        <pt x="685" y="134" on="0"/>
        <pt x="669" y="134" on="0"/>
        <pt x="661" y="134" on="1"/>
        <pt x="661" y="134" on="1"/>
      </contour>
    </TTGlyph>
    <TTGlyph name="quotedbl" xMin="0" yMin="795" xMax="991" yMax="927">
      <contour>
        <pt x="396" y="927" on="1"/>
        <pt x="346" y="927" on="0"/>
        <pt x="248" y="927" on="0"/>
        <pt x="148" y="927" on="0"/>
        <pt x="50" y="927" on="0"/>
        <pt x="-1" y="927" on="1"/>
        <pt x="0" y="910" on="0"/>
        <pt x="-1" y="877" on="0"/>
        <pt x="0" y="844" on="0"/>
        <pt x="-1" y="811" on="0"/>
        <pt x="0" y="795" on="1"/>
        <pt x="57" y="795" on="0"/>
        <pt x="173" y="795" on="0"/>
        <pt x="288" y="795" on="0"/>
        <pt x="405" y="795" on="0"/>
        <pt x="461" y="795" on="1"/>
        <pt x="462" y="811" on="0"/>
        <pt x="461" y="844" on="0"/>
        <pt x="462" y="877" on="0"/>
        <pt x="461" y="910" on="0"/>
        <pt x="462" y="927" on="1"/>
        <pt x="453" y="927" on="0"/>
        <pt x="438" y="927" on="0"/>
        <pt x="420" y="927" on="0"/>
        <pt x="405" y="927" on="0"/>
        <pt x="395" y="927" on="1"/>
        <pt x="396" y="927" on="1"/>
      </contour>
      <contour>
        <pt x="957" y="927" on="1"/>
        <pt x="904" y="927" on="0"/>
        <pt x="796" y="927" on="0"/>
        <pt x="690" y="927" on="0"/>
        <pt x="581" y="927" on="0"/>
        <pt x="529" y="927" on="1"/>
        <pt x="528" y="910" on="0"/>
        <pt x="529" y="877" on="0"/>
        <pt x="528" y="844" on="0"/>
        <pt x="529" y="811" on="0"/>
        <pt x="528" y="795" on="1"/>
        <pt x="586" y="795" on="0"/>
        <pt x="701" y="795" on="0"/>
        <pt x="818" y="795" on="0"/>
        <pt x="932" y="795" on="0"/>
        <pt x="991" y="795" on="1"/>
        <pt x="990" y="811" on="0"/>
        <pt x="991" y="844" on="0"/>
        <pt x="990" y="877" on="0"/>
        <pt x="991" y="910" on="0"/>
        <pt x="990" y="927" on="1"/>
        <pt x="958" y="927" on="1"/>
      </contour>
    </TTGlyph>
    <TTGlyph name="quotesingle" xMin="0" yMin="663" xMax="462" yMax="927">
      <contour>
        <pt x="429" y="927" on="1"/>
        <pt x="392" y="927" on="0"/>
        <pt x="318" y="927" on="0"/>
        <pt x="244" y="927" on="0"/>
        <pt x="169" y="927" on="0"/>
        <pt x="132" y="927" on="1"/>
        <pt x="132" y="894" on="1"/>
        <pt x="124" y="894" on="0"/>
        <pt x="107" y="894" on="0"/>
        <pt x="91" y="894" on="0"/>
        <pt x="74" y="894" on="0"/>
        <pt x="66" y="894" on="1"/>
        <pt x="66" y="882" on="0"/>
        <pt x="66" y="857" on="0"/>
        <pt x="66" y="832" on="0"/>
        <pt x="66" y="807" on="0"/>
        <pt x="66" y="795" on="1"/>
        <pt x="58" y="795" on="0"/>
        <pt x="41" y="795" on="0"/>
        <pt x="25" y="795" on="0"/>
        <pt x="8" y="795" on="0"/>
        <pt x="0" y="795" on="1"/>
        <pt x="0" y="778" on="0"/>
        <pt x="0" y="745" on="0"/>
        <pt x="0" y="712" on="0"/>
        <pt x="0" y="679" on="0"/>
        <pt x="0" y="663" on="1"/>
        <pt x="33" y="663" on="0"/>
        <pt x="99" y="663" on="0"/>
        <pt x="165" y="663" on="0"/>
        <pt x="231" y="663" on="0"/>
        <pt x="264" y="663" on="1"/>
        <pt x="264" y="671" on="0"/>
        <pt x="264" y="687" on="0"/>
        <pt x="264" y="704" on="0"/>
        <pt x="264" y="721" on="0"/>
        <pt x="264" y="729" on="1"/>
        <pt x="273" y="729" on="0"/>
        <pt x="289" y="729" on="0"/>
        <pt x="306" y="729" on="0"/>
        <pt x="322" y="729" on="0"/>
        <pt x="330" y="729" on="1"/>
        <pt x="330" y="762" on="1"/>
        <pt x="339" y="762" on="0"/>
        <pt x="355" y="762" on="0"/>
        <pt x="372" y="762" on="0"/>
        <pt x="388" y="762" on="0"/>
        <pt x="396" y="762" on="1"/>
        <pt x="396" y="770" on="0"/>
        <pt x="396" y="787" on="0"/>
        <pt x="396" y="803" on="0"/>
        <pt x="396" y="820" on="0"/>
        <pt x="396" y="828" on="1"/>
        <pt x="405" y="828" on="0"/>
        <pt x="421" y="828" on="0"/>
        <pt x="438" y="828" on="0"/>
        <pt x="454" y="828" on="0"/>
        <pt x="462" y="828" on="1"/>
        <pt x="462" y="840" on="0"/>
        <pt x="462" y="865" on="0"/>
        <pt x="462" y="890" on="0"/>
        <pt x="462" y="915" on="0"/>
        <pt x="462" y="927" on="1"/>
        <pt x="429" y="927" on="1"/>
      </contour>
    </TTGlyph>
    <TTGlyph name="r" xMin="0" yMin="-64" xMax="1255" yMax="960">
      <contour>
        <pt x="1255" y="332" on="1"/>
        <pt x="1255" y="365" on="0"/>
        <pt x="1255" y="431" on="0"/>
        <pt x="1255" y="498" on="0"/>
        <pt x="1255" y="564" on="0"/>
        <pt x="1255" y="597" on="1"/>
        <pt x="1189" y="597" on="1"/>
        <pt x="1189" y="609" on="0"/>
        <pt x="1189" y="634" on="0"/>
        <pt x="1189" y="659" on="0"/>
        <pt x="1189" y="683" on="0"/>
        <pt x="1189" y="696" on="1"/>
        <pt x="1181" y="696" on="0"/>
        <pt x="1164" y="696" on="0"/>
        <pt x="1148" y="696" on="0"/>
        <pt x="1131" y="696" on="0"/>
        <pt x="1123" y="696" on="1"/>
        <pt x="1123" y="704" on="0"/>
        <pt x="1123" y="721" on="0"/>
        <pt x="1123" y="737" on="0"/>
        <pt x="1123" y="754" on="0"/>
        <pt x="1123" y="762" on="1"/>
        <pt x="1115" y="762" on="0"/>
        <pt x="1098" y="762" on="0"/>
        <pt x="1082" y="762" on="0"/>
        <pt x="1065" y="762" on="0"/>
        <pt x="1057" y="762" on="1"/>
        <pt x="1057" y="770" on="0"/>
        <pt x="1057" y="787" on="0"/>
        <pt x="1057" y="803" on="0"/>
        <pt x="1057" y="820" on="0"/>
        <pt x="1057" y="828" on="1"/>
        <pt x="1049" y="828" on="0"/>
        <pt x="1032" y="828" on="0"/>
        <pt x="1016" y="828" on="0"/>
        <pt x="999" y="828" on="0"/>
        <pt x="991" y="828" on="1"/>
        <pt x="991" y="861" on="1"/>
        <pt x="983" y="861" on="0"/>
        <pt x="966" y="861" on="0"/>
        <pt x="950" y="861" on="0"/>
        <pt x="933" y="861" on="0"/>
        <pt x="925" y="861" on="1"/>
        <pt x="925" y="894" on="1"/>
        <pt x="917" y="894" on="0"/>
        <pt x="900" y="894" on="0"/>
        <pt x="884" y="894" on="0"/>
        <pt x="867" y="894" on="0"/>
        <pt x="859" y="894" on="1"/>
        <pt x="859" y="927" on="1"/>
        <pt x="842" y="927" on="0"/>
        <pt x="809" y="927" on="0"/>
        <pt x="776" y="927" on="0"/>
        <pt x="743" y="927" on="0"/>
        <pt x="727" y="927" on="1"/>
        <pt x="727" y="960" on="1"/>
        <pt x="636" y="960" on="0"/>
        <pt x="454" y="960" on="0"/>
        <pt x="273" y="960" on="0"/>
        <pt x="91" y="960" on="0"/>
        <pt x="0" y="960" on="1"/>
        <pt x="0" y="832" on="0"/>
        <pt x="0" y="576" on="0"/>
        <pt x="0" y="320" on="0"/>
        <pt x="0" y="64" on="0"/>
        <pt x="0" y="-64" on="1"/>
        <pt x="58" y="-64" on="0"/>
        <pt x="173" y="-64" on="0"/>
        <pt x="289" y="-64" on="0"/>
        <pt x="405" y="-64" on="0"/>
        <pt x="462" y="-64" on="1"/>
        <pt x="462" y="-14" on="0"/>
        <pt x="462" y="85" on="0"/>
        <pt x="462" y="184" on="0"/>
        <pt x="462" y="283" on="0"/>
        <pt x="462" y="332" on="1"/>
        <pt x="471" y="332" on="0"/>
        <pt x="487" y="332" on="0"/>
        <pt x="504" y="332" on="0"/>
        <pt x="520" y="332" on="0"/>
        <pt x="529" y="332" on="1"/>
        <pt x="529" y="320" on="0"/>
        <pt x="529" y="295" on="0"/>
        <pt x="529" y="270" on="0"/>
        <pt x="529" y="246" on="0"/>
        <pt x="529" y="233" on="1"/>
        <pt x="537" y="233" on="0"/>
        <pt x="553" y="233" on="0"/>
        <pt x="570" y="233" on="0"/>
        <pt x="586" y="233" on="0"/>
        <pt x="595" y="233" on="1"/>
        <pt x="595" y="225" on="0"/>
        <pt x="595" y="209" on="0"/>
        <pt x="595" y="192" on="0"/>
        <pt x="595" y="175" on="0"/>
        <pt x="595" y="167" on="1"/>
        <pt x="603" y="167" on="0"/>
        <pt x="619" y="167" on="0"/>
        <pt x="636" y="167" on="0"/>
        <pt x="652" y="167" on="0"/>
        <pt x="661" y="167" on="1"/>
        <pt x="661" y="155" on="0"/>
        <pt x="661" y="130" on="0"/>
        <pt x="661" y="105" on="0"/>
        <pt x="661" y="81" on="0"/>
        <pt x="661" y="68" on="1"/>
        <pt x="669" y="68" on="0"/>
        <pt x="685" y="68" on="0"/>
        <pt x="702" y="68" on="0"/>
        <pt x="718" y="68" on="0"/>
        <pt x="727" y="68" on="1"/>
        <pt x="727" y="60" on="0"/>
        <pt x="727" y="43" on="0"/>
        <pt x="727" y="27" on="0"/>
        <pt x="727" y="10" on="0"/>
        <pt x="727" y="2" on="1"/>
        <pt x="735" y="2" on="0"/>
        <pt x="751" y="2" on="0"/>
        <pt x="768" y="2" on="0"/>
        <pt x="785" y="2" on="0"/>
        <pt x="793" y="2" on="1"/>
        <pt x="793" y="-6" on="0"/>
        <pt x="793" y="-23" on="0"/>
        <pt x="793" y="-39" on="0"/>
        <pt x="793" y="-56" on="0"/>
        <pt x="793" y="-64" on="1"/>
        <pt x="851" y="-64" on="0"/>
        <pt x="966" y="-64" on="0"/>
        <pt x="1082" y="-64" on="0"/>
        <pt x="1197" y="-64" on="0"/>
        <pt x="1255" y="-64" on="1"/>
        <pt x="1255" y="-47" on="0"/>
        <pt x="1255" y="-14" on="0"/>
        <pt x="1255" y="19" on="0"/>
        <pt x="1255" y="52" on="0"/>
        <pt x="1255" y="68" on="1"/>
        <pt x="1247" y="68" on="0"/>
        <pt x="1230" y="68" on="0"/>
        <pt x="1214" y="68" on="0"/>
        <pt x="1197" y="68" on="0"/>
        <pt x="1189" y="68" on="1"/>
        <pt x="1189" y="101" on="1"/>
        <pt x="1181" y="101" on="0"/>
        <pt x="1164" y="101" on="0"/>
        <pt x="1148" y="101" on="0"/>
        <pt x="1131" y="101" on="0"/>
        <pt x="1123" y="101" on="1"/>
        <pt x="1123" y="134" on="1"/>
        <pt x="1115" y="134" on="0"/>
        <pt x="1098" y="134" on="0"/>
        <pt x="1082" y="134" on="0"/>
        <pt x="1065" y="134" on="0"/>
        <pt x="1057" y="134" on="1"/>
        <pt x="1057" y="167" on="1"/>
        <pt x="1049" y="167" on="0"/>
        <pt x="1032" y="167" on="0"/>
        <pt x="1016" y="167" on="0"/>
        <pt x="999" y="167" on="0"/>
        <pt x="991" y="167" on="1"/>
        <pt x="991" y="200" on="1"/>
        <pt x="983" y="200" on="0"/>
        <pt x="966" y="200" on="0"/>
        <pt x="950" y="200" on="0"/>
        <pt x="933" y="200" on="0"/>
        <pt x="925" y="200" on="1"/>
        <pt x="925" y="233" on="1"/>
        <pt x="917" y="233" on="0"/>
        <pt x="900" y="233" on="0"/>
        <pt x="884" y="233" on="0"/>
        <pt x="867" y="233" on="0"/>
        <pt x="859" y="233" on="1"/>
        <pt x="859" y="266" on="1"/>
        <pt x="851" y="266" on="0"/>
        <pt x="834" y="266" on="0"/>
        <pt x="818" y="266" on="0"/>
        <pt x="801" y="266" on="0"/>
        <pt x="793" y="266" on="1"/>
        <pt x="793" y="299" on="1"/>
        <pt x="785" y="299" on="0"/>
        <pt x="768" y="299" on="0"/>
        <pt x="751" y="299" on="0"/>
        <pt x="735" y="299" on="0"/>
        <pt x="727" y="299" on="1"/>
        <pt x="727" y="332" on="1"/>
        <pt x="793" y="332" on="0"/>
        <pt x="925" y="332" on="0"/>
        <pt x="1057" y="332" on="0"/>
        <pt x="1189" y="332" on="0"/>
        <pt x="1255" y="332" on="1"/>
      </contour>
      <contour>
        <pt x="529" y="431" on="1"/>
        <pt x="462" y="431" on="1"/>
        <pt x="462" y="861" on="1"/>
        <pt x="661" y="861" on="1"/>
        <pt x="661" y="828" on="1"/>
        <pt x="727" y="828" on="1"/>
        <pt x="727" y="762" on="1"/>
        <pt x="793" y="762" on="1"/>
        <pt x="793" y="431" on="1"/>
        <pt x="529" y="431" on="1"/>
      </contour>
    </TTGlyph>
    <TTGlyph name="s" xMin="0" yMin="-64" xMax="1255" yMax="960">
      <contour>
        <pt x="1222" y="233" on="1"/>
        <pt x="1189" y="233" on="1"/>
        <pt x="1189" y="242" on="0"/>
        <pt x="1189" y="258" on="0"/>
        <pt x="1189" y="275" on="0"/>
        <pt x="1189" y="291" on="0"/>
        <pt x="1189" y="299" on="1"/>
        <pt x="1181" y="299" on="0"/>
        <pt x="1164" y="299" on="0"/>
        <pt x="1148" y="299" on="0"/>
        <pt x="1131" y="299" on="0"/>
        <pt x="1123" y="299" on="1"/>
        <pt x="1123" y="332" on="1"/>
        <pt x="1115" y="332" on="0"/>
        <pt x="1098" y="332" on="0"/>
        <pt x="1082" y="332" on="0"/>
        <pt x="1065" y="332" on="0"/>
        <pt x="1057" y="332" on="1"/>
        <pt x="1057" y="365" on="1"/>
        <pt x="1049" y="365" on="0"/>
        <pt x="1032" y="365" on="0"/>
        <pt x="1016" y="365" on="0"/>
        <pt x="999" y="365" on="0"/>
        <pt x="991" y="365" on="1"/>
        <pt x="991" y="398" on="1"/>
        <pt x="974" y="398" on="0"/>
        <pt x="941" y="398" on="0"/>
        <pt x="908" y="398" on="0"/>
        <pt x="875" y="398" on="0"/>
        <pt x="859" y="398" on="1"/>
        <pt x="859" y="431" on="1"/>
        <pt x="809" y="431" on="0"/>
        <pt x="710" y="431" on="0"/>
        <pt x="611" y="431" on="0"/>
        <pt x="512" y="431" on="0"/>
        <pt x="462" y="431" on="1"/>
        <pt x="462" y="473" on="0"/>
        <pt x="462" y="555" on="0"/>
        <pt x="462" y="638" on="0"/>
        <pt x="462" y="721" on="0"/>
        <pt x="462" y="762" on="1"/>
        <pt x="471" y="762" on="0"/>
        <pt x="487" y="762" on="0"/>
        <pt x="504" y="762" on="0"/>
        <pt x="520" y="762" on="0"/>
        <pt x="529" y="762" on="1"/>
        <pt x="529" y="770" on="0"/>
        <pt x="529" y="787" on="0"/>
        <pt x="529" y="803" on="0"/>
        <pt x="529" y="820" on="0"/>
        <pt x="529" y="828" on="1"/>
        <pt x="537" y="828" on="0"/>
        <pt x="553" y="828" on="0"/>
        <pt x="570" y="828" on="0"/>
        <pt x="586" y="828" on="0"/>
        <pt x="595" y="828" on="1"/>
        <pt x="595" y="861" on="1"/>
        <pt x="636" y="861" on="0"/>
        <pt x="718" y="861" on="0"/>
        <pt x="801" y="861" on="0"/>
        <pt x="884" y="861" on="0"/>
        <pt x="925" y="861" on="1"/>
        <pt x="925" y="873" on="0"/>
        <pt x="925" y="898" on="0"/>
        <pt x="925" y="923" on="0"/>
        <pt x="925" y="948" on="0"/>
        <pt x="925" y="960" on="1"/>
        <pt x="875" y="960" on="0"/>
        <pt x="776" y="960" on="0"/>
        <pt x="677" y="960" on="0"/>
        <pt x="578" y="960" on="0"/>
        <pt x="529" y="960" on="1"/>
        <pt x="529" y="927" on="1"/>
        <pt x="512" y="927" on="0"/>
        <pt x="479" y="927" on="0"/>
        <pt x="446" y="927" on="0"/>
        <pt x="413" y="927" on="0"/>
        <pt x="396" y="927" on="1"/>
        <pt x="396" y="894" on="1"/>
        <pt x="388" y="894" on="0"/>
        <pt x="372" y="894" on="0"/>
        <pt x="355" y="894" on="0"/>
        <pt x="339" y="894" on="0"/>
        <pt x="330" y="894" on="1"/>
        <pt x="330" y="861" on="1"/>
        <pt x="322" y="861" on="0"/>
        <pt x="306" y="861" on="0"/>
        <pt x="289" y="861" on="0"/>
        <pt x="273" y="861" on="0"/>
        <pt x="264" y="861" on="1"/>
        <pt x="264" y="828" on="1"/>
        <pt x="256" y="828" on="0"/>
        <pt x="239" y="828" on="0"/>
        <pt x="223" y="828" on="0"/>
        <pt x="206" y="828" on="0"/>
        <pt x="198" y="828" on="1"/>
        <pt x="198" y="820" on="0"/>
        <pt x="198" y="803" on="0"/>
        <pt x="198" y="787" on="0"/>
        <pt x="198" y="770" on="0"/>
        <pt x="198" y="762" on="1"/>
        <pt x="190" y="762" on="0"/>
        <pt x="173" y="762" on="0"/>
        <pt x="157" y="762" on="0"/>
        <pt x="140" y="762" on="0"/>
        <pt x="132" y="762" on="1"/>
        <pt x="132" y="754" on="0"/>
        <pt x="132" y="737" on="0"/>
        <pt x="132" y="721" on="0"/>
        <pt x="132" y="704" on="0"/>
        <pt x="132" y="696" on="1"/>
        <pt x="124" y="696" on="0"/>
        <pt x="107" y="696" on="0"/>
        <pt x="91" y="696" on="0"/>
        <pt x="74" y="696" on="0"/>
        <pt x="66" y="696" on="1"/>
        <pt x="66" y="679" on="0"/>
        <pt x="66" y="646" on="0"/>
        <pt x="66" y="613" on="0"/>
        <pt x="66" y="580" on="0"/>
        <pt x="66" y="564" on="1"/>
        <pt x="58" y="564" on="0"/>
        <pt x="41" y="564" on="0"/>
        <pt x="25" y="564" on="0"/>
        <pt x="8" y="564" on="0"/>
        <pt x="0" y="564" on="1"/>
        <pt x="0" y="535" on="0"/>
        <pt x="0" y="477" on="0"/>
        <pt x="0" y="419" on="0"/>
        <pt x="0" y="361" on="0"/>
        <pt x="0" y="332" on="1"/>
        <pt x="83" y="332" on="0"/>
        <pt x="248" y="332" on="0"/>
        <pt x="413" y="332" on="0"/>
        <pt x="578" y="332" on="0"/>
        <pt x="661" y="332" on="1"/>
        <pt x="661" y="299" on="1"/>
        <pt x="669" y="299" on="0"/>
        <pt x="685" y="299" on="0"/>
        <pt x="702" y="299" on="0"/>
        <pt x="718" y="299" on="0"/>
        <pt x="727" y="299" on="1"/>
        <pt x="727" y="291" on="0"/>
        <pt x="727" y="275" on="0"/>
        <pt x="727" y="258" on="0"/>
        <pt x="727" y="242" on="0"/>
        <pt x="727" y="233" on="1"/>
        <pt x="735" y="233" on="0"/>
        <pt x="751" y="233" on="0"/>
        <pt x="768" y="233" on="0"/>
        <pt x="785" y="233" on="0"/>
        <pt x="793" y="233" on="1"/>
        <pt x="793" y="217" on="0"/>
        <pt x="793" y="184" on="0"/>
        <pt x="793" y="151" on="0"/>
        <pt x="793" y="118" on="0"/>
        <pt x="793" y="101" on="1"/>
        <pt x="694" y="101" on="0"/>
        <pt x="495" y="101" on="0"/>
        <pt x="297" y="101" on="0"/>
        <pt x="99" y="101" on="0"/>
        <pt x="0" y="101" on="1"/>
        <pt x="0" y="81" on="0"/>
        <pt x="0" y="39" on="0"/>
        <pt x="0" y="-2" on="0"/>
        <pt x="0" y="-43" on="0"/>
        <pt x="0" y="-64" on="1"/>
        <pt x="157" y="-64" on="0"/>
        <pt x="471" y="-64" on="0"/>
        <pt x="785" y="-64" on="0"/>
        <pt x="1098" y="-64" on="0"/>
        <pt x="1255" y="-64" on="1"/>
        <pt x="1255" y="-27" on="0"/>
        <pt x="1255" y="47" on="0"/>
        <pt x="1255" y="122" on="0"/>
        <pt x="1255" y="196" on="0"/>
        <pt x="1255" y="233" on="1"/>
        <pt x="1222" y="233" on="1"/>
      </contour>
    </TTGlyph>
    <TTGlyph name="seven" xMin="0" yMin="-64" xMax="1255" yMax="960">
      <contour>
        <pt x="1222" y="960" on="1"/>
        <pt x="1069" y="960" on="0"/>
        <pt x="764" y="960" on="0"/>
        <pt x="458" y="960" on="0"/>
        <pt x="153" y="960" on="0"/>
        <pt x="0" y="960" on="1"/>
        <pt x="0" y="948" on="0"/>
        <pt x="0" y="923" on="0"/>
        <pt x="0" y="898" on="0"/>
        <pt x="0" y="873" on="0"/>
        <pt x="0" y="861" on="1"/>
        <pt x="99" y="861" on="0"/>
        <pt x="297" y="861" on="0"/>
        <pt x="495" y="861" on="0"/>
        <pt x="694" y="861" on="0"/>
        <pt x="793" y="861" on="1"/>
        <pt x="793" y="853" on="0"/>
        <pt x="793" y="836" on="0"/>
        <pt x="793" y="820" on="0"/>
        <pt x="793" y="803" on="0"/>
        <pt x="793" y="795" on="1"/>
        <pt x="785" y="795" on="0"/>
        <pt x="768" y="795" on="0"/>
        <pt x="751" y="795" on="0"/>
        <pt x="735" y="795" on="0"/>
        <pt x="727" y="795" on="1"/>
        <pt x="727" y="787" on="0"/>
        <pt x="727" y="770" on="0"/>
        <pt x="727" y="754" on="0"/>
        <pt x="727" y="737" on="0"/>
        <pt x="727" y="729" on="1"/>
        <pt x="718" y="729" on="0"/>
        <pt x="702" y="729" on="0"/>
        <pt x="685" y="729" on="0"/>
        <pt x="669" y="729" on="0"/>
        <pt x="661" y="729" on="1"/>
        <pt x="661" y="721" on="0"/>
        <pt x="661" y="704" on="0"/>
        <pt x="661" y="687" on="0"/>
        <pt x="661" y="671" on="0"/>
        <pt x="661" y="663" on="1"/>
        <pt x="652" y="663" on="0"/>
        <pt x="636" y="663" on="0"/>
        <pt x="619" y="663" on="0"/>
        <pt x="603" y="663" on="0"/>
        <pt x="595" y="663" on="1"/>
        <pt x="595" y="654" on="0"/>
        <pt x="595" y="638" on="0"/>
        <pt x="595" y="621" on="0"/>
        <pt x="595" y="605" on="0"/>
        <pt x="595" y="597" on="1"/>
        <pt x="586" y="597" on="0"/>
        <pt x="570" y="597" on="0"/>
        <pt x="553" y="597" on="0"/>
        <pt x="537" y="597" on="0"/>
        <pt x="529" y="597" on="1"/>
        <pt x="529" y="588" on="0"/>
        <pt x="529" y="572" on="0"/>
        <pt x="529" y="555" on="0"/>
        <pt x="529" y="539" on="0"/>
        <pt x="529" y="531" on="1"/>
        <pt x="520" y="531" on="0"/>
        <pt x="504" y="531" on="0"/>
        <pt x="487" y="531" on="0"/>
        <pt x="471" y="531" on="0"/>
        <pt x="462" y="531" on="1"/>
        <pt x="462" y="522" on="0"/>
        <pt x="462" y="506" on="0"/>
        <pt x="462" y="489" on="0"/>
        <pt x="462" y="473" on="0"/>
        <pt x="462" y="465" on="1"/>
        <pt x="454" y="465" on="0"/>
        <pt x="438" y="465" on="0"/>
        <pt x="421" y="465" on="0"/>
        <pt x="405" y="465" on="0"/>
        <pt x="396" y="465" on="1"/>
        <pt x="396" y="456" on="0"/>
        <pt x="396" y="440" on="0"/>
        <pt x="396" y="423" on="0"/>
        <pt x="396" y="407" on="0"/>
        <pt x="396" y="398" on="1"/>
        <pt x="388" y="398" on="0"/>
        <pt x="372" y="398" on="0"/>
        <pt x="355" y="398" on="0"/>
        <pt x="339" y="398" on="0"/>
        <pt x="330" y="398" on="1"/>
        <pt x="330" y="390" on="0"/>
        <pt x="330" y="374" on="0"/>
        <pt x="330" y="357" on="0"/>
        <pt x="330" y="341" on="0"/>
        <pt x="330" y="332" on="1"/>
        <pt x="322" y="332" on="0"/>
        <pt x="306" y="332" on="0"/>
        <pt x="289" y="332" on="0"/>
        <pt x="273" y="332" on="0"/>
        <pt x="264" y="332" on="1"/>
        <pt x="264" y="324" on="0"/>
        <pt x="264" y="308" on="0"/>
        <pt x="264" y="291" on="0"/>
        <pt x="264" y="275" on="0"/>
        <pt x="264" y="266" on="1"/>
        <pt x="256" y="266" on="0"/>
        <pt x="239" y="266" on="0"/>
        <pt x="223" y="266" on="0"/>
        <pt x="206" y="266" on="0"/>
        <pt x="198" y="266" on="1"/>
        <pt x="198" y="258" on="0"/>
        <pt x="198" y="242" on="0"/>
        <pt x="198" y="225" on="0"/>
        <pt x="198" y="209" on="0"/>
        <pt x="198" y="200" on="1"/>
        <pt x="190" y="200" on="0"/>
        <pt x="173" y="200" on="0"/>
        <pt x="157" y="200" on="0"/>
        <pt x="140" y="200" on="0"/>
        <pt x="132" y="200" on="1"/>
        <pt x="132" y="192" on="0"/>
        <pt x="132" y="175" on="0"/>
        <pt x="132" y="159" on="0"/>
        <pt x="132" y="142" on="0"/>
        <pt x="132" y="134" on="1"/>
        <pt x="124" y="134" on="0"/>
        <pt x="107" y="134" on="0"/>
        <pt x="91" y="134" on="0"/>
        <pt x="74" y="134" on="0"/>
        <pt x="66" y="134" on="1"/>
        <pt x="66" y="126" on="0"/>
        <pt x="66" y="109" on="0"/>
        <pt x="66" y="93" on="0"/>
        <pt x="66" y="76" on="0"/>
        <pt x="66" y="68" on="1"/>
        <pt x="58" y="68" on="0"/>
        <pt x="41" y="68" on="0"/>
        <pt x="25" y="68" on="0"/>
        <pt x="8" y="68" on="0"/>
        <pt x="0" y="68" on="1"/>
        <pt x="0" y="52" on="0"/>
        <pt x="0" y="19" on="0"/>
        <pt x="0" y="-14" on="0"/>
        <pt x="0" y="-47" on="0"/>
        <pt x="0" y="-64" on="1"/>
        <pt x="41" y="-64" on="0"/>
        <pt x="124" y="-64" on="0"/>
        <pt x="206" y="-64" on="0"/>
        <pt x="289" y="-64" on="0"/>
        <pt x="330" y="-64" on="1"/>
        <pt x="330" y="-31" on="1"/>
        <pt x="339" y="-31" on="0"/>
        <pt x="355" y="-31" on="0"/>
        <pt x="372" y="-31" on="0"/>
        <pt x="388" y="-31" on="0"/>
        <pt x="396" y="-31" on="1"/>
        <pt x="396" y="-23" on="0"/>
        <pt x="396" y="-6" on="0"/>
        <pt x="396" y="10" on="0"/>
        <pt x="396" y="27" on="0"/>
        <pt x="396" y="35" on="1"/>
        <pt x="405" y="35" on="0"/>
        <pt x="421" y="35" on="0"/>
        <pt x="438" y="35" on="0"/>
        <pt x="454" y="35" on="0"/>
        <pt x="462" y="35" on="1"/>
        <pt x="462" y="43" on="0"/>
        <pt x="462" y="60" on="0"/>
        <pt x="462" y="76" on="0"/>
        <pt x="462" y="93" on="0"/>
        <pt x="462" y="101" on="1"/>
        <pt x="471" y="101" on="0"/>
        <pt x="487" y="101" on="0"/>
        <pt x="504" y="101" on="0"/>
        <pt x="520" y="101" on="0"/>
        <pt x="529" y="101" on="1"/>
        <pt x="529" y="109" on="0"/>
        <pt x="529" y="126" on="0"/>
        <pt x="529" y="142" on="0"/>
        <pt x="529" y="159" on="0"/>
        <pt x="529" y="167" on="1"/>
        <pt x="537" y="167" on="0"/>
        <pt x="553" y="167" on="0"/>
        <pt x="570" y="167" on="0"/>
        <pt x="586" y="167" on="0"/>
        <pt x="595" y="167" on="1"/>
        <pt x="595" y="175" on="0"/>
        <pt x="595" y="192" on="0"/>
        <pt x="595" y="209" on="0"/>
        <pt x="595" y="225" on="0"/>
        <pt x="595" y="233" on="1"/>
        <pt x="603" y="233" on="0"/>
        <pt x="619" y="233" on="0"/>
        <pt x="636" y="233" on="0"/>
        <pt x="652" y="233" on="0"/>
        <pt x="661" y="233" on="1"/>
        <pt x="661" y="242" on="0"/>
        <pt x="661" y="258" on="0"/>
        <pt x="661" y="275" on="0"/>
        <pt x="661" y="291" on="0"/>
        <pt x="661" y="299" on="1"/>
        <pt x="669" y="299" on="0"/>
        <pt x="685" y="299" on="0"/>
        <pt x="702" y="299" on="0"/>
        <pt x="718" y="299" on="0"/>
        <pt x="727" y="299" on="1"/>
        <pt x="727" y="308" on="0"/>
        <pt x="727" y="324" on="0"/>
        <pt x="727" y="341" on="0"/>
        <pt x="727" y="357" on="0"/>
        <pt x="727" y="365" on="1"/>
        <pt x="735" y="365" on="0"/>
        <pt x="751" y="365" on="0"/>
        <pt x="768" y="365" on="0"/>
        <pt x="785" y="365" on="0"/>
        <pt x="793" y="365" on="1"/>
        <pt x="793" y="374" on="0"/>
        <pt x="793" y="390" on="0"/>
        <pt x="793" y="407" on="0"/>
        <pt x="793" y="423" on="0"/>
        <pt x="793" y="431" on="1"/>
        <pt x="801" y="431" on="0"/>
        <pt x="818" y="431" on="0"/>
        <pt x="834" y="431" on="0"/>
        <pt x="851" y="431" on="0"/>
        <pt x="859" y="431" on="1"/>
        <pt x="859" y="440" on="0"/>
        <pt x="859" y="456" on="0"/>
        <pt x="859" y="473" on="0"/>
        <pt x="859" y="489" on="0"/>
        <pt x="859" y="498" on="1"/>
        <pt x="867" y="498" on="0"/>
        <pt x="884" y="498" on="0"/>
        <pt x="900" y="498" on="0"/>
        <pt x="917" y="498" on="0"/>
        <pt x="925" y="498" on="1"/>
        <pt x="925" y="506" on="0"/>
        <pt x="925" y="522" on="0"/>
        <pt x="925" y="539" on="0"/>
        <pt x="925" y="555" on="0"/>
        <pt x="925" y="564" on="1"/>
        <pt x="933" y="564" on="0"/>
        <pt x="950" y="564" on="0"/>
        <pt x="966" y="564" on="0"/>
        <pt x="983" y="564" on="0"/>
        <pt x="991" y="564" on="1"/>
        <pt x="991" y="572" on="0"/>
        <pt x="991" y="588" on="0"/>
        <pt x="991" y="605" on="0"/>
        <pt x="991" y="621" on="0"/>
        <pt x="991" y="630" on="1"/>
        <pt x="999" y="630" on="0"/>
        <pt x="1016" y="630" on="0"/>
        <pt x="1032" y="630" on="0"/>
        <pt x="1049" y="630" on="0"/>
        <pt x="1057" y="630" on="1"/>
        <pt x="1057" y="638" on="0"/>
        <pt x="1057" y="654" on="0"/>
        <pt x="1057" y="671" on="0"/>
        <pt x="1057" y="687" on="0"/>
        <pt x="1057" y="696" on="1"/>
        <pt x="1065" y="696" on="0"/>
        <pt x="1082" y="696" on="0"/>
        <pt x="1098" y="696" on="0"/>
        <pt x="1115" y="696" on="0"/>
        <pt x="1123" y="696" on="1"/>
        <pt x="1123" y="704" on="0"/>
        <pt x="1123" y="721" on="0"/>
        <pt x="1123" y="737" on="0"/>
        <pt x="1123" y="754" on="0"/>
        <pt x="1123" y="762" on="1"/>
        <pt x="1131" y="762" on="0"/>
        <pt x="1148" y="762" on="0"/>
        <pt x="1164" y="762" on="0"/>
        <pt x="1181" y="762" on="0"/>
        <pt x="1189" y="762" on="1"/>
        <pt x="1189" y="770" on="0"/>
        <pt x="1189" y="787" on="0"/>
        <pt x="1189" y="803" on="0"/>
        <pt x="1189" y="820" on="0"/>
        <pt x="1189" y="828" on="1"/>
        <pt x="1197" y="828" on="0"/>
        <pt x="1214" y="828" on="0"/>
        <pt x="1230" y="828" on="0"/>
        <pt x="1247" y="828" on="0"/>
        <pt x="1255" y="828" on="1"/>
        <pt x="1255" y="844" on="0"/>
        <pt x="1255" y="877" on="0"/>
        <pt x="1255" y="910" on="0"/>
        <pt x="1255" y="943" on="0"/>
        <pt x="1255" y="960" on="1"/>
        <pt x="1222" y="960" on="1"/>
      </contour>
    </TTGlyph>
    <TTGlyph name="six" xMin="0" yMin="-64" xMax="1255" yMax="960">
      <contour>
        <pt x="1222" y="233" on="1"/>
        <pt x="1189" y="233" on="1"/>
        <pt x="1189" y="242" on="0"/>
        <pt x="1189" y="258" on="0"/>
        <pt x="1189" y="275" on="0"/>
        <pt x="1189" y="291" on="0"/>
        <pt x="1189" y="299" on="1"/>
        <pt x="1181" y="299" on="0"/>
        <pt x="1164" y="299" on="0"/>
        <pt x="1148" y="299" on="0"/>
        <pt x="1131" y="299" on="0"/>
        <pt x="1123" y="299" on="1"/>
        <pt x="1123" y="332" on="1"/>
        <pt x="1115" y="332" on="0"/>
        <pt x="1098" y="332" on="0"/>
        <pt x="1082" y="332" on="0"/>
        <pt x="1065" y="332" on="0"/>
        <pt x="1057" y="332" on="1"/>
        <pt x="1057" y="365" on="1"/>
        <pt x="1049" y="365" on="0"/>
        <pt x="1032" y="365" on="0"/>
        <pt x="1016" y="365" on="0"/>
        <pt x="999" y="365" on="0"/>
        <pt x="991" y="365" on="1"/>
        <pt x="991" y="398" on="1"/>
        <pt x="974" y="398" on="0"/>
        <pt x="941" y="398" on="0"/>
        <pt x="908" y="398" on="0"/>
        <pt x="875" y="398" on="0"/>
        <pt x="859" y="398" on="1"/>
        <pt x="859" y="431" on="1"/>
        <pt x="809" y="431" on="0"/>
        <pt x="710" y="431" on="0"/>
        <pt x="611" y="431" on="0"/>
        <pt x="512" y="431" on="0"/>
        <pt x="462" y="431" on="1"/>
        <pt x="462" y="473" on="0"/>
        <pt x="462" y="555" on="0"/>
        <pt x="462" y="638" on="0"/>
        <pt x="462" y="721" on="0"/>
        <pt x="462" y="762" on="1"/>
        <pt x="471" y="762" on="0"/>
        <pt x="487" y="762" on="0"/>
        <pt x="504" y="762" on="0"/>
        <pt x="520" y="762" on="0"/>
        <pt x="529" y="762" on="1"/>
        <pt x="529" y="770" on="0"/>
        <pt x="529" y="787" on="0"/>
        <pt x="529" y="803" on="0"/>
        <pt x="529" y="820" on="0"/>
        <pt x="529" y="828" on="1"/>
        <pt x="537" y="828" on="0"/>
        <pt x="553" y="828" on="0"/>
        <pt x="570" y="828" on="0"/>
        <pt x="586" y="828" on="0"/>
        <pt x="595" y="828" on="1"/>
        <pt x="595" y="861" on="1"/>
        <pt x="636" y="861" on="0"/>
        <pt x="718" y="861" on="0"/>
        <pt x="801" y="861" on="0"/>
        <pt x="884" y="861" on="0"/>
        <pt x="925" y="861" on="1"/>
        <pt x="925" y="873" on="0"/>
        <pt x="925" y="898" on="0"/>
        <pt x="925" y="923" on="0"/>
        <pt x="925" y="948" on="0"/>
        <pt x="925" y="960" on="1"/>
        <pt x="875" y="960" on="0"/>
        <pt x="776" y="960" on="0"/>
        <pt x="677" y="960" on="0"/>
        <pt x="578" y="960" on="0"/>
        <pt x="529" y="960" on="1"/>
        <pt x="529" y="927" on="1"/>
        <pt x="512" y="927" on="0"/>
        <pt x="479" y="927" on="0"/>
        <pt x="446" y="927" on="0"/>
        <pt x="413" y="927" on="0"/>
        <pt x="396" y="927" on="1"/>
        <pt x="396" y="894" on="1"/>
        <pt x="388" y="894" on="0"/>
        <pt x="372" y="894" on="0"/>
        <pt x="355" y="894" on="0"/>
        <pt x="339" y="894" on="0"/>
        <pt x="330" y="894" on="1"/>
        <pt x="330" y="861" on="1"/>
        <pt x="322" y="861" on="0"/>
        <pt x="306" y="861" on="0"/>
        <pt x="289" y="861" on="0"/>
        <pt x="273" y="861" on="0"/>
        <pt x="264" y="861" on="1"/>
        <pt x="264" y="828" on="1"/>
        <pt x="256" y="828" on="0"/>
        <pt x="239" y="828" on="0"/>
        <pt x="223" y="828" on="0"/>
        <pt x="206" y="828" on="0"/>
        <pt x="198" y="828" on="1"/>
        <pt x="198" y="820" on="0"/>
        <pt x="198" y="803" on="0"/>
        <pt x="198" y="787" on="0"/>
        <pt x="198" y="770" on="0"/>
        <pt x="198" y="762" on="1"/>
        <pt x="190" y="762" on="0"/>
        <pt x="173" y="762" on="0"/>
        <pt x="157" y="762" on="0"/>
        <pt x="140" y="762" on="0"/>
        <pt x="132" y="762" on="1"/>
        <pt x="132" y="754" on="0"/>
        <pt x="132" y="737" on="0"/>
        <pt x="132" y="721" on="0"/>
        <pt x="132" y="704" on="0"/>
        <pt x="132" y="696" on="1"/>
        <pt x="124" y="696" on="0"/>
        <pt x="107" y="696" on="0"/>
        <pt x="91" y="696" on="0"/>
        <pt x="74" y="696" on="0"/>
        <pt x="66" y="696" on="1"/>
        <pt x="66" y="679" on="0"/>
        <pt x="66" y="646" on="0"/>
        <pt x="66" y="613" on="0"/>
        <pt x="66" y="580" on="0"/>
        <pt x="66" y="564" on="1"/>
        <pt x="58" y="564" on="0"/>
        <pt x="41" y="564" on="0"/>
        <pt x="25" y="564" on="0"/>
        <pt x="8" y="564" on="0"/>
        <pt x="0" y="564" on="1"/>
        <pt x="0" y="485" on="0"/>
        <pt x="0" y="328" on="0"/>
        <pt x="0" y="171" on="0"/>
        <pt x="0" y="14" on="0"/>
        <pt x="0" y="-64" on="1"/>
        <pt x="157" y="-64" on="0"/>
        <pt x="471" y="-64" on="0"/>
        <pt x="785" y="-64" on="0"/>
        <pt x="1098" y="-64" on="0"/>
        <pt x="1255" y="-64" on="1"/>
        <pt x="1255" y="-27" on="0"/>
        <pt x="1255" y="47" on="0"/>
        <pt x="1255" y="122" on="0"/>
        <pt x="1255" y="196" on="0"/>
        <pt x="1255" y="233" on="1"/>
        <pt x="1222" y="233" on="1"/>
      </contour>
      <contour>
        <pt x="793" y="167" on="1"/>
        <pt x="793" y="101" on="1"/>
        <pt x="462" y="101" on="1"/>
        <pt x="462" y="332" on="1"/>
        <pt x="661" y="332" on="1"/>
        <pt x="661" y="299" on="1"/>
        <pt x="727" y="299" on="1"/>
        <pt x="727" y="233" on="1"/>
        <pt x="793" y="233" on="1"/>
        <pt x="793" y="167" on="1"/>
      </contour>
    </TTGlyph>
    <TTGlyph name="slash" xMin="0" yMin="-64" xMax="1255" yMax="960">
      <contour>
        <pt x="1222" y="960" on="1"/>
        <pt x="1185" y="960" on="0"/>
        <pt x="1111" y="960" on="0"/>
        <pt x="1036" y="960" on="0"/>
        <pt x="962" y="960" on="0"/>
        <pt x="925" y="960" on="1"/>
        <pt x="925" y="927" on="1"/>
        <pt x="917" y="927" on="0"/>
        <pt x="900" y="927" on="0"/>
        <pt x="884" y="927" on="0"/>
        <pt x="867" y="927" on="0"/>
        <pt x="859" y="927" on="1"/>
        <pt x="859" y="919" on="0"/>
        <pt x="859" y="902" on="0"/>
        <pt x="859" y="886" on="0"/>
        <pt x="859" y="869" on="0"/>
        <pt x="859" y="861" on="1"/>
        <pt x="851" y="861" on="0"/>
        <pt x="834" y="861" on="0"/>
        <pt x="818" y="861" on="0"/>
        <pt x="801" y="861" on="0"/>
        <pt x="793" y="861" on="1"/>
        <pt x="793" y="853" on="0"/>
        <pt x="793" y="836" on="0"/>
        <pt x="793" y="820" on="0"/>
        <pt x="793" y="803" on="0"/>
        <pt x="793" y="795" on="1"/>
        <pt x="785" y="795" on="0"/>
        <pt x="768" y="795" on="0"/>
        <pt x="751" y="795" on="0"/>
        <pt x="735" y="795" on="0"/>
        <pt x="727" y="795" on="1"/>
        <pt x="727" y="787" on="0"/>
        <pt x="727" y="770" on="0"/>
        <pt x="727" y="754" on="0"/>
        <pt x="727" y="737" on="0"/>
        <pt x="727" y="729" on="1"/>
        <pt x="718" y="729" on="0"/>
        <pt x="702" y="729" on="0"/>
        <pt x="685" y="729" on="0"/>
        <pt x="669" y="729" on="0"/>
        <pt x="661" y="729" on="1"/>
        <pt x="661" y="721" on="0"/>
        <pt x="661" y="704" on="0"/>
        <pt x="661" y="687" on="0"/>
        <pt x="661" y="671" on="0"/>
        <pt x="661" y="663" on="1"/>
        <pt x="652" y="663" on="0"/>
        <pt x="636" y="663" on="0"/>
        <pt x="619" y="663" on="0"/>
        <pt x="603" y="663" on="0"/>
        <pt x="595" y="663" on="1"/>
        <pt x="595" y="654" on="0"/>
        <pt x="595" y="638" on="0"/>
        <pt x="595" y="621" on="0"/>
        <pt x="595" y="605" on="0"/>
        <pt x="595" y="597" on="1"/>
        <pt x="586" y="597" on="0"/>
        <pt x="570" y="597" on="0"/>
        <pt x="553" y="597" on="0"/>
        <pt x="537" y="597" on="0"/>
        <pt x="529" y="597" on="1"/>
        <pt x="529" y="588" on="0"/>
        <pt x="529" y="572" on="0"/>
        <pt x="529" y="555" on="0"/>
        <pt x="529" y="539" on="0"/>
        <pt x="529" y="531" on="1"/>
        <pt x="520" y="531" on="0"/>
        <pt x="504" y="531" on="0"/>
        <pt x="487" y="531" on="0"/>
        <pt x="471" y="531" on="0"/>
        <pt x="462" y="531" on="1"/>
        <pt x="462" y="522" on="0"/>
        <pt x="462" y="506" on="0"/>
        <pt x="462" y="489" on="0"/>
        <pt x="462" y="473" on="0"/>
        <pt x="462" y="465" on="1"/>
        <pt x="454" y="465" on="0"/>
        <pt x="438" y="465" on="0"/>
        <pt x="421" y="465" on="0"/>
        <pt x="405" y="465" on="0"/>
        <pt x="396" y="465" on="1"/>
        <pt x="396" y="456" on="0"/>
        <pt x="396" y="440" on="0"/>
        <pt x="396" y="423" on="0"/>
        <pt x="396" y="407" on="0"/>
        <pt x="396" y="398" on="1"/>
        <pt x="388" y="398" on="0"/>
        <pt x="372" y="398" on="0"/>
        <pt x="355" y="398" on="0"/>
        <pt x="339" y="398" on="0"/>
        <pt x="330" y="398" on="1"/>
        <pt x="330" y="390" on="0"/>
        <pt x="330" y="374" on="0"/>
        <pt x="330" y="357" on="0"/>
        <pt x="330" y="341" on="0"/>
        <pt x="330" y="332" on="1"/>
        <pt x="322" y="332" on="0"/>
        <pt x="306" y="332" on="0"/>
        <pt x="289" y="332" on="0"/>
        <pt x="273" y="332" on="0"/>
        <pt x="264" y="332" on="1"/>
        <pt x="264" y="324" on="0"/>
        <pt x="264" y="308" on="0"/>
        <pt x="264" y="291" on="0"/>
        <pt x="264" y="275" on="0"/>
        <pt x="264" y="266" on="1"/>
        <pt x="256" y="266" on="0"/>
        <pt x="239" y="266" on="0"/>
        <pt x="223" y="266" on="0"/>
        <pt x="206" y="266" on="0"/>
        <pt x="198" y="266" on="1"/>
        <pt x="198" y="258" on="0"/>
        <pt x="198" y="242" on="0"/>
        <pt x="198" y="225" on="0"/>
        <pt x="198" y="209" on="0"/>
        <pt x="198" y="200" on="1"/>
        <pt x="190" y="200" on="0"/>
        <pt x="173" y="200" on="0"/>
        <pt x="157" y="200" on="0"/>
        <pt x="140" y="200" on="0"/>
        <pt x="132" y="200" on="1"/>
        <pt x="132" y="192" on="0"/>
        <pt x="132" y="175" on="0"/>
        <pt x="132" y="159" on="0"/>
        <pt x="132" y="142" on="0"/>
        <pt x="132" y="134" on="1"/>
        <pt x="124" y="134" on="0"/>
        <pt x="107" y="134" on="0"/>
        <pt x="91" y="134" on="0"/>
        <pt x="74" y="134" on="0"/>
        <pt x="66" y="134" on="1"/>
        <pt x="66" y="126" on="0"/>
        <pt x="66" y="109" on="0"/>
        <pt x="66" y="93" on="0"/>
        <pt x="66" y="76" on="0"/>
        <pt x="66" y="68" on="1"/>
        <pt x="58" y="68" on="0"/>
        <pt x="41" y="68" on="0"/>
        <pt x="25" y="68" on="0"/>
        <pt x="8" y="68" on="0"/>
        <pt x="0" y="68" on="1"/>
        <pt x="0" y="52" on="0"/>
        <pt x="0" y="19" on="0"/>
        <pt x="0" y="-14" on="0"/>
        <pt x="0" y="-47" on="0"/>
        <pt x="0" y="-64" on="1"/>
        <pt x="41" y="-64" on="0"/>
        <pt x="124" y="-64" on="0"/>
        <pt x="206" y="-64" on="0"/>
        <pt x="289" y="-64" on="0"/>
        <pt x="330" y="-64" on="1"/>
        <pt x="330" y="-31" on="1"/>
        <pt x="339" y="-31" on="0"/>
        <pt x="355" y="-31" on="0"/>
        <pt x="372" y="-31" on="0"/>
        <pt x="388" y="-31" on="0"/>
        <pt x="396" y="-31" on="1"/>
        <pt x="396" y="-23" on="0"/>
        <pt x="396" y="-6" on="0"/>
        <pt x="396" y="10" on="0"/>
        <pt x="396" y="27" on="0"/>
        <pt x="396" y="35" on="1"/>
        <pt x="405" y="35" on="0"/>
        <pt x="421" y="35" on="0"/>
        <pt x="438" y="35" on="0"/>
        <pt x="454" y="35" on="0"/>
        <pt x="462" y="35" on="1"/>
        <pt x="462" y="43" on="0"/>
        <pt x="462" y="60" on="0"/>
        <pt x="462" y="76" on="0"/>
        <pt x="462" y="93" on="0"/>
        <pt x="462" y="101" on="1"/>
        <pt x="471" y="101" on="0"/>
        <pt x="487" y="101" on="0"/>
        <pt x="504" y="101" on="0"/>
        <pt x="520" y="101" on="0"/>
        <pt x="529" y="101" on="1"/>
        <pt x="529" y="109" on="0"/>
        <pt x="529" y="126" on="0"/>
        <pt x="529" y="142" on="0"/>
        <pt x="529" y="159" on="0"/>
        <pt x="529" y="167" on="1"/>
        <pt x="537" y="167" on="0"/>
        <pt x="553" y="167" on="0"/>
        <pt x="570" y="167" on="0"/>
        <pt x="586" y="167" on="0"/>
        <pt x="595" y="167" on="1"/>
        <pt x="595" y="175" on="0"/>
        <pt x="595" y="192" on="0"/>
        <pt x="595" y="209" on="0"/>
        <pt x="595" y="225" on="0"/>
        <pt x="595" y="233" on="1"/>
        <pt x="603" y="233" on="0"/>
        <pt x="619" y="233" on="0"/>
        <pt x="636" y="233" on="0"/>
        <pt x="652" y="233" on="0"/>
        <pt x="661" y="233" on="1"/>
        <pt x="661" y="242" on="0"/>
        <pt x="661" y="258" on="0"/>
        <pt x="661" y="275" on="0"/>
        <pt x="661" y="291" on="0"/>
        <pt x="661" y="299" on="1"/>
        <pt x="669" y="299" on="0"/>
        <pt x="685" y="299" on="0"/>
        <pt x="702" y="299" on="0"/>
        <pt x="718" y="299" on="0"/>
        <pt x="727" y="299" on="1"/>
        <pt x="727" y="308" on="0"/>
        <pt x="727" y="324" on="0"/>
        <pt x="727" y="341" on="0"/>
        <pt x="727" y="357" on="0"/>
        <pt x="727" y="365" on="1"/>
        <pt x="735" y="365" on="0"/>
        <pt x="751" y="365" on="0"/>
        <pt x="768" y="365" on="0"/>
        <pt x="785" y="365" on="0"/>
        <pt x="793" y="365" on="1"/>
        <pt x="793" y="374" on="0"/>
        <pt x="793" y="390" on="0"/>
        <pt x="793" y="407" on="0"/>
        <pt x="793" y="423" on="0"/>
        <pt x="793" y="431" on="1"/>
        <pt x="801" y="431" on="0"/>
        <pt x="818" y="431" on="0"/>
        <pt x="834" y="431" on="0"/>
        <pt x="851" y="431" on="0"/>
        <pt x="859" y="431" on="1"/>
        <pt x="859" y="440" on="0"/>
        <pt x="859" y="456" on="0"/>
        <pt x="859" y="473" on="0"/>
        <pt x="859" y="489" on="0"/>
        <pt x="859" y="498" on="1"/>
        <pt x="867" y="498" on="0"/>
        <pt x="884" y="498" on="0"/>
        <pt x="900" y="498" on="0"/>
        <pt x="917" y="498" on="0"/>
        <pt x="925" y="498" on="1"/>
        <pt x="925" y="506" on="0"/>
        <pt x="925" y="522" on="0"/>
        <pt x="925" y="539" on="0"/>
        <pt x="925" y="555" on="0"/>
        <pt x="925" y="564" on="1"/>
        <pt x="933" y="564" on="0"/>
        <pt x="950" y="564" on="0"/>
        <pt x="966" y="564" on="0"/>
        <pt x="983" y="564" on="0"/>
        <pt x="991" y="564" on="1"/>
        <pt x="991" y="572" on="0"/>
        <pt x="991" y="588" on="0"/>
        <pt x="991" y="605" on="0"/>
        <pt x="991" y="621" on="0"/>
        <pt x="991" y="630" on="1"/>
        <pt x="999" y="630" on="0"/>
        <pt x="1016" y="630" on="0"/>
        <pt x="1032" y="630" on="0"/>
        <pt x="1049" y="630" on="0"/>
        <pt x="1057" y="630" on="1"/>
        <pt x="1057" y="638" on="0"/>
        <pt x="1057" y="654" on="0"/>
        <pt x="1057" y="671" on="0"/>
        <pt x="1057" y="687" on="0"/>
        <pt x="1057" y="696" on="1"/>
        <pt x="1065" y="696" on="0"/>
        <pt x="1082" y="696" on="0"/>
        <pt x="1098" y="696" on="0"/>
        <pt x="1115" y="696" on="0"/>
        <pt x="1123" y="696" on="1"/>
        <pt x="1123" y="704" on="0"/>
        <pt x="1123" y="721" on="0"/>
        <pt x="1123" y="737" on="0"/>
        <pt x="1123" y="754" on="0"/>
        <pt x="1123" y="762" on="1"/>
        <pt x="1131" y="762" on="0"/>
        <pt x="1148" y="762" on="0"/>
        <pt x="1164" y="762" on="0"/>
        <pt x="1181" y="762" on="0"/>
        <pt x="1189" y="762" on="1"/>
        <pt x="1189" y="770" on="0"/>
        <pt x="1189" y="787" on="0"/>
        <pt x="1189" y="803" on="0"/>
        <pt x="1189" y="820" on="0"/>
        <pt x="1189" y="828" on="1"/>
        <pt x="1197" y="828" on="0"/>
        <pt x="1214" y="828" on="0"/>
        <pt x="1230" y="828" on="0"/>
        <pt x="1247" y="828" on="0"/>
        <pt x="1255" y="828" on="1"/>
        <pt x="1255" y="844" on="0"/>
        <pt x="1255" y="877" on="0"/>
        <pt x="1255" y="910" on="0"/>
        <pt x="1255" y="943" on="0"/>
        <pt x="1255" y="960" on="1"/>
        <pt x="1222" y="960" on="1"/>
      </contour>
    </TTGlyph>
    <TTGlyph name="space" xMin="0" yMin="0" xMax="0" yMax="0">
      <contour>
        <pt x="0" y="0" on="1"/>
        <pt x="0" y="0" on="1"/>
        <pt x="0" y="0" on="1"/>
      </contour>
    </TTGlyph>
    <TTGlyph name="t" xMin="0" yMin="-64" xMax="991" yMax="960">
      <contour>
        <pt x="958" y="960" on="1"/>
        <pt x="838" y="960" on="0"/>
        <pt x="599" y="960" on="0"/>
        <pt x="359" y="960" on="0"/>
        <pt x="120" y="960" on="0"/>
        <pt x="0" y="960" on="1"/>
        <pt x="0" y="948" on="0"/>
        <pt x="0" y="923" on="0"/>
        <pt x="0" y="898" on="0"/>
        <pt x="0" y="873" on="0"/>
        <pt x="0" y="861" on="1"/>
        <pt x="33" y="861" on="0"/>
        <pt x="99" y="861" on="0"/>
        <pt x="165" y="861" on="0"/>
        <pt x="231" y="861" on="0"/>
        <pt x="264" y="861" on="1"/>
        <pt x="264" y="745" on="0"/>
        <pt x="264" y="514" on="0"/>
        <pt x="264" y="283" on="0"/>
        <pt x="264" y="52" on="0"/>
        <pt x="264" y="-64" on="1"/>
        <pt x="322" y="-64" on="0"/>
        <pt x="438" y="-64" on="0"/>
        <pt x="553" y="-64" on="0"/>
        <pt x="669" y="-64" on="0"/>
        <pt x="727" y="-64" on="1"/>
        <pt x="727" y="52" on="0"/>
        <pt x="727" y="283" on="0"/>
        <pt x="727" y="514" on="0"/>
        <pt x="727" y="745" on="0"/>
        <pt x="727" y="861" on="1"/>
        <pt x="760" y="861" on="0"/>
        <pt x="826" y="861" on="0"/>
        <pt x="892" y="861" on="0"/>
        <pt x="958" y="861" on="0"/>
        <pt x="991" y="861" on="1"/>
        <pt x="991" y="873" on="0"/>
        <pt x="991" y="898" on="0"/>
        <pt x="991" y="923" on="0"/>
        <pt x="991" y="948" on="0"/>
        <pt x="991" y="960" on="1"/>
        <pt x="958" y="960" on="1"/>
      </contour>
    </TTGlyph>
    <TTGlyph name="three" xMin="0" yMin="-64" xMax="1255" yMax="960">
      <contour>
        <pt x="1222" y="597" on="1"/>
        <pt x="1189" y="597" on="1"/>
        <pt x="1189" y="609" on="0"/>
        <pt x="1189" y="634" on="0"/>
        <pt x="1189" y="659" on="0"/>
        <pt x="1189" y="683" on="0"/>
        <pt x="1189" y="696" on="1"/>
        <pt x="1181" y="696" on="0"/>
        <pt x="1164" y="696" on="0"/>
        <pt x="1148" y="696" on="0"/>
        <pt x="1131" y="696" on="0"/>
        <pt x="1123" y="696" on="1"/>
        <pt x="1123" y="704" on="0"/>
        <pt x="1123" y="721" on="0"/>
        <pt x="1123" y="737" on="0"/>
        <pt x="1123" y="754" on="0"/>
        <pt x="1123" y="762" on="1"/>
        <pt x="1115" y="762" on="0"/>
        <pt x="1098" y="762" on="0"/>
        <pt x="1082" y="762" on="0"/>
        <pt x="1065" y="762" on="0"/>
        <pt x="1057" y="762" on="1"/>
        <pt x="1057" y="770" on="0"/>
        <pt x="1057" y="787" on="0"/>
        <pt x="1057" y="803" on="0"/>
        <pt x="1057" y="820" on="0"/>
        <pt x="1057" y="828" on="1"/>
        <pt x="1049" y="828" on="0"/>
        <pt x="1032" y="828" on="0"/>
        <pt x="1016" y="828" on="0"/>
        <pt x="999" y="828" on="0"/>
        <pt x="991" y="828" on="1"/>
        <pt x="991" y="861" on="1"/>
        <pt x="983" y="861" on="0"/>
        <pt x="966" y="861" on="0"/>
        <pt x="950" y="861" on="0"/>
        <pt x="933" y="861" on="0"/>
        <pt x="925" y="861" on="1"/>
        <pt x="925" y="894" on="1"/>
        <pt x="917" y="894" on="0"/>
        <pt x="900" y="894" on="0"/>
        <pt x="884" y="894" on="0"/>
        <pt x="867" y="894" on="0"/>
        <pt x="859" y="894" on="1"/>
        <pt x="859" y="927" on="1"/>
        <pt x="842" y="927" on="0"/>
        <pt x="809" y="927" on="0"/>
        <pt x="776" y="927" on="0"/>
        <pt x="743" y="927" on="0"/>
        <pt x="727" y="927" on="1"/>
        <pt x="727" y="960" on="1"/>
        <pt x="636" y="960" on="0"/>
        <pt x="454" y="960" on="0"/>
        <pt x="273" y="960" on="0"/>
        <pt x="91" y="960" on="0"/>
        <pt x="0" y="960" on="1"/>
        <pt x="0" y="948" on="0"/>
        <pt x="0" y="923" on="0"/>
        <pt x="0" y="898" on="0"/>
        <pt x="0" y="873" on="0"/>
        <pt x="0" y="861" on="1"/>
        <pt x="83" y="861" on="0"/>
        <pt x="248" y="861" on="0"/>
        <pt x="413" y="861" on="0"/>
        <pt x="578" y="861" on="0"/>
        <pt x="661" y="861" on="1"/>
        <pt x="661" y="828" on="1"/>
        <pt x="669" y="828" on="0"/>
        <pt x="685" y="828" on="0"/>
        <pt x="702" y="828" on="0"/>
        <pt x="718" y="828" on="0"/>
        <pt x="727" y="828" on="1"/>
        <pt x="727" y="820" on="0"/>
        <pt x="727" y="803" on="0"/>
        <pt x="727" y="787" on="0"/>
        <pt x="727" y="770" on="0"/>
        <pt x="727" y="762" on="1"/>
        <pt x="735" y="762" on="0"/>
        <pt x="751" y="762" on="0"/>
        <pt x="768" y="762" on="0"/>
        <pt x="785" y="762" on="0"/>
        <pt x="793" y="762" on="1"/>
        <pt x="793" y="721" on="0"/>
        <pt x="793" y="638" on="0"/>
        <pt x="793" y="555" on="0"/>
        <pt x="793" y="473" on="0"/>
        <pt x="793" y="431" on="1"/>
        <pt x="743" y="431" on="0"/>
        <pt x="644" y="431" on="0"/>
        <pt x="545" y="431" on="0"/>
        <pt x="446" y="431" on="0"/>
        <pt x="396" y="431" on="1"/>
        <pt x="396" y="419" on="0"/>
        <pt x="396" y="394" on="0"/>
        <pt x="396" y="370" on="0"/>
        <pt x="396" y="345" on="0"/>
        <pt x="396" y="332" on="1"/>
        <pt x="429" y="332" on="0"/>
        <pt x="495" y="332" on="0"/>
        <pt x="562" y="332" on="0"/>
        <pt x="628" y="332" on="0"/>
        <pt x="661" y="332" on="1"/>
        <pt x="661" y="299" on="1"/>
        <pt x="669" y="299" on="0"/>
        <pt x="685" y="299" on="0"/>
        <pt x="702" y="299" on="0"/>
        <pt x="718" y="299" on="0"/>
        <pt x="727" y="299" on="1"/>
        <pt x="727" y="291" on="0"/>
        <pt x="727" y="275" on="0"/>
        <pt x="727" y="258" on="0"/>
        <pt x="727" y="242" on="0"/>
        <pt x="727" y="233" on="1"/>
        <pt x="735" y="233" on="0"/>
        <pt x="751" y="233" on="0"/>
        <pt x="768" y="233" on="0"/>
        <pt x="785" y="233" on="0"/>
        <pt x="793" y="233" on="1"/>
        <pt x="793" y="217" on="0"/>
        <pt x="793" y="184" on="0"/>
        <pt x="793" y="151" on="0"/>
        <pt x="793" y="118" on="0"/>
        <pt x="793" y="101" on="1"/>
        <pt x="694" y="101" on="0"/>
        <pt x="495" y="101" on="0"/>
        <pt x="297" y="101" on="0"/>
        <pt x="99" y="101" on="0"/>
        <pt x="0" y="101" on="1"/>
        <pt x="0" y="81" on="0"/>
        <pt x="0" y="39" on="0"/>
        <pt x="0" y="-2" on="0"/>
        <pt x="0" y="-43" on="0"/>
        <pt x="0" y="-64" on="1"/>
        <pt x="157" y="-64" on="0"/>
        <pt x="471" y="-64" on="0"/>
        <pt x="785" y="-64" on="0"/>
        <pt x="1098" y="-64" on="0"/>
        <pt x="1255" y="-64" on="1"/>
        <pt x="1255" y="-27" on="0"/>
        <pt x="1255" y="47" on="0"/>
        <pt x="1255" y="122" on="0"/>
        <pt x="1255" y="196" on="0"/>
        <pt x="1255" y="233" on="1"/>
        <pt x="1247" y="233" on="0"/>
        <pt x="1230" y="233" on="0"/>
        <pt x="1214" y="233" on="0"/>
        <pt x="1197" y="233" on="0"/>
        <pt x="1189" y="233" on="1"/>
        <pt x="1189" y="242" on="0"/>
        <pt x="1189" y="258" on="0"/>
        <pt x="1189" y="275" on="0"/>
        <pt x="1189" y="291" on="0"/>
        <pt x="1189" y="299" on="1"/>
        <pt x="1181" y="299" on="0"/>
        <pt x="1164" y="299" on="0"/>
        <pt x="1148" y="299" on="0"/>
        <pt x="1131" y="299" on="0"/>
        <pt x="1123" y="299" on="1"/>
        <pt x="1123" y="332" on="1"/>
        <pt x="1140" y="332" on="0"/>
        <pt x="1173" y="332" on="0"/>
        <pt x="1206" y="332" on="0"/>
        <pt x="1239" y="332" on="0"/>
        <pt x="1255" y="332" on="1"/>
        <pt x="1255" y="365" on="0"/>
        <pt x="1255" y="431" on="0"/>
        <pt x="1255" y="498" on="0"/>
        <pt x="1255" y="564" on="0"/>
        <pt x="1255" y="597" on="1"/>
        <pt x="1222" y="597" on="1"/>
      </contour>
    </TTGlyph>
    <TTGlyph name="two" xMin="0" yMin="-64" xMax="1255" yMax="960">
      <contour>
        <pt x="1222" y="597" on="1"/>
        <pt x="1189" y="597" on="1"/>
        <pt x="1189" y="609" on="0"/>
        <pt x="1189" y="634" on="0"/>
        <pt x="1189" y="659" on="0"/>
        <pt x="1189" y="683" on="0"/>
        <pt x="1189" y="696" on="1"/>
        <pt x="1181" y="696" on="0"/>
        <pt x="1164" y="696" on="0"/>
        <pt x="1148" y="696" on="0"/>
        <pt x="1131" y="696" on="0"/>
        <pt x="1123" y="696" on="1"/>
        <pt x="1123" y="704" on="0"/>
        <pt x="1123" y="721" on="0"/>
        <pt x="1123" y="737" on="0"/>
        <pt x="1123" y="754" on="0"/>
        <pt x="1123" y="762" on="1"/>
        <pt x="1115" y="762" on="0"/>
        <pt x="1098" y="762" on="0"/>
        <pt x="1082" y="762" on="0"/>
        <pt x="1065" y="762" on="0"/>
        <pt x="1057" y="762" on="1"/>
        <pt x="1057" y="770" on="0"/>
        <pt x="1057" y="787" on="0"/>
        <pt x="1057" y="803" on="0"/>
        <pt x="1057" y="820" on="0"/>
        <pt x="1057" y="828" on="1"/>
        <pt x="1049" y="828" on="0"/>
        <pt x="1032" y="828" on="0"/>
        <pt x="1016" y="828" on="0"/>
        <pt x="999" y="828" on="0"/>
        <pt x="991" y="828" on="1"/>
        <pt x="991" y="861" on="1"/>
        <pt x="983" y="861" on="0"/>
        <pt x="966" y="861" on="0"/>
        <pt x="950" y="861" on="0"/>
        <pt x="933" y="861" on="0"/>
        <pt x="925" y="861" on="1"/>
        <pt x="925" y="894" on="1"/>
        <pt x="917" y="894" on="0"/>
        <pt x="900" y="894" on="0"/>
        <pt x="884" y="894" on="0"/>
        <pt x="867" y="894" on="0"/>
        <pt x="859" y="894" on="1"/>
        <pt x="859" y="927" on="1"/>
        <pt x="842" y="927" on="0"/>
        <pt x="809" y="927" on="0"/>
        <pt x="776" y="927" on="0"/>
        <pt x="743" y="927" on="0"/>
        <pt x="727" y="927" on="1"/>
        <pt x="727" y="960" on="1"/>
        <pt x="636" y="960" on="0"/>
        <pt x="454" y="960" on="0"/>
        <pt x="273" y="960" on="0"/>
        <pt x="91" y="960" on="0"/>
        <pt x="0" y="960" on="1"/>
        <pt x="0" y="948" on="0"/>
        <pt x="0" y="923" on="0"/>
        <pt x="0" y="898" on="0"/>
        <pt x="0" y="873" on="0"/>
        <pt x="0" y="861" on="1"/>
        <pt x="83" y="861" on="0"/>
        <pt x="248" y="861" on="0"/>
        <pt x="413" y="861" on="0"/>
        <pt x="578" y="861" on="0"/>
        <pt x="661" y="861" on="1"/>
        <pt x="661" y="828" on="1"/>
        <pt x="669" y="828" on="0"/>
        <pt x="685" y="828" on="0"/>
        <pt x="702" y="828" on="0"/>
        <pt x="718" y="828" on="0"/>
        <pt x="727" y="828" on="1"/>
        <pt x="727" y="820" on="0"/>
        <pt x="727" y="803" on="0"/>
        <pt x="727" y="787" on="0"/>
        <pt x="727" y="770" on="0"/>
        <pt x="727" y="762" on="1"/>
        <pt x="735" y="762" on="0"/>
        <pt x="751" y="762" on="0"/>
        <pt x="768" y="762" on="0"/>
        <pt x="785" y="762" on="0"/>
        <pt x="793" y="762" on="1"/>
        <pt x="793" y="721" on="0"/>
        <pt x="793" y="638" on="0"/>
        <pt x="793" y="555" on="0"/>
        <pt x="793" y="473" on="0"/>
        <pt x="793" y="431" on="1"/>
        <pt x="751" y="431" on="0"/>
        <pt x="669" y="431" on="0"/>
        <pt x="586" y="431" on="0"/>
        <pt x="504" y="431" on="0"/>
        <pt x="462" y="431" on="1"/>
        <pt x="462" y="398" on="1"/>
        <pt x="446" y="398" on="0"/>
        <pt x="413" y="398" on="0"/>
        <pt x="380" y="398" on="0"/>
        <pt x="347" y="398" on="0"/>
        <pt x="330" y="398" on="1"/>
        <pt x="330" y="365" on="1"/>
        <pt x="322" y="365" on="0"/>
        <pt x="306" y="365" on="0"/>
        <pt x="289" y="365" on="0"/>
        <pt x="273" y="365" on="0"/>
        <pt x="264" y="365" on="1"/>
        <pt x="264" y="332" on="1"/>
        <pt x="256" y="332" on="0"/>
        <pt x="239" y="332" on="0"/>
        <pt x="223" y="332" on="0"/>
        <pt x="206" y="332" on="0"/>
        <pt x="198" y="332" on="1"/>
        <pt x="198" y="324" on="0"/>
        <pt x="198" y="308" on="0"/>
        <pt x="198" y="291" on="0"/>
        <pt x="198" y="275" on="0"/>
        <pt x="198" y="266" on="1"/>
        <pt x="190" y="266" on="0"/>
        <pt x="173" y="266" on="0"/>
        <pt x="157" y="266" on="0"/>
        <pt x="140" y="266" on="0"/>
        <pt x="132" y="266" on="1"/>
        <pt x="132" y="258" on="0"/>
        <pt x="132" y="242" on="0"/>
        <pt x="132" y="225" on="0"/>
        <pt x="132" y="209" on="0"/>
        <pt x="132" y="200" on="1"/>
        <pt x="124" y="200" on="0"/>
        <pt x="107" y="200" on="0"/>
        <pt x="91" y="200" on="0"/>
        <pt x="74" y="200" on="0"/>
        <pt x="66" y="200" on="1"/>
        <pt x="66" y="192" on="0"/>
        <pt x="66" y="175" on="0"/>
        <pt x="66" y="159" on="0"/>
        <pt x="66" y="142" on="0"/>
        <pt x="66" y="134" on="1"/>
        <pt x="58" y="134" on="0"/>
        <pt x="41" y="134" on="0"/>
        <pt x="25" y="134" on="0"/>
        <pt x="8" y="134" on="0"/>
        <pt x="0" y="134" on="1"/>
        <pt x="0" y="109" on="0"/>
        <pt x="0" y="60" on="0"/>
        <pt x="0" y="10" on="0"/>
        <pt x="0" y="-39" on="0"/>
        <pt x="0" y="-64" on="1"/>
        <pt x="157" y="-64" on="0"/>
        <pt x="471" y="-64" on="0"/>
        <pt x="785" y="-64" on="0"/>
        <pt x="1098" y="-64" on="0"/>
        <pt x="1255" y="-64" on="1"/>
        <pt x="1255" y="-43" on="0"/>
        <pt x="1255" y="-2" on="0"/>
        <pt x="1255" y="39" on="0"/>
        <pt x="1255" y="81" on="0"/>
        <pt x="1255" y="101" on="1"/>
        <pt x="1156" y="101" on="0"/>
        <pt x="958" y="101" on="0"/>
        <pt x="760" y="101" on="0"/>
        <pt x="562" y="101" on="0"/>
        <pt x="462" y="101" on="1"/>
        <pt x="462" y="118" on="0"/>
        <pt x="462" y="151" on="0"/>
        <pt x="462" y="184" on="0"/>
        <pt x="462" y="217" on="0"/>
        <pt x="462" y="233" on="1"/>
        <pt x="471" y="233" on="0"/>
        <pt x="487" y="233" on="0"/>
        <pt x="504" y="233" on="0"/>
        <pt x="520" y="233" on="0"/>
        <pt x="529" y="233" on="1"/>
        <pt x="529" y="242" on="0"/>
        <pt x="529" y="258" on="0"/>
        <pt x="529" y="275" on="0"/>
        <pt x="529" y="291" on="0"/>
        <pt x="529" y="299" on="1"/>
        <pt x="537" y="299" on="0"/>
        <pt x="553" y="299" on="0"/>
        <pt x="570" y="299" on="0"/>
        <pt x="586" y="299" on="0"/>
        <pt x="595" y="299" on="1"/>
        <pt x="595" y="332" on="1"/>
        <pt x="677" y="332" on="0"/>
        <pt x="842" y="332" on="0"/>
        <pt x="1007" y="332" on="0"/>
        <pt x="1173" y="332" on="0"/>
        <pt x="1255" y="332" on="1"/>
        <pt x="1255" y="365" on="0"/>
        <pt x="1255" y="431" on="0"/>
        <pt x="1255" y="498" on="0"/>
        <pt x="1255" y="564" on="0"/>
        <pt x="1255" y="597" on="1"/>
        <pt x="1222" y="597" on="1"/>
      </contour>
    </TTGlyph>
    <TTGlyph name="u" xMin="0" yMin="-64" xMax="1255" yMax="960">
      <contour>
        <pt x="1222" y="960" on="1"/>
        <pt x="1168" y="960" on="0"/>
        <pt x="1061" y="960" on="0"/>
        <pt x="953" y="960" on="0"/>
        <pt x="846" y="960" on="0"/>
        <pt x="792" y="960" on="1"/>
        <pt x="793" y="853" on="0"/>
        <pt x="792" y="638" on="0"/>
        <pt x="793" y="423" on="0"/>
        <pt x="792" y="209" on="0"/>
        <pt x="793" y="101" on="1"/>
        <pt x="750" y="101" on="0"/>
        <pt x="669" y="101" on="0"/>
        <pt x="585" y="101" on="0"/>
        <pt x="504" y="101" on="0"/>
        <pt x="461" y="101" on="1"/>
        <pt x="462" y="209" on="0"/>
        <pt x="461" y="423" on="0"/>
        <pt x="462" y="638" on="0"/>
        <pt x="461" y="853" on="0"/>
        <pt x="462" y="960" on="1"/>
        <pt x="404" y="960" on="0"/>
        <pt x="289" y="960" on="0"/>
        <pt x="172" y="960" on="0"/>
        <pt x="58" y="960" on="0"/>
        <pt x="-1" y="960" on="1"/>
        <pt x="0" y="832" on="0"/>
        <pt x="-1" y="576" on="0"/>
        <pt x="0" y="320" on="0"/>
        <pt x="-1" y="64" on="0"/>
        <pt x="0" y="-64" on="1"/>
        <pt x="156" y="-64" on="0"/>
        <pt x="471" y="-64" on="0"/>
        <pt x="784" y="-64" on="0"/>
        <pt x="1098" y="-64" on="0"/>
        <pt x="1254" y="-64" on="1"/>
        <pt x="1255" y="64" on="0"/>
        <pt x="1254" y="320" on="0"/>
        <pt x="1255" y="576" on="0"/>
        <pt x="1254" y="832" on="0"/>
        <pt x="1255" y="960" on="1"/>
        <pt x="1221" y="960" on="1"/>
      </contour>
    </TTGlyph>
    <TTGlyph name="v" xMin="0" yMin="-64" xMax="1255" yMax="960">
      <contour>
        <pt x="1222" y="960" on="1"/>
        <pt x="1168" y="960" on="0"/>
        <pt x="1061" y="960" on="0"/>
        <pt x="953" y="960" on="0"/>
        <pt x="846" y="960" on="0"/>
        <pt x="792" y="960" on="1"/>
        <pt x="793" y="861" on="0"/>
        <pt x="792" y="663" on="0"/>
        <pt x="793" y="465" on="0"/>
        <pt x="792" y="266" on="0"/>
        <pt x="793" y="167" on="1"/>
        <pt x="784" y="167" on="0"/>
        <pt x="768" y="167" on="0"/>
        <pt x="750" y="167" on="0"/>
        <pt x="735" y="167" on="0"/>
        <pt x="726" y="167" on="1"/>
        <pt x="727" y="134" on="1"/>
        <pt x="717" y="134" on="0"/>
        <pt x="702" y="134" on="0"/>
        <pt x="684" y="134" on="0"/>
        <pt x="669" y="134" on="0"/>
        <pt x="660" y="134" on="1"/>
        <pt x="661" y="101" on="1"/>
        <pt x="651" y="101" on="0"/>
        <pt x="636" y="101" on="0"/>
        <pt x="618" y="101" on="0"/>
        <pt x="603" y="101" on="0"/>
        <pt x="594" y="101" on="1"/>
        <pt x="595" y="134" on="1"/>
        <pt x="585" y="134" on="0"/>
        <pt x="570" y="134" on="0"/>
        <pt x="552" y="134" on="0"/>
        <pt x="537" y="134" on="0"/>
        <pt x="528" y="134" on="1"/>
        <pt x="529" y="167" on="1"/>
        <pt x="519" y="167" on="0"/>
        <pt x="504" y="167" on="0"/>
        <pt x="486" y="167" on="0"/>
        <pt x="471" y="167" on="0"/>
        <pt x="461" y="167" on="1"/>
        <pt x="462" y="266" on="0"/>
        <pt x="461" y="465" on="0"/>
        <pt x="462" y="663" on="0"/>
        <pt x="461" y="861" on="0"/>
        <pt x="462" y="960" on="1"/>
        <pt x="404" y="960" on="0"/>
        <pt x="289" y="960" on="0"/>
        <pt x="172" y="960" on="0"/>
        <pt x="58" y="960" on="0"/>
        <pt x="-1" y="960" on="1"/>
        <pt x="0" y="865" on="0"/>
        <pt x="-1" y="675" on="0"/>
        <pt x="0" y="485" on="0"/>
        <pt x="-1" y="295" on="0"/>
        <pt x="0" y="200" on="1"/>
        <pt x="7" y="200" on="0"/>
        <pt x="25" y="200" on="0"/>
        <pt x="40" y="200" on="0"/>
        <pt x="58" y="200" on="0"/>
        <pt x="65" y="200" on="1"/>
        <pt x="66" y="167" on="1"/>
        <pt x="73" y="167" on="0"/>
        <pt x="91" y="167" on="0"/>
        <pt x="106" y="167" on="0"/>
        <pt x="124" y="167" on="0"/>
        <pt x="131" y="167" on="1"/>
        <pt x="132" y="134" on="1"/>
        <pt x="139" y="134" on="0"/>
        <pt x="157" y="134" on="0"/>
        <pt x="172" y="134" on="0"/>
        <pt x="190" y="134" on="0"/>
        <pt x="197" y="134" on="1"/>
        <pt x="198" y="101" on="1"/>
        <pt x="205" y="101" on="0"/>
        <pt x="223" y="101" on="0"/>
        <pt x="238" y="101" on="0"/>
        <pt x="256" y="101" on="0"/>
        <pt x="263" y="101" on="1"/>
        <pt x="264" y="68" on="1"/>
        <pt x="272" y="68" on="0"/>
        <pt x="289" y="68" on="0"/>
        <pt x="305" y="68" on="0"/>
        <pt x="322" y="68" on="0"/>
        <pt x="329" y="68" on="1"/>
        <pt x="330" y="35" on="1"/>
        <pt x="338" y="35" on="0"/>
        <pt x="355" y="35" on="0"/>
        <pt x="371" y="35" on="0"/>
        <pt x="388" y="35" on="0"/>
        <pt x="395" y="35" on="1"/>
        <pt x="396" y="2" on="1"/>
        <pt x="404" y="2" on="0"/>
        <pt x="421" y="2" on="0"/>
        <pt x="437" y="2" on="0"/>
        <pt x="454" y="2" on="0"/>
        <pt x="461" y="2" on="1"/>
        <pt x="462" y="-31" on="1"/>
        <pt x="470" y="-31" on="0"/>
        <pt x="487" y="-31" on="0"/>
        <pt x="503" y="-31" on="0"/>
        <pt x="520" y="-31" on="0"/>
        <pt x="528" y="-31" on="1"/>
        <pt x="529" y="-64" on="1"/>
        <pt x="552" y="-64" on="0"/>
        <pt x="603" y="-64" on="0"/>
        <pt x="651" y="-64" on="0"/>
        <pt x="702" y="-64" on="0"/>
        <pt x="726" y="-64" on="1"/>
        <pt x="727" y="-31" on="1"/>
        <pt x="734" y="-31" on="0"/>
        <pt x="751" y="-31" on="0"/>
        <pt x="767" y="-31" on="0"/>
        <pt x="785" y="-31" on="0"/>
        <pt x="792" y="-31" on="1"/>
        <pt x="793" y="2" on="1"/>
        <pt x="800" y="2" on="0"/>
        <pt x="818" y="2" on="0"/>
        <pt x="833" y="2" on="0"/>
        <pt x="851" y="2" on="0"/>
        <pt x="858" y="2" on="1"/>
        <pt x="859" y="35" on="1"/>
        <pt x="866" y="35" on="0"/>
        <pt x="884" y="35" on="0"/>
        <pt x="899" y="35" on="0"/>
        <pt x="917" y="35" on="0"/>
        <pt x="924" y="35" on="1"/>
        <pt x="925" y="68" on="1"/>
        <pt x="932" y="68" on="0"/>
        <pt x="950" y="68" on="0"/>
        <pt x="965" y="68" on="0"/>
        <pt x="983" y="68" on="0"/>
        <pt x="990" y="68" on="1"/>
        <pt x="991" y="101" on="1"/>
        <pt x="998" y="101" on="0"/>
        <pt x="1016" y="101" on="0"/>
        <pt x="1031" y="101" on="0"/>
        <pt x="1049" y="101" on="0"/>
        <pt x="1056" y="101" on="1"/>
        <pt x="1057" y="134" on="1"/>
        <pt x="1064" y="134" on="0"/>
        <pt x="1082" y="134" on="0"/>
        <pt x="1097" y="134" on="0"/>
        <pt x="1115" y="134" on="0"/>
        <pt x="1122" y="134" on="1"/>
        <pt x="1123" y="167" on="1"/>
        <pt x="1130" y="167" on="0"/>
        <pt x="1148" y="167" on="0"/>
        <pt x="1163" y="167" on="0"/>
        <pt x="1181" y="167" on="0"/>
        <pt x="1188" y="167" on="1"/>
        <pt x="1189" y="200" on="1"/>
        <pt x="1196" y="200" on="0"/>
        <pt x="1214" y="200" on="0"/>
        <pt x="1229" y="200" on="0"/>
        <pt x="1247" y="200" on="0"/>
        <pt x="1254" y="200" on="1"/>
        <pt x="1255" y="295" on="0"/>
        <pt x="1254" y="485" on="0"/>
        <pt x="1255" y="675" on="0"/>
        <pt x="1254" y="865" on="0"/>
        <pt x="1255" y="960" on="1"/>
        <pt x="1221" y="960" on="1"/>
      </contour>
    </TTGlyph>
    <TTGlyph name="w" xMin="0" yMin="-64" xMax="2048" yMax="960">
      <contour>
        <pt x="2015" y="960" on="1"/>
        <pt x="1961" y="960" on="0"/>
        <pt x="1854" y="960" on="0"/>
        <pt x="1747" y="960" on="0"/>
        <pt x="1639" y="960" on="0"/>
        <pt x="1586" y="960" on="1"/>
        <pt x="1586" y="853" on="0"/>
        <pt x="1586" y="638" on="0"/>
        <pt x="1586" y="423" on="0"/>
        <pt x="1586" y="209" on="0"/>
        <pt x="1586" y="101" on="1"/>
        <pt x="1544" y="101" on="0"/>
        <pt x="1462" y="101" on="0"/>
        <pt x="1379" y="101" on="0"/>
        <pt x="1297" y="101" on="0"/>
        <pt x="1255" y="101" on="1"/>
        <pt x="1255" y="209" on="0"/>
        <pt x="1255" y="423" on="0"/>
        <pt x="1255" y="638" on="0"/>
        <pt x="1255" y="853" on="0"/>
        <pt x="1255" y="960" on="1"/>
        <pt x="1197" y="960" on="0"/>
        <pt x="1082" y="960" on="0"/>
        <pt x="966" y="960" on="0"/>
        <pt x="851" y="960" on="0"/>
        <pt x="793" y="960" on="1"/>
        <pt x="793" y="853" on="0"/>
        <pt x="793" y="638" on="0"/>
        <pt x="793" y="423" on="0"/>
        <pt x="793" y="209" on="0"/>
        <pt x="793" y="101" on="1"/>
        <pt x="751" y="101" on="0"/>
        <pt x="669" y="101" on="0"/>
        <pt x="586" y="101" on="0"/>
        <pt x="504" y="101" on="0"/>
        <pt x="462" y="101" on="1"/>
        <pt x="462" y="209" on="0"/>
        <pt x="462" y="423" on="0"/>
        <pt x="462" y="638" on="0"/>
        <pt x="462" y="853" on="0"/>
        <pt x="462" y="960" on="1"/>
        <pt x="405" y="960" on="0"/>
        <pt x="289" y="960" on="0"/>
        <pt x="173" y="960" on="0"/>
        <pt x="58" y="960" on="0"/>
        <pt x="0" y="960" on="1"/>
        <pt x="0" y="832" on="0"/>
        <pt x="0" y="576" on="0"/>
        <pt x="0" y="320" on="0"/>
        <pt x="0" y="64" on="0"/>
        <pt x="0" y="-64" on="1"/>
        <pt x="256" y="-64" on="0"/>
        <pt x="768" y="-64" on="0"/>
        <pt x="1280" y="-64" on="0"/>
        <pt x="1792" y="-64" on="0"/>
        <pt x="2048" y="-64" on="1"/>
        <pt x="2048" y="64" on="0"/>
        <pt x="2048" y="320" on="0"/>
        <pt x="2048" y="576" on="0"/>
        <pt x="2048" y="832" on="0"/>
        <pt x="2048" y="960" on="1"/>
        <pt x="2015" y="960" on="1"/>
      </contour>
    </TTGlyph>
    <TTGlyph name="x" xMin="0" yMin="-64" xMax="1519" yMax="960">
      <contour>
        <pt x="1486" y="960" on="1"/>
        <pt x="1432" y="960" on="0"/>
        <pt x="1325" y="960" on="0"/>
        <pt x="1217" y="960" on="0"/>
        <pt x="1111" y="960" on="0"/>
        <pt x="1056" y="960" on="1"/>
        <pt x="1057" y="952" on="0"/>
        <pt x="1056" y="935" on="0"/>
        <pt x="1057" y="919" on="0"/>
        <pt x="1056" y="902" on="0"/>
        <pt x="1057" y="894" on="1"/>
        <pt x="1048" y="894" on="0"/>
        <pt x="1032" y="894" on="0"/>
        <pt x="1015" y="894" on="0"/>
        <pt x="999" y="894" on="0"/>
        <pt x="990" y="894" on="1"/>
        <pt x="991" y="882" on="0"/>
        <pt x="990" y="857" on="0"/>
        <pt x="991" y="832" on="0"/>
        <pt x="990" y="807" on="0"/>
        <pt x="991" y="795" on="1"/>
        <pt x="982" y="795" on="0"/>
        <pt x="966" y="795" on="0"/>
        <pt x="949" y="795" on="0"/>
        <pt x="933" y="795" on="0"/>
        <pt x="924" y="795" on="1"/>
        <pt x="925" y="782" on="0"/>
        <pt x="924" y="758" on="0"/>
        <pt x="925" y="733" on="0"/>
        <pt x="924" y="708" on="0"/>
        <pt x="925" y="696" on="1"/>
        <pt x="916" y="696" on="0"/>
        <pt x="900" y="696" on="0"/>
        <pt x="883" y="696" on="0"/>
        <pt x="867" y="696" on="0"/>
        <pt x="858" y="696" on="1"/>
        <pt x="859" y="683" on="0"/>
        <pt x="858" y="659" on="0"/>
        <pt x="859" y="634" on="0"/>
        <pt x="858" y="609" on="0"/>
        <pt x="859" y="597" on="1"/>
        <pt x="850" y="597" on="0"/>
        <pt x="834" y="597" on="0"/>
        <pt x="817" y="597" on="0"/>
        <pt x="801" y="597" on="0"/>
        <pt x="792" y="597" on="1"/>
        <pt x="793" y="584" on="0"/>
        <pt x="792" y="559" on="0"/>
        <pt x="793" y="535" on="0"/>
        <pt x="792" y="510" on="0"/>
        <pt x="793" y="498" on="1"/>
        <pt x="784" y="498" on="0"/>
        <pt x="768" y="498" on="0"/>
        <pt x="750" y="498" on="0"/>
        <pt x="735" y="498" on="0"/>
        <pt x="726" y="498" on="1"/>
        <pt x="727" y="510" on="0"/>
        <pt x="726" y="535" on="0"/>
        <pt x="727" y="559" on="0"/>
        <pt x="726" y="584" on="0"/>
        <pt x="727" y="597" on="1"/>
        <pt x="717" y="597" on="0"/>
        <pt x="702" y="597" on="0"/>
        <pt x="684" y="597" on="0"/>
        <pt x="669" y="597" on="0"/>
        <pt x="660" y="597" on="1"/>
        <pt x="661" y="609" on="0"/>
        <pt x="660" y="634" on="0"/>
        <pt x="661" y="659" on="0"/>
        <pt x="660" y="683" on="0"/>
        <pt x="661" y="696" on="1"/>
        <pt x="651" y="696" on="0"/>
        <pt x="636" y="696" on="0"/>
        <pt x="618" y="696" on="0"/>
        <pt x="603" y="696" on="0"/>
        <pt x="594" y="696" on="1"/>
        <pt x="595" y="708" on="0"/>
        <pt x="594" y="733" on="0"/>
        <pt x="595" y="758" on="0"/>
        <pt x="594" y="782" on="0"/>
        <pt x="595" y="795" on="1"/>
        <pt x="585" y="795" on="0"/>
        <pt x="570" y="795" on="0"/>
        <pt x="552" y="795" on="0"/>
        <pt x="537" y="795" on="0"/>
        <pt x="528" y="795" on="1"/>
        <pt x="529" y="807" on="0"/>
        <pt x="528" y="832" on="0"/>
        <pt x="529" y="857" on="0"/>
        <pt x="528" y="882" on="0"/>
        <pt x="529" y="894" on="1"/>
        <pt x="519" y="894" on="0"/>
        <pt x="504" y="894" on="0"/>
        <pt x="486" y="894" on="0"/>
        <pt x="471" y="894" on="0"/>
        <pt x="461" y="894" on="1"/>
        <pt x="462" y="902" on="0"/>
        <pt x="461" y="919" on="0"/>
        <pt x="462" y="935" on="0"/>
        <pt x="461" y="952" on="0"/>
        <pt x="462" y="960" on="1"/>
        <pt x="404" y="960" on="0"/>
        <pt x="289" y="960" on="0"/>
        <pt x="172" y="960" on="0"/>
        <pt x="58" y="960" on="0"/>
        <pt x="-1" y="960" on="1"/>
        <pt x="0" y="948" on="0"/>
        <pt x="-1" y="923" on="0"/>
        <pt x="0" y="898" on="0"/>
        <pt x="-1" y="873" on="0"/>
        <pt x="0" y="861" on="1"/>
        <pt x="7" y="861" on="0"/>
        <pt x="25" y="861" on="0"/>
        <pt x="40" y="861" on="0"/>
        <pt x="58" y="861" on="0"/>
        <pt x="65" y="861" on="1"/>
        <pt x="66" y="828" on="1"/>
        <pt x="73" y="828" on="0"/>
        <pt x="91" y="828" on="0"/>
        <pt x="106" y="828" on="0"/>
        <pt x="124" y="828" on="0"/>
        <pt x="131" y="828" on="1"/>
        <pt x="132" y="820" on="0"/>
        <pt x="131" y="803" on="0"/>
        <pt x="132" y="787" on="0"/>
        <pt x="131" y="770" on="0"/>
        <pt x="132" y="762" on="1"/>
        <pt x="139" y="762" on="0"/>
        <pt x="157" y="762" on="0"/>
        <pt x="172" y="762" on="0"/>
        <pt x="190" y="762" on="0"/>
        <pt x="197" y="762" on="1"/>
        <pt x="198" y="729" on="1"/>
        <pt x="205" y="729" on="0"/>
        <pt x="223" y="729" on="0"/>
        <pt x="238" y="729" on="0"/>
        <pt x="256" y="729" on="0"/>
        <pt x="263" y="729" on="1"/>
        <pt x="264" y="721" on="0"/>
        <pt x="263" y="704" on="0"/>
        <pt x="264" y="687" on="0"/>
        <pt x="263" y="671" on="0"/>
        <pt x="264" y="663" on="1"/>
        <pt x="272" y="663" on="0"/>
        <pt x="289" y="663" on="0"/>
        <pt x="305" y="663" on="0"/>
        <pt x="322" y="663" on="0"/>
        <pt x="329" y="663" on="1"/>
        <pt x="330" y="630" on="1"/>
        <pt x="338" y="630" on="0"/>
        <pt x="355" y="630" on="0"/>
        <pt x="371" y="630" on="0"/>
        <pt x="388" y="630" on="0"/>
        <pt x="395" y="630" on="1"/>
        <pt x="396" y="621" on="0"/>
        <pt x="395" y="605" on="0"/>
        <pt x="396" y="588" on="0"/>
        <pt x="395" y="572" on="0"/>
        <pt x="396" y="564" on="1"/>
        <pt x="404" y="564" on="0"/>
        <pt x="421" y="564" on="0"/>
        <pt x="437" y="564" on="0"/>
        <pt x="454" y="564" on="0"/>
        <pt x="461" y="564" on="1"/>
        <pt x="462" y="531" on="1"/>
        <pt x="470" y="531" on="0"/>
        <pt x="487" y="531" on="0"/>
        <pt x="503" y="531" on="0"/>
        <pt x="520" y="531" on="0"/>
        <pt x="528" y="531" on="1"/>
        <pt x="529" y="522" on="0"/>
        <pt x="528" y="506" on="0"/>
        <pt x="529" y="489" on="0"/>
        <pt x="528" y="473" on="0"/>
        <pt x="529" y="465" on="1"/>
        <pt x="536" y="465" on="0"/>
        <pt x="553" y="465" on="0"/>
        <pt x="569" y="465" on="0"/>
        <pt x="586" y="465" on="0"/>
        <pt x="594" y="465" on="1"/>
        <pt x="595" y="431" on="1"/>
        <pt x="585" y="431" on="0"/>
        <pt x="570" y="431" on="0"/>
        <pt x="552" y="431" on="0"/>
        <pt x="537" y="431" on="0"/>
        <pt x="528" y="431" on="1"/>
        <pt x="529" y="423" on="0"/>
        <pt x="528" y="407" on="0"/>
        <pt x="529" y="390" on="0"/>
        <pt x="528" y="374" on="0"/>
        <pt x="529" y="365" on="1"/>
        <pt x="519" y="365" on="0"/>
        <pt x="504" y="365" on="0"/>
        <pt x="486" y="365" on="0"/>
        <pt x="471" y="365" on="0"/>
        <pt x="461" y="365" on="1"/>
        <pt x="462" y="332" on="1"/>
        <pt x="453" y="332" on="0"/>
        <pt x="438" y="332" on="0"/>
        <pt x="420" y="332" on="0"/>
        <pt x="405" y="332" on="0"/>
        <pt x="395" y="332" on="1"/>
        <pt x="396" y="324" on="0"/>
        <pt x="395" y="308" on="0"/>
        <pt x="396" y="291" on="0"/>
        <pt x="395" y="275" on="0"/>
        <pt x="396" y="266" on="1"/>
        <pt x="387" y="266" on="0"/>
        <pt x="372" y="266" on="0"/>
        <pt x="354" y="266" on="0"/>
        <pt x="339" y="266" on="0"/>
        <pt x="329" y="266" on="1"/>
        <pt x="330" y="233" on="1"/>
        <pt x="321" y="233" on="0"/>
        <pt x="306" y="233" on="0"/>
        <pt x="288" y="233" on="0"/>
        <pt x="273" y="233" on="0"/>
        <pt x="263" y="233" on="1"/>
        <pt x="264" y="225" on="0"/>
        <pt x="263" y="209" on="0"/>
        <pt x="264" y="192" on="0"/>
        <pt x="263" y="175" on="0"/>
        <pt x="264" y="167" on="1"/>
        <pt x="255" y="167" on="0"/>
        <pt x="239" y="167" on="0"/>
        <pt x="222" y="167" on="0"/>
        <pt x="206" y="167" on="0"/>
        <pt x="197" y="167" on="1"/>
        <pt x="198" y="134" on="1"/>
        <pt x="189" y="134" on="0"/>
        <pt x="173" y="134" on="0"/>
        <pt x="156" y="134" on="0"/>
        <pt x="140" y="134" on="0"/>
        <pt x="131" y="134" on="1"/>
        <pt x="132" y="126" on="0"/>
        <pt x="131" y="109" on="0"/>
        <pt x="132" y="93" on="0"/>
        <pt x="131" y="76" on="0"/>
        <pt x="132" y="68" on="1"/>
        <pt x="123" y="68" on="0"/>
        <pt x="107" y="68" on="0"/>
        <pt x="90" y="68" on="0"/>
        <pt x="74" y="68" on="0"/>
        <pt x="65" y="68" on="1"/>
        <pt x="66" y="35" on="1"/>
        <pt x="57" y="35" on="0"/>
        <pt x="41" y="35" on="0"/>
        <pt x="24" y="35" on="0"/>
        <pt x="8" y="35" on="0"/>
        <pt x="-1" y="35" on="1"/>
        <pt x="0" y="23" on="0"/>
        <pt x="-1" y="-2" on="0"/>
        <pt x="0" y="-27" on="0"/>
        <pt x="-1" y="-52" on="0"/>
        <pt x="0" y="-64" on="1"/>
        <pt x="57" y="-64" on="0"/>
        <pt x="173" y="-64" on="0"/>
        <pt x="288" y="-64" on="0"/>
        <pt x="405" y="-64" on="0"/>
        <pt x="461" y="-64" on="1"/>
        <pt x="462" y="-56" on="0"/>
        <pt x="461" y="-39" on="0"/>
        <pt x="462" y="-23" on="0"/>
        <pt x="461" y="-6" on="0"/>
        <pt x="462" y="2" on="1"/>
        <pt x="470" y="2" on="0"/>
        <pt x="487" y="2" on="0"/>
        <pt x="503" y="2" on="0"/>
        <pt x="520" y="2" on="0"/>
        <pt x="528" y="2" on="1"/>
        <pt x="529" y="14" on="0"/>
        <pt x="528" y="39" on="0"/>
        <pt x="529" y="64" on="0"/>
        <pt x="528" y="89" on="0"/>
        <pt x="529" y="101" on="1"/>
        <pt x="536" y="101" on="0"/>
        <pt x="553" y="101" on="0"/>
        <pt x="569" y="101" on="0"/>
        <pt x="586" y="101" on="0"/>
        <pt x="594" y="101" on="1"/>
        <pt x="595" y="114" on="0"/>
        <pt x="594" y="138" on="0"/>
        <pt x="595" y="163" on="0"/>
        <pt x="594" y="188" on="0"/>
        <pt x="595" y="200" on="1"/>
        <pt x="602" y="200" on="0"/>
        <pt x="619" y="200" on="0"/>
        <pt x="635" y="200" on="0"/>
        <pt x="652" y="200" on="0"/>
        <pt x="660" y="200" on="1"/>
        <pt x="661" y="213" on="0"/>
        <pt x="660" y="237" on="0"/>
        <pt x="661" y="262" on="0"/>
        <pt x="660" y="287" on="0"/>
        <pt x="661" y="299" on="1"/>
        <pt x="668" y="299" on="0"/>
        <pt x="685" y="299" on="0"/>
        <pt x="701" y="299" on="0"/>
        <pt x="718" y="299" on="0"/>
        <pt x="726" y="299" on="1"/>
        <pt x="727" y="312" on="0"/>
        <pt x="726" y="337" on="0"/>
        <pt x="727" y="361" on="0"/>
        <pt x="726" y="386" on="0"/>
        <pt x="727" y="398" on="1"/>
        <pt x="734" y="398" on="0"/>
        <pt x="751" y="398" on="0"/>
        <pt x="767" y="398" on="0"/>
        <pt x="785" y="398" on="0"/>
        <pt x="792" y="398" on="1"/>
        <pt x="793" y="386" on="0"/>
        <pt x="792" y="361" on="0"/>
        <pt x="793" y="337" on="0"/>
        <pt x="792" y="312" on="0"/>
        <pt x="793" y="299" on="1"/>
        <pt x="800" y="299" on="0"/>
        <pt x="818" y="299" on="0"/>
        <pt x="833" y="299" on="0"/>
        <pt x="851" y="299" on="0"/>
        <pt x="858" y="299" on="1"/>
        <pt x="859" y="287" on="0"/>
        <pt x="858" y="262" on="0"/>
        <pt x="859" y="237" on="0"/>
        <pt x="858" y="213" on="0"/>
        <pt x="859" y="200" on="1"/>
        <pt x="866" y="200" on="0"/>
        <pt x="884" y="200" on="0"/>
        <pt x="899" y="200" on="0"/>
        <pt x="917" y="200" on="0"/>
        <pt x="924" y="200" on="1"/>
        <pt x="925" y="188" on="0"/>
        <pt x="924" y="163" on="0"/>
        <pt x="925" y="138" on="0"/>
        <pt x="924" y="114" on="0"/>
        <pt x="925" y="101" on="1"/>
        <pt x="932" y="101" on="0"/>
        <pt x="950" y="101" on="0"/>
        <pt x="965" y="101" on="0"/>
        <pt x="983" y="101" on="0"/>
        <pt x="990" y="101" on="1"/>
        <pt x="991" y="89" on="0"/>
        <pt x="990" y="64" on="0"/>
        <pt x="991" y="39" on="0"/>
        <pt x="990" y="14" on="0"/>
        <pt x="991" y="2" on="1"/>
        <pt x="998" y="2" on="0"/>
        <pt x="1016" y="2" on="0"/>
        <pt x="1031" y="2" on="0"/>
        <pt x="1049" y="2" on="0"/>
        <pt x="1056" y="2" on="1"/>
        <pt x="1057" y="-6" on="0"/>
        <pt x="1056" y="-23" on="0"/>
        <pt x="1057" y="-39" on="0"/>
        <pt x="1056" y="-56" on="0"/>
        <pt x="1057" y="-64" on="1"/>
        <pt x="1114" y="-64" on="0"/>
        <pt x="1230" y="-64" on="0"/>
        <pt x="1345" y="-64" on="0"/>
        <pt x="1462" y="-64" on="0"/>
        <pt x="1518" y="-64" on="1"/>
        <pt x="1519" y="-52" on="0"/>
        <pt x="1518" y="-27" on="0"/>
        <pt x="1519" y="-2" on="0"/>
        <pt x="1518" y="23" on="0"/>
        <pt x="1519" y="35" on="1"/>
        <pt x="1510" y="35" on="0"/>
        <pt x="1495" y="35" on="0"/>
        <pt x="1477" y="35" on="0"/>
        <pt x="1462" y="35" on="0"/>
        <pt x="1452" y="35" on="1"/>
        <pt x="1453" y="68" on="1"/>
        <pt x="1444" y="68" on="0"/>
        <pt x="1429" y="68" on="0"/>
        <pt x="1411" y="68" on="0"/>
        <pt x="1396" y="68" on="0"/>
        <pt x="1386" y="68" on="1"/>
        <pt x="1387" y="76" on="0"/>
        <pt x="1386" y="93" on="0"/>
        <pt x="1387" y="109" on="0"/>
        <pt x="1386" y="126" on="0"/>
        <pt x="1387" y="134" on="1"/>
        <pt x="1378" y="134" on="0"/>
        <pt x="1363" y="134" on="0"/>
        <pt x="1345" y="134" on="0"/>
        <pt x="1330" y="134" on="0"/>
        <pt x="1320" y="134" on="1"/>
        <pt x="1321" y="167" on="1"/>
        <pt x="1312" y="167" on="0"/>
        <pt x="1297" y="167" on="0"/>
        <pt x="1279" y="167" on="0"/>
        <pt x="1263" y="167" on="0"/>
        <pt x="1254" y="167" on="1"/>
        <pt x="1255" y="175" on="0"/>
        <pt x="1254" y="192" on="0"/>
        <pt x="1255" y="209" on="0"/>
        <pt x="1254" y="225" on="0"/>
        <pt x="1255" y="233" on="1"/>
        <pt x="1246" y="233" on="0"/>
        <pt x="1230" y="233" on="0"/>
        <pt x="1213" y="233" on="0"/>
        <pt x="1197" y="233" on="0"/>
        <pt x="1188" y="233" on="1"/>
        <pt x="1189" y="266" on="1"/>
        <pt x="1180" y="266" on="0"/>
        <pt x="1164" y="266" on="0"/>
        <pt x="1147" y="266" on="0"/>
        <pt x="1131" y="266" on="0"/>
        <pt x="1122" y="266" on="1"/>
        <pt x="1123" y="275" on="0"/>
        <pt x="1122" y="291" on="0"/>
        <pt x="1123" y="308" on="0"/>
        <pt x="1122" y="324" on="0"/>
        <pt x="1123" y="332" on="1"/>
        <pt x="1114" y="332" on="0"/>
        <pt x="1098" y="332" on="0"/>
        <pt x="1081" y="332" on="0"/>
        <pt x="1065" y="332" on="0"/>
        <pt x="1056" y="332" on="1"/>
        <pt x="1057" y="365" on="1"/>
        <pt x="1048" y="365" on="0"/>
        <pt x="1032" y="365" on="0"/>
        <pt x="1015" y="365" on="0"/>
        <pt x="999" y="365" on="0"/>
        <pt x="990" y="365" on="1"/>
        <pt x="991" y="374" on="0"/>
        <pt x="990" y="390" on="0"/>
        <pt x="991" y="407" on="0"/>
        <pt x="990" y="423" on="0"/>
        <pt x="991" y="431" on="1"/>
        <pt x="982" y="431" on="0"/>
        <pt x="966" y="431" on="0"/>
        <pt x="949" y="431" on="0"/>
        <pt x="933" y="431" on="0"/>
        <pt x="924" y="431" on="1"/>
        <pt x="925" y="465" on="1"/>
        <pt x="932" y="465" on="0"/>
        <pt x="950" y="465" on="0"/>
        <pt x="965" y="465" on="0"/>
        <pt x="983" y="465" on="0"/>
        <pt x="990" y="465" on="1"/>
        <pt x="991" y="473" on="0"/>
        <pt x="990" y="489" on="0"/>
        <pt x="991" y="506" on="0"/>
        <pt x="990" y="522" on="0"/>
        <pt x="991" y="531" on="1"/>
        <pt x="998" y="531" on="0"/>
        <pt x="1016" y="531" on="0"/>
        <pt x="1031" y="531" on="0"/>
        <pt x="1049" y="531" on="0"/>
        <pt x="1056" y="531" on="1"/>
        <pt x="1057" y="564" on="1"/>
        <pt x="1064" y="564" on="0"/>
        <pt x="1082" y="564" on="0"/>
        <pt x="1097" y="564" on="0"/>
        <pt x="1115" y="564" on="0"/>
        <pt x="1122" y="564" on="1"/>
        <pt x="1123" y="572" on="0"/>
        <pt x="1122" y="588" on="0"/>
        <pt x="1123" y="605" on="0"/>
        <pt x="1122" y="621" on="0"/>
        <pt x="1123" y="630" on="1"/>
        <pt x="1130" y="630" on="0"/>
        <pt x="1148" y="630" on="0"/>
        <pt x="1163" y="630" on="0"/>
        <pt x="1181" y="630" on="0"/>
        <pt x="1188" y="630" on="1"/>
        <pt x="1189" y="663" on="1"/>
        <pt x="1196" y="663" on="0"/>
        <pt x="1214" y="663" on="0"/>
        <pt x="1229" y="663" on="0"/>
        <pt x="1247" y="663" on="0"/>
        <pt x="1254" y="663" on="1"/>
        <pt x="1255" y="671" on="0"/>
        <pt x="1254" y="687" on="0"/>
        <pt x="1255" y="704" on="0"/>
        <pt x="1254" y="721" on="0"/>
        <pt x="1255" y="729" on="1"/>
        <pt x="1262" y="729" on="0"/>
        <pt x="1280" y="729" on="0"/>
        <pt x="1296" y="729" on="0"/>
        <pt x="1313" y="729" on="0"/>
        <pt x="1320" y="729" on="1"/>
        <pt x="1321" y="762" on="1"/>
        <pt x="1329" y="762" on="0"/>
        <pt x="1346" y="762" on="0"/>
        <pt x="1362" y="762" on="0"/>
        <pt x="1379" y="762" on="0"/>
        <pt x="1386" y="762" on="1"/>
        <pt x="1387" y="770" on="0"/>
        <pt x="1386" y="787" on="0"/>
        <pt x="1387" y="803" on="0"/>
        <pt x="1386" y="820" on="0"/>
        <pt x="1387" y="828" on="1"/>
        <pt x="1395" y="828" on="0"/>
        <pt x="1412" y="828" on="0"/>
        <pt x="1428" y="828" on="0"/>
        <pt x="1445" y="828" on="0"/>
        <pt x="1452" y="828" on="1"/>
        <pt x="1453" y="861" on="1"/>
        <pt x="1461" y="861" on="0"/>
        <pt x="1478" y="861" on="0"/>
        <pt x="1494" y="861" on="0"/>
        <pt x="1511" y="861" on="0"/>
        <pt x="1518" y="861" on="1"/>
        <pt x="1519" y="873" on="0"/>
        <pt x="1518" y="898" on="0"/>
        <pt x="1519" y="923" on="0"/>
        <pt x="1518" y="948" on="0"/>
        <pt x="1519" y="960" on="1"/>
        <pt x="1485" y="960" on="1"/>
      </contour>
    </TTGlyph>
</ttFont>
